/* XPM */
static char *bB[] = {
/* columns rows colors chars-per-pixel */
"64 64 197 2 ",
"   c None",
".  c #2E2E2E",
"X  c #303030",
"o  c #313131",
"O  c #323232",
"+  c #333333",
"@  c #343434",
"#  c #353535",
"$  c #363636",
"%  c #373737",
"&  c #383838",
"*  c #393939",
"=  c #3A3A3A",
"-  c #3B3B3B",
";  c #3C3C3C",
":  c #3D3D3D",
">  c #3E3E3E",
",  c #3F3F3F",
"<  c #404040",
"1  c #414141",
"2  c #424242",
"3  c #434343",
"4  c #444444",
"5  c #454545",
"6  c #464646",
"7  c #474747",
"8  c #484848",
"9  c #494949",
"0  c #4A4A4A",
"q  c #4B4B4B",
"w  c #4C4C4C",
"e  c #4D4D4D",
"r  c #4E4E4E",
"t  c #4F4F4F",
"y  c #505050",
"u  c #515151",
"i  c #525252",
"p  c #535353",
"a  c #545454",
"s  c #555555",
"d  c #565656",
"f  c #575757",
"g  c #585858",
"h  c #5A5A5A",
"j  c #5B5B5B",
"k  c #5C5C5C",
"l  c #5D5D5D",
"z  c #5E5E5E",
"x  c #5F5F5F",
"c  c #606060",
"v  c #616161",
"b  c #626262",
"n  c #636363",
"m  c #646464",
"M  c #656565",
"N  c #666666",
"B  c #676767",
"V  c #686868",
"C  c #696969",
"Z  c #6A6A6A",
"A  c #6B6B6B",
"S  c #6D6D6D",
"D  c #707070",
"F  c #717171",
"G  c #727272",
"H  c #737373",
"J  c #747474",
"K  c #757575",
"L  c #777777",
"P  c #787878",
"I  c #797979",
"U  c #7A7A7A",
"Y  c #7B7B7B",
"T  c #7C7C7C",
"R  c #7D7D7D",
"E  c #7E7E7E",
"W  c #808080",
"Q  c #818181",
"!  c #828282",
"~  c #838383",
"^  c #858585",
"/  c #868686",
"(  c #878787",
")  c #888888",
"_  c #898989",
"`  c #8A8A8A",
"'  c #8B8B8B",
"]  c #8C8C8C",
"[  c #8D8D8D",
"{  c #8E8E8E",
"}  c #8F8F8F",
"|  c #909090",
" . c #929292",
".. c #939393",
"X. c #949494",
"o. c #959595",
"O. c #969696",
"+. c #979797",
"@. c #989898",
"#. c #999999",
"$. c #9A9A9A",
"%. c #9B9B9B",
"&. c #9C9C9C",
"*. c #9D9D9D",
"=. c #9E9E9E",
"-. c #9F9F9F",
";. c #A0A0A0",
":. c #A1A1A1",
">. c #A3A3A3",
",. c #A5A5A5",
"<. c #A6A6A6",
"1. c #A7A7A7",
"2. c #A8A8A8",
"3. c #A9A9A9",
"4. c #ABABAB",
"5. c #ACACAC",
"6. c #ADADAD",
"7. c #AEAEAE",
"8. c #B0B0B0",
"9. c #B1B1B1",
"0. c #B3B3B3",
"q. c #B4B4B4",
"w. c #B5B5B5",
"e. c #B6B6B6",
"r. c #B7B7B7",
"t. c #B8B8B8",
"y. c #B9B9B9",
"u. c #BABABA",
"i. c #BBBBBB",
"p. c #BCBCBC",
"a. c #BDBDBD",
"s. c #BEBEBE",
"d. c #BFBFBF",
"f. c #C0C0C0",
"g. c #C1C1C1",
"h. c #C2C2C2",
"j. c #C3C3C3",
"k. c #C4C4C4",
"l. c #C5C5C5",
"z. c #C6C6C6",
"x. c #C7C7C7",
"c. c #C8C8C8",
"v. c #C9C9C9",
"b. c #CACACA",
"n. c #CBCBCB",
"m. c #CCCCCC",
"M. c #CDCDCD",
"N. c #CECECE",
"B. c #CFCFCF",
"V. c #D0D0D0",
"C. c #D1D1D1",
"Z. c #D2D2D2",
"A. c #D3D3D3",
"S. c #D4D4D4",
"D. c #D5D5D5",
"F. c #D6D6D6",
"G. c #D7D7D7",
"H. c #D8D8D8",
"J. c #D9D9D9",
"K. c #DADADA",
"L. c #DBDBDB",
"P. c #DCDCDC",
"I. c #DDDDDD",
"U. c #DEDEDE",
"Y. c #DFDFDF",
"T. c #E0E0E0",
"R. c #E1E1E1",
"E. c #E2E2E2",
"W. c #E3E3E3",
"Q. c #E4E4E4",
"!. c #E5E5E5",
"~. c #E6E6E6",
"^. c #E7E7E7",
"/. c #E8E8E8",
"(. c #E9E9E9",
"). c #EAEAEA",
"_. c #EBEBEB",
"`. c #ECECEC",
"'. c #EDEDED",
"]. c #EEEEEE",
"[. c #EFEFEF",
"{. c #F0F0F0",
"}. c #F1F1F1",
"|. c #F2F2F2",
" X c #F3F3F3",
".X c #F4F4F4",
"XX c #F5F5F5",
"oX c #F6F6F6",
"OX c #F7F7F7",
"+X c #F8F8F8",
"@X c #F9F9F9",
"#X c #FAFAFA",
"$X c #FBFBFB",
"%X c #FCFCFC",
"&X c #FDFDFD",
"*X c #FEFEFE",
"=X c #FFFFFF",
/* pixels */
"                                                                                                                                ",
"                                                                                                                                ",
"                                                                                                                                ",
"                                                                                                                                ",
"                                                                                                                                ",
"                                                                                                                                ",
"                                                                                                                                ",
"                                                          =X=X=X=X=X=X=X                                                        ",
"                                                        =X=X=X=X=X=X=X=X=X=X                                                    ",
"                                                        =X=X=X_.J._.}.=X=X=X                                                    ",
"                                                    =X=X=XJ.%.A c c { n.=X=X=X                                                  ",
"                                                    =X=X_.%.u O O . < / J.=X=X                                                  ",
"                                                    =X=Xi.A * * * * O 0 %._.=X                                                  ",
"                                                    =X=X/ 0 * < < * O * z J.=X                                                  ",
"                                                    =X=X/ 0 * < < * * * z J.=X                                                  ",
"                                                    =X=X5.c * < * * O < { _.=X                                                  ",
"                                                    =X=XT.X.u * * * < G n.}.=X                                                  ",
"                                                  =X=X=X=Xi.A * * O u %.}.=X=X=X                                                ",
"                                                  =X=X=X_.{ * O O O O c J.=X=X=X                                                ",
"                                                =X=X=X_.{ 0 * * * * O * A G.=X=X=X=X                                            ",
"                                          =X=X=X=X=XG.X.0 * < * * O O O O G k.}.=X=X=X=X                                        ",
"                                        =X=X=X=X}.n.{ < * < < < * * * O O O A 9.T.=X=X=X=X                                      ",
"                                      =X=X=X=X}.i.G < < < < < < < * * * * O O u %.T.=X=X=X=X=X                                  ",
"                                      =X=X=X_.X.z < < < < < < 0 u < * * * * O * 0 G G.=X=X=X=X                                  ",
"                                      =X=XT.X.z < * < < < * c 5.9.%.c * * * O O O < T n.=X=X=X                                  ",
"                                  =X=X=X}.9.u < * < < < < * T _._.J.{ * < * * O O O * { _.=X=X=X                                ",
"                                  =X=X=Xn.T < < < < * * * * T T._._.%.* * * * O O O O z 5.=X=X=X                                ",
"                                  =X=X=X%.< < < < < < < 0 < / T._._.%.< < < < * O O O O A }.=X=X                                ",
"                                  =X=X_.{ * < < < 0 G 5.9.9.k.T.T.T.n.9.9.5.G < O O O O z J.=X=X                                ",
"                                  =X=XG.T * < < * A 9.J.T.T.T.T.T.T.T.T.T.T.>.c O O * O u i.}.=X                                ",
"                                  =X=Xk.G * < < * A i.J.T.T.T.T.T.T.T.T.J.J.5.c * * * O u 5.}.=X                                ",
"                                  =X=Xk.G * < < * 0 T 5.9.9.k.T.T.T.G.9.9.9.T 0 * * * O u 5.}.=X                                ",
"                                  =X=XG.T * < < < < 0 u u u / T.T._.>.0 u u 0 * O O * O z i.}.=X                                ",
"                                  =X=XT.{ * < < < < * * * * T T.T._.%.* * * * * O O * O z G.=X=X                                ",
"                                  =X=X=X%.< < < < < < < < * T _._.J.{ * < < * * O O O O A _.=X=X                                ",
"                                  =X=X=Xi.c < * < < < < < * A k.k.>.A * < < * O O O O 0 %.=X=X=X                                ",
"                                  =X=X=X}.9.0 < < < < < < < < 0 u 0 < < < * * O O O * { T.=X=X=X                                ",
"                                    =X=X=X_.5.0 * < < < < < < < < < < * * * O O O O { G.=X=X=X=X                                ",
"                                      =X=X=X_.9./ z * < < < < < < * * * * O O < A %.J.=X=X=X=X                                  ",
"                                        =X=X=X=Xn.T * < < * < * < * * O O O O z 5.}.=X=X=X                                      ",
"                                          =X=X=XG.T * < < < < < < < * * * O O z 9.}.=X=X                                        ",
"                                          =X=X=XX.0 < < 0 u z c c c z 0 < * * * A _.=X=X                                        ",
"                                          =X=X_.T 0 T 9.i.i.k.k.k.k.i.5.>.%.T 0 u G.=X=X                                        ",
"                                        =X=X=Xi.c c i._._._._._._._._.T.n.n.9.G < >._.=X=X                                      ",
"                                        =X=X_./ 0 { T.J.G.G.n.n.n.n.n.n.i.i.n.X.< c G.=X=X                                      ",
"                                        =X=XJ.z 0 X.G.i.%.{ T G G G T / { %.9.X.0 * i.=X=X                                      ",
"                                        =X}.n.z < 0 z u u 0 0 0 < < 0 < < 0 0 0 * * >._.=X                                      ",
"                    =X=X=X=X=X=X=X=X=X=X=X=X_.k.9.>.{ G 0 * * * * * O O * z T X.5.9.J.=X=X=X=X=X=X=X=X=X=X=X=X=X                ",
"                =X=X=X=X=X_.G.k.9.i.k.G.T._.}.=X=XT.9.T 0 < * * O O O O * c %.G.}.=X}._.T.G.k.i.9.i.n.T.=X=X=X=X=X              ",
"                =X=X=X}.G.5.T u < < z T X.5.i.k.k.9.{ < * < < * * O * * * O A >.i.i.9.5.X.G z < O < c X.k._.=X=X=X              ",
"                =X=X=X9.z 0 < < < < < < 0 0 0 0 0 0 0 < < < < < * * * * O O * < < < < < < * * * O * * * 0 { _.=X=X              ",
"                =X=XG./ < * * < < < < * * * * * * * < < < < < < * * * * * O O O O O O O O * * * * * O O O z i.}.=X              ",
"                =X=XT.{ * < < < < < < < < < < < < < < < < < * < A 0 * * * * * * * * * * * * * * * * * * O c G.=X=X              ",
"                =X=X=Xk.c < * * * * * * * * < < < < < < * * 0 G 9./ u * * < < < < < < * * * * * * * < * u %.=X=X=X              ",
"                =X=X=X}.9.0 < 0 0 u u u 0 0 0 < < < < < 0 0 T G.=XT.X.0 0 < < < < < < 0 0 u u u 0 0 < < X._.=X=X=X              ",
"                =X=X=X=XT.{ u / i.n.G.n.i.>./ z < * < z { k._.=X=X=X_.n.X.z < < < 0 A X.9.k.n.n.k.%.u T n.=X=X=X=X              ",
"                    =X=X}.J.k.J.}.=X=X=X}._.J.k.i.i.i.n.J.}.=X=X=X=X=X=XT.k.i.i.i.i.n.T._.}.=X=X}.T.k.G.}.=X=X=X                ",
"                      =X=X=X=X=X=X=X=X=X=X=X=X=X=X=X=X=X=X=X=X=X=X=X=X=X=X=X=X=X=X=X=X=X=X=X=X=X=X=X=X=X=X=X                    ",
"                      =X=X=X=X=X=X          =X  =X=X=X=X=X            =X=X=X=X=X=X=X=X          =X=X=X=X=X=X                    ",
"                        =X=X=X=X                =X=X=X                      =X=X=X=X                =X=X=X                      ",
"                                                                                                                                ",
"                                                                                                                                ",
"                                                                                                                                ",
"                                                                                                                                "
};
