/* XPM */
static char *bK[] = {
/* columns rows colors chars-per-pixel */
"64 64 193 2 ",
"   c None",
".  c #303030",
"X  c #313131",
"o  c #323232",
"O  c #333333",
"+  c #343434",
"@  c #353535",
"#  c #363636",
"$  c #373737",
"%  c #383838",
"&  c #393939",
"*  c #3A3A3A",
"=  c #3B3B3B",
"-  c #3C3C3C",
";  c #3D3D3D",
":  c #3E3E3E",
">  c #3F3F3F",
",  c #404040",
"<  c #414141",
"1  c #424242",
"2  c #434343",
"3  c #444444",
"4  c #454545",
"5  c #464646",
"6  c #474747",
"7  c #484848",
"8  c #494949",
"9  c #4A4A4A",
"0  c #4B4B4B",
"q  c #4C4C4C",
"w  c #4D4D4D",
"e  c #4E4E4E",
"r  c #4F4F4F",
"t  c #505050",
"y  c #515151",
"u  c #525252",
"i  c #535353",
"p  c #545454",
"a  c #555555",
"s  c #565656",
"d  c #575757",
"f  c #585858",
"g  c #595959",
"h  c #5A5A5A",
"j  c #5B5B5B",
"k  c #5C5C5C",
"l  c #5D5D5D",
"z  c #5E5E5E",
"x  c #5F5F5F",
"c  c #606060",
"v  c #616161",
"b  c #626262",
"n  c #636363",
"m  c #646464",
"M  c #656565",
"N  c #666666",
"B  c #676767",
"V  c #686868",
"C  c #6A6A6A",
"Z  c #6B6B6B",
"A  c #6C6C6C",
"S  c #6D6D6D",
"D  c #6E6E6E",
"F  c #6F6F6F",
"G  c #707070",
"H  c #717171",
"J  c #727272",
"K  c #737373",
"L  c #747474",
"P  c #757575",
"I  c #777777",
"U  c #787878",
"Y  c #797979",
"T  c #7B7B7B",
"R  c #7D7D7D",
"E  c #808080",
"W  c #818181",
"Q  c #828282",
"!  c #838383",
"~  c #848484",
"^  c #858585",
"/  c #868686",
"(  c #878787",
")  c #888888",
"_  c #898989",
"`  c #8B8B8B",
"'  c #8C8C8C",
"]  c #8D8D8D",
"[  c #909090",
"{  c #919191",
"}  c #929292",
"|  c #939393",
" . c #949494",
".. c #959595",
"X. c #969696",
"o. c #979797",
"O. c #999999",
"+. c #9A9A9A",
"@. c #9B9B9B",
"#. c #9C9C9C",
"$. c #9D9D9D",
"%. c #9E9E9E",
"&. c #9F9F9F",
"*. c #A0A0A0",
"=. c #A1A1A1",
"-. c #A2A2A2",
";. c #A3A3A3",
":. c #A5A5A5",
">. c #A6A6A6",
",. c #A7A7A7",
"<. c #A9A9A9",
"1. c #AAAAAA",
"2. c #ACACAC",
"3. c #ADADAD",
"4. c #AEAEAE",
"5. c #AFAFAF",
"6. c #B0B0B0",
"7. c #B1B1B1",
"8. c #B3B3B3",
"9. c #B4B4B4",
"0. c #B5B5B5",
"q. c #B6B6B6",
"w. c #B7B7B7",
"e. c #B8B8B8",
"r. c #B9B9B9",
"t. c #BABABA",
"y. c #BBBBBB",
"u. c #BCBCBC",
"i. c #BDBDBD",
"p. c #BEBEBE",
"a. c #BFBFBF",
"s. c #C0C0C0",
"d. c #C1C1C1",
"f. c #C2C2C2",
"g. c #C4C4C4",
"h. c #C5C5C5",
"j. c #C6C6C6",
"k. c #C7C7C7",
"l. c #C8C8C8",
"z. c #C9C9C9",
"x. c #CACACA",
"c. c #CBCBCB",
"v. c #CCCCCC",
"b. c #CDCDCD",
"n. c #CECECE",
"m. c #CFCFCF",
"M. c #D0D0D0",
"N. c #D1D1D1",
"B. c #D2D2D2",
"V. c #D3D3D3",
"C. c #D4D4D4",
"Z. c #D5D5D5",
"A. c #D6D6D6",
"S. c #D7D7D7",
"D. c #D8D8D8",
"F. c #D9D9D9",
"G. c #DADADA",
"H. c #DBDBDB",
"J. c #DCDCDC",
"K. c #DDDDDD",
"L. c #DEDEDE",
"P. c #DFDFDF",
"I. c #E0E0E0",
"U. c #E1E1E1",
"Y. c #E2E2E2",
"T. c #E3E3E3",
"R. c #E4E4E4",
"E. c #E5E5E5",
"W. c #E6E6E6",
"Q. c #E7E7E7",
"!. c #E8E8E8",
"~. c #E9E9E9",
"^. c #EAEAEA",
"/. c #EBEBEB",
"(. c #ECECEC",
"). c #EEEEEE",
"_. c #EFEFEF",
"`. c #F0F0F0",
"'. c #F1F1F1",
"]. c #F2F2F2",
"[. c #F3F3F3",
"{. c #F4F4F4",
"}. c #F5F5F5",
"|. c #F6F6F6",
" X c #F7F7F7",
".X c #F8F8F8",
"XX c #F9F9F9",
"oX c #FAFAFA",
"OX c #FBFBFB",
"+X c #FCFCFC",
"@X c #FDFDFD",
"#X c #FEFEFE",
"$X c #FFFFFF",
/* pixels */
"                                                                                                                                ",
"                                                                                                                                ",
"                                                                                                                                ",
"                                                                                                                                ",
"                                                      $X$X$X$X$X$X$X$X$X$X$X$X                                                  ",
"                                                    $X$X$X$X$X$X$X$X$X$X$X$X$X                                                  ",
"                                                    $X$X$X].].].].!.!.].$X$X$X                                                  ",
"                                                    $X$X].j.>.>.>.O.O.7.!.$X$X                                                  ",
"                                                    $X$XE.! = = $ $ $ z v.].$X                                                  ",
"                                                    $X$XE.! = = $ $ $ z v.].$X                                                  ",
"                                          $X$X$X$X$X$X$X!.! = = = $ $ z v.$X$X$X$X$X$X$X                                        ",
"                                          $X$X$XC.u.u.u.7.F = = = $ $ 7 O.7.u.7.j.].$X$X                                        ",
"                                          $X$X$XO.z M M M y 1 1 = $ $ = y z y y F !.$X$X                                        ",
"                                          $X$X$X! = 1 1 1 1 1 = = $ $ $ = = = $ y !.$X$X                                        ",
"                                          $X$X$X! = = = = 1 1 1 = = = = $ $ $ $ y !.$X$X                                        ",
"                                          $X$X$X! = 1 1 1 1 1 1 1 1 = = $ $ $ $ y !.$X$X                                        ",
"                                          $X$X$X! $ = = = 1 1 1 1 1 1 = $ $ $ $ y E.$X$X                                        ",
"                                          $X$X$X! 1 7 7 7 1 1 1 1 1 = = = = = = z !.$X$X                                        ",
"                                          $X$X$X>.K K K K y = 1 1 1 = 7 M F F F ! !.$X$X                                        ",
"                        $X$X$X$X$X$X$X$X$X$X$X$X!.P.P.P.| z = 1 1 1 = 7 K j.P.P.P.$X$X$X$X$X$X$X$X$X$X$X$X                      ",
"                    $X$X$X$X$X$XE.C.u.7.7.u.v.P.].$X$X$X! 7 = 1 1 1 = 1 M E.$X$X$XP.v.u.7.2.7.j.P.].$X$X$X$X$X$X                ",
"                $X$X$X$X$X!.v.7.O.! F z z F Y | 2.u.v.P.M = 1 1 1 1 1 = 1 j.P.j.7.| K M y y z F ] 2.j.E.$X$X$X$X$X              ",
"              $X$X$X$X$XP.>.y 1 1 1 1 1 1 1 1 1 1 1 y | y = 1 1 1 1 = = 1 ] F 1 1 1 = = = = = = = = = ! v.].$X$X$X$X            ",
"              $X$X$X$Xj.K y 1 = = 1 1 1 1 = = = 1 = 1 7 1 1 1 1 1 = 1 = = 7 1 = = = = = = = $ $ $ $ $ 1 z O.].$X$X$X            ",
"              $X$X$Xu.K 1 = 1 1 1 1 = = 1 1 1 1 1 1 = = = 1 1 1 = = = 1 = = = 1 1 1 1 1 = = = $ $ $ $ $ = y O.].$X$X            ",
"            $X$X$XP.K 1 = 1 1 1 1 1 1 = 1 1 1 1 1 1 1 1 = = 1 1 = 1 = = 1 1 1 1 = 1 1 1 1 1 = = $ $ $ $ $ $ y j.].$X$X$X        ",
"            $X$X!.| y = 1 1 1 1 1 1 1 = 1 1 = 1 1 1 1 1 1 1 1 1 1 1 1 1 1 1 1 1 = = 1 1 1 1 = = = $ $ $ $ $ = K C.$X$X$X        ",
"            $X$XC.y = 1 1 1 1 1 1 1 1 1 1 1 = = 1 1 1 1 1 1 1 1 1 1 1 1 1 1 1 1 1 1 1 1 1 1 = = = $ $ $ $ $ $ = 2.$X$X$X        ",
"            $X].7.7 = 1 1 1 1 1 1 1 1 1 1 1 1 = = = 1 1 1 = = = 1 1 1 1 1 1 1 1 1 1 1 1 1 1 1 1 = = $ $ $ $ $ $ | E.$X$X        ",
"            $XE.| 7 = 1 1 1 1 1 1 1 = 1 1 1 = = = 1 1 1 1 1 = = 1 = 1 1 1 1 1 = 1 1 1 1 1 1 1 1 = = $ $ $ $ $ $ K v.$X$X        ",
"            $XC.K 1 = 1 1 = 1 1 1 1 = = 1 1 1 1 = 1 1 1 1 1 = 1 = = 1 1 1 1 = = = 1 1 1 1 1 1 1 = = $ $ $ $ $ $ z 7.$X$X        ",
"            $Xv.M 1 = = = = 1 1 1 = = = 1 1 1 1 1 1 1 1 1 1 1 1 = 1 1 1 1 1 = = = 1 1 1 1 1 1 1 = = $ $ $ $ $ $ 7 >.$X$X        ",
"            $Xv.M 1 = 1 1 1 1 1 1 1 1 = = = 1 1 1 = = = 1 1 1 1 1 = = = 1 1 1 1 1 = 1 1 1 1 1 1 = = $ $ $ $ $ $ 7 >.$X$X        ",
"            $XP.! 7 = 1 1 1 1 1 1 1 1 1 1 = 1 1 1 1 = = 1 1 1 1 1 1 1 = 1 1 1 1 = = 1 1 1 1 = 1 = = $ $ $ $ $ $ M u.$X$X        ",
"            $X!.2.7 = 1 1 1 1 1 1 1 1 1 1 1 1 1 1 1 = 1 1 1 = = 1 1 1 1 1 1 1 1 = 1 1 1 1 1 = 1 = = $ $ $ $ $ $ ] P.$X$X        ",
"            $X$XC.z 1 = = 1 1 1 1 1 1 1 1 1 1 1 1 1 1 1 1 1 1 = 1 1 1 1 1 1 1 = = = 1 1 1 1 1 = = $ $ $ $ $ = = 2.].$X$X        ",
"            $X$X!.! 7 = = = = 1 = = = 1 1 1 = = 1 1 1 1 1 1 = = 1 1 1 1 1 1 = = 1 1 1 1 1 1 1 = = $ $ $ $ $ = M v.$X$X$X        ",
"            $X$X$XC.F = = = 1 1 = 1 = = 1 = = 1 1 1 1 = 1 1 = 1 1 1 1 = 1 1 = 1 1 1 1 1 1 1 = = $ $ $ $ $ $ 1 u.].$X$X$X        ",
"              $X$X$Xu.F = 1 1 1 1 1 1 1 1 1 1 1 1 1 1 = 1 1 1 1 1 = = = 1 1 1 1 1 1 1 1 1 = = $ $ $ $ $ $ 7 O.!.$X$X            ",
"              $X$X$X].7.M = = 1 1 1 1 1 1 1 1 1 1 1 = = 1 1 1 1 1 1 = = 1 1 1 1 1 1 1 1 = = $ $ $ $ $ $ 7 | !.$X$X$X            ",
"                $X$X$X].u.z 1 = 1 1 = = = = 1 1 1 1 1 1 1 1 1 1 1 1 1 1 1 1 1 1 = = 1 1 = $ $ $ $ $ $ 1 | E.$X$X$X              ",
"                $X$X$X$X].j.z = 1 1 1 1 = = 1 1 1 1 1 1 1 1 1 1 1 1 1 1 1 1 1 1 = = = = = $ $ $ $ $ = >.!.$X$X$X$X              ",
"                    $X$X$X].j.F = 1 1 1 = 1 1 1 1 1 = 1 1 1 1 1 1 1 1 1 1 1 1 1 = = = $ $ $ $ $ $ 7 2.!.$X$X$X$X                ",
"                      $X$X$X$X7.F 1 1 1 1 1 1 1 1 1 = = = = = = = = = = = = = = = = $ $ $ $ $ $ 7 | !.$X$X$X                    ",
"                        $X$X$XE.| = 1 1 = = = = 1 1 1 7 7 y y y y y y y 7 7 7 1 1 = $ $ $ $ $ $ F v.$X$X$X                      ",
"                          $X$XE.| = 1 1 1 7 7 y z M F K ! ] | | | | | ] ! Y K M z 7 1 = = = $ $ M j.$X$X                        ",
"                          $X$XE.| 1 1 7 F | u.v.v.v.v.C.C.C.C.P.P.P.C.C.C.C.C.v.v.u.>.! M 1 = $ M j.$X$X                        ",
"                          $X$XE.| 1 M O.u.v.E.!.!.!.!.!.!.!.!.!.!.!.!.!.!.!.!.!.E.P.j.7.>.| y $ M j.$X$X                        ",
"                          $X$XE.| 1 K v.!.!.E.E.!.!.!.!.!.!.!.!.!.!.!.!.!.!.!.!.E.C.j.j.v.u.M = M j.$X$X                        ",
"                          $X$XE.| 1 K v.!.!.E.E.P.P.C.C.C.v.v.v.v.v.v.v.v.C.C.C.C.v.j.j.j.u.M = M j.$X$X                        ",
"                          $X$XE.| 1 K j.E.E.P.j.2.| ! K F M M M z M M M F K Y ] >.2.u.j.j.u.M = M j.$X$X                        ",
"                          $X$XE.| 1 F | ] K F M z y 7 7 1 1 1 1 1 1 1 1 1 7 7 y y z z M K ! y = M j.$X$X                        ",
"                          $X$XE.| = y z y 1 = = = = = = = = = = 1 1 = = = = = = = $ $ $ 1 7 1 $ M j.$X$X                        ",
"                          $X$X!.2.M 7 = = = = = 1 1 = = = = = = = = = = = = = = = $ $ $ $ $ = 7 ] C.$X$X                        ",
"                          $X$X$X].j.! z 7 7 1 1 = = = = = = = = $ $ $ $ $ $ $ $ $ = = 1 1 7 M >.E.$X$X$X                        ",
"                          $X$X$X$X].!.P.v.2.! M 1 = = = $ $ $ $ $ $ $ $ $ $ $ $ = y K O.u.C.E.].$X$X$X$X                        ",
"                            $X$X$X$X$X$X$X!.P.v.u.u.7.7.2.2.>.>.>.>.>.>.2.2.7.7.u.j.C.E.].$X$X$X$X$X$X$X                        ",
"                                  $X$X$X$X$X$X$X$X$X$X$X$X$X].].].].].].$X$X$X$X$X$X$X$X$X$X$X$X                                ",
"                                                $X$X$X$X$X$X$X$X$X$X$X$X$X$X$X$X$X$X$X                                          ",
"                                                  $X$X$X$X$X$X$X$X$X$X$X$X$X$X$X$X                                              ",
"                                                                                                                                ",
"                                                                                                                                ",
"                                                                                                                                ",
"                                                                                                                                "
};
