/* XPM */
static char *bN[] = {
/* columns rows colors chars-per-pixel */
"64 64 27 1 ",
"  c #2E2E2E",
". c #313131",
"X c #383838",
"o c #464646",
"O c #4D4D4D",
"+ c #575757",
"@ c #5C5C5C",
"# c #626262",
"$ c #6C6C6C",
"% c #737373",
"& c #7B7B7B",
"* c #858585",
"= c #8E8E8E",
"- c #949494",
"; c #9C9C9C",
": c #A2A2A2",
"> c #ADADAD",
", c #B4B4B4",
"< c #B8B8B8",
"1 c #C5C5C5",
"2 c #CFCFCF",
"3 c #D0D0D0",
"4 c #D9D9D9",
"5 c #E1E1E1",
"6 c #EDEDED",
"7 c #F4F4F4",
"8 c #FFFFFF",
/* pixels */
"8888888888888888888888888888888888888888888888888888888888888888",
"8888888888888888888888888888888888888888888888888888888888888888",
"8888888888888888888888888888888888888888888888888888888888888888",
"8888888888888888888888888888888888888888888888888888888888888888",
"8888888888888888888888888888888888888888888888888888888888888888",
"8888888888888888888888888888888888888888888888888888888888888888",
"8888888888888888888888888888888888888888888888888888888888888888",
"8888888888888888888888888888888888888888888888888888888888888888",
"8888888888888888888888888888888888888888888888888888888888888888",
"8888888888888888888888888646888888888888888888888888888888888888",
"8888888888888888888888888,#$=38888888888888888888888888888888888",
"8888888888888888888888888: .o%<888888888888888888888888888888888",
"8888888888888888888888888<OX. #378888888888888888888888888888888",
"88888888888888888888766672*o..o%<4678888888888888888888888888888",
"88888888888888888887:@##%&$oXXXoO+#*1688888888888888888888888888",
"88888888888888888888>+XXoOOooXXX...o#%-1788888888888888888888888",
"888888888888888888885;+oXXXoooXXXXX.. o$:16888888888888888888888",
"8888888888888888888884*OXooooXXXooXX..X.X@:478888888888888888888",
"8888888888888888888886:+XoooooXXooooXXX..XX$,7888888888888888888",
"8888888888888888888882#oXooooXXXoo+@OXXXX..X@=588888888888888888",
"888888888888888888883*XXooXXooooXo@&;;&@XX...o*38888888888888888",
"88888888888888888887;OoooXXXooooXX+%>1<;%+X....*3888888888888888",
"8888888888888888888,$XoooO+OoXooooooo@:43;#o....&588888888888888",
"8888888888888888883%oXoo%><%OXXooooXooO&<3<&XX..o*78888888888888",
"888888888888888885&OXXO;141#oXoXXXXooXXo%,41*X...+,7888888888888",
"88888888888888886:oXXO=463-oXoXo@+oXooXXo%15<$X..X$3888888888888",
"8888888888888888,+ooo%346,#oooXO**#ooooooo-34>+...X:688888888888",
"8888888888888882&ooX@;4,2>+oooXo#<>@ooooXo+:64&o..X@<88888888888",
"888888888888886=OXoX@*:##@ooooooO,5>OoooooX&252$...X-78888888888",
"88888888888887;+XooXO@#oXXoooooXo,72@oooooX@;56=o...%28888888888",
"88888888888883+XooooXXXXooXoXXXo+,72#oXooXXo&56,$...O-8888888888",
"8888888888885=OXooooXXXoooXXXXXO*26<@XXXoXXX$455;X...$7888888888",
"888888888888<OoXXXXXXXoooXXXooo@151*XXXXoooX@>45:OX..#4888888888",
"888888888882&oXoXoXXoXooXXXXoX@:4>%O.XXXoooXO*36<#X..+,788888888",
"88888888888:OoooooooooooooXXoX#;-#X..XoooooXo$262=X..o*688888888",
"88888888883&+%$OXoooooooooXXooO@X....Xooooooo@264>o..X@588888888",
"8888888888-#=3,#XoooooooooXXXXXXXX..XXoooooXX+264,O...O488888888",
"8888888885&=44=+XXooooooooX...X+-@.XXXoooooXX+265,@X..O388888888",
"888888887,%*>*@oXo#OXXooX.X#*;>,:+.XXoooooXXXO265<$o..O178888888",
"888888886=##@oXXO%>#XXXX@%*,4787&o.XXoooooXoXO1551*o..o,68888888",
"888888886-+Xoooo%<3%ooo+:5888872+.XXXoXXooXoXO,552-O..o;58888888",
"888888887<#Xooo$>3;+XO$27888883%OXooXXXoooXXXO>453>+..o=48888888",
"8888888886:@Xo@>1=@oO*37888885;OooooXXooXXXXXO:453<@..X&48888888",
"88888888885>%O*:*OX@-38888885;@oXoooXXooXXXXXO;3541@..X$38888888",
"8888888888872=,=@@$:58888885:@XoXoooooXoooooXO-3541@..X#28888888",
"888888888888875,->478888884-+XooXXooXoooXXXoXO-3541@..X@28888888",
"88888888888888876788888882&+oXXXooooooXXooXoXO-3541@..X+18888888",
"888888888888888888888888,%OXXXXXooXXXXXXooooXO-3531#..XO18888888",
"88888888888888888888887<#XXoooXXooooooooooooXO-2531#X.XO18888888",
"88888888888888888888872+XXXoooXXXXXXooooooooXO-2531#X.Xo18888888",
"8888888888888888888883#oXXooooooXXXoXXXXooXXXo-3531#..Xo18888888",
"888888888888888888885;ooXXXoooooXXooXoXXooXXXo-3531#..XO18888888",
"88888888888888888888,@oXooooXoooXXXXXoooooXXXO;3531#..XO18888888",
"88888888888888888887=XXXooooXoooXXXXXXooooXXXO;3531#..X+18888888",
"88888888888888888883&XoXooXXXXooXXXXooooXXooXO;342<@..X@18888888",
"8888888888888888888,$XoooXXXXXooooooooooooooXO;11,>@..X#28888888",
"88888888888888888883>:::::::::::::::::::::::::1221<:;;;>58888888",
"8888888888888888888766666666666667776666666666666556666688888888",
"8888888888888888888888888888888888888888888888888888888888888888",
"8888888888888888888888888888888888888888888888888888888888888888",
"8888888888888888888888888888888888888888888888888888888888888888",
"8888888888888888888888888888888888888888888888888888888888888888",
"8888888888888888888888888888888888888888888888888888888888888888",
"8888888888888888888888888888888888888888888888888888888888888888"
};
