/* XPM */
static char *bK[] = {
/* columns rows colors chars-per-pixel */
"64 64 26 1 ",
"  c #373737",
". c #3B3B3B",
"X c #424242",
"o c #484848",
"O c #515151",
"+ c #5E5E5E",
"@ c #656565",
"# c #6F6F6F",
"$ c #737373",
"% c #797979",
"& c #838383",
"* c #8D8D8D",
"= c #939393",
"- c #999999",
"; c #A6A6A6",
": c #ACACAC",
"> c #B1B1B1",
", c #BCBCBC",
"< c #C6C6C6",
"1 c #CCCCCC",
"2 c #D4D4D4",
"3 c #DFDFDF",
"4 c #E5E5E5",
"5 c #E8E8E8",
"6 c #F2F2F2",
"7 c #FFFFFF",
/* pixels */
"7777777777777777777777777777777777777777777777777777777777777777",
"7777777777777777777777777777777777777777777777777777777777777777",
"7777777777777777777777777777777777777777777777777777777777777777",
"7777777777777777777777777777777777777777777777777777777777777777",
"7777777777777777777777777777777777777777777777777777777777777777",
"7777777777777777777777777777777777777777777777777777777777777777",
"7777777777777777777777777777766665567777777777777777777777777777",
"77777777777777777777777777776<;;;-->5777777777777777777777777777",
"77777777777777777777777777774&..   +1677777777777777777777777777",
"77777777777777777777777777774&..   +1677777777777777777777777777",
"77777777777777777777777777775&...  +1777777777777777777777777777",
"7777777777777777777777772,,,>#...  o->,><67777777777777777777777",
"777777777777777777777777-+@@@OXX.  .O+OO#57777777777777777777777",
"777777777777777777777777&.XXXXX..   ... O57777777777777777777777",
"777777777777777777777777&....XXX....    O57777777777777777777777",
"777777777777777777777777&.XXXXXXXX..    O57777777777777777777777",
"777777777777777777777777& ...XXXXXX.    O47777777777777777777777",
"777777777777777777777777&XoooXXXXX......+57777777777777777777777",
"777777777777777777777777;$$$$O.XXX.o@###&57777777777777777777777",
"7777777777777777777777775333=+.XXX.o$<33377777777777777777777777",
"777777777777777742,>>,136777&o.XXX.X@477731,>:><3677777777777777",
"777777777777751>-&#++#%=:,13@.XXXXX.X<3<>=$@OO+#*:<4777777777777",
"7777777777773;OXXXXXXXXXXXO=O.XXXX..X*#XXX.........&167777777777",
"77777777777<$OX..XXXX...X.XoXXXXX.X..oX.......     X+-6777777777",
"7777777777,$X.XXXX..XXXXXX...XXX...X...XXXXX...     .O-677777777",
"7777777773$X.XXXXXX.XXXXXXXX..XX.X..XXXX.XXXXX..      O<67777777",
"777777775=O.XXXXXXX.XX.XXXXXXXXXXXXXXXXX..XXXX...     .$27777777",
"777777772O.XXXXXXXXXXX..XXXXXXXXXXXXXXXXXXXXXX...      .:7777777",
"77777776>o.XXXXXXXXXXXX...XXX...XXXXXXXXXXXXXXXX..      =4777777",
"77777774=o.XXXXXXX.XXX...XXXXX..X.XXXXX.XXXXXXXX..      $1777777",
"77777772$X.XX.XXXX..XXXX.XXXXX.X..XXXX...XXXXXXX..      +>777777",
"77777771@X....XXX...XXXXXXXXXXXX.XXXXX...XXXXXXX..      o;777777",
"77777771@X.XXXXXXXX...XXX...XXXXX...XXXXX.XXXXXX..      o;777777",
"77777773&o.XXXXXXXXXX.XXXX..XXXXXXX.XXXX..XXXX.X..      @,777777",
"77777775:o.XXXXXXXXXXXXXXX.XXX..XXXXXXXX.XXXXX.X..      *3777777",
"777777772+X..XXXXXXXXXXXXXXXXXX.XXXXXXX...XXXXX..     ..:6777777",
"777777775&o....X...XXX..XXXXXX..XXXXXX..XXXXXXX..     .@17777777",
"7777777772#...XX.X..X..XXXX.XX.XXXX.XX.XXXXXXX..      X,67777777",
"7777777777,#.XXXXXXXXXXXXXX.XXXXX...XXXXXXXXX..      o-577777777",
"77777777776>@..XXXXXXXXXXX..XXXXXX..XXXXXXXX..      o=5777777777",
"777777777776,+X.XX....XXXXXXXXXXXXXXXXXX..XX.      X=47777777777",
"7777777777776<+.XXXX..XXXXXXXXXXXXXXXXXX.....     .;577777777777",
"77777777777776<#.XXX.XXXXX.XXXXXXXXXXXXX...      o:5777777777777",
"777777777777777>#XXXXXXXXX................      o=57777777777777",
"7777777777777774=.XX....XXXooOOOOOOOoooXX.      #177777777777777",
"7777777777777774=.XXXooO+@#$&*=====*&%$@+oX...  @<77777777777777",
"7777777777777774=XXo#=,111122223332222211,;&@X. @<77777777777777",
"7777777777777774=X@-,145555555555555555543<>;=O @<77777777777777",
"7777777777777774=X$15544555555555555555542<<1,@.@<77777777777777",
"7777777777777774=X$15544332221111111122221<<<,@.@<77777777777777",
"7777777777777774=X$<443<:=&$#@@@+@@@#$%*;:,<<,@.@<77777777777777",
"7777777777777774=X#=*$#@+OooXXXXXXXXXooOO++@$&O.@<77777777777777",
"7777777777777774=.O+OX..........XX.......   XoX @<77777777777777",
"7777777777777775:@o.....XX...............     .o*277777777777777",
"77777777777777776<&+ooXX........         ..XXo@;4777777777777777",
"777777777777777776531:&@X...            .O$-,2467777777777777777",
"777777777777777777777531,,>>::;;;;;;::>>,<2467777777777777777777",
"7777777777777777777777777777776666667777777777777777777777777777",
"7777777777777777777777777777777777777777777777777777777777777777",
"7777777777777777777777777777777777777777777777777777777777777777",
"7777777777777777777777777777777777777777777777777777777777777777",
"7777777777777777777777777777777777777777777777777777777777777777",
"7777777777777777777777777777777777777777777777777777777777777777",
"7777777777777777777777777777777777777777777777777777777777777777"
};
