/* XPM */
static char *bR[] = {
/* columns rows colors chars-per-pixel */
"64 64 27 1 ",
"  c #303030",
". c #363636",
"X c #3F3F3F",
"o c #404040",
"O c #494949",
"+ c #555555",
"@ c #5C5C5C",
"# c #656565",
"$ c #6A6A6A",
"% c #757575",
"& c #7E7E7E",
"* c #868686",
"= c #898989",
"- c #979797",
"; c #9B9B9B",
": c #A2A2A2",
"> c #AEAEAE",
", c #B0B0B0",
"< c #BEBEBE",
"1 c #C0C0C0",
"2 c #CACACA",
"3 c #D6D6D6",
"4 c #DFDFDF",
"5 c #E7E7E7",
"6 c #EBEBEB",
"7 c #F1F1F1",
"8 c #FFFFFF",
/* pixels */
"8888888888888888888888888888888888888888888888888888888888888888",
"8888888888888888888888888888888888888888888888888888888888888888",
"8888888888888888888888888888888888888888888888888888888888888888",
"8888888888888888888888888888888888888888888888888888888888888888",
"8888888888888888888888888888888888888888888888888888888888888888",
"8888888888888888888888888888888888888888888888888888888888888888",
"8888888888888888888888888888888888888888888888888888888888888888",
"8888888888888888888888888888888888888888888888888888888888888888",
"8888888888888888888888888888888888888888888888888888888888888888",
"8888888888888888888888888888888888888888888888888888888888888888",
"8888888888888888888888888888888888888888888888888888888888888888",
"8888888888888888777777778888777777777888877766667788888888888888",
"88888888888888862,,,>>,378871>,,,,,>,68884<>>>>:<488888888888888",
"8888888888888883=oooooO;5885$oooooooO2887>#XXXX.#<88888888888888",
"8888888888888883*XXXXXO-5885#XXXXXXXO2887>@.....#<88888888888888",
"8888888888888883*XoooXO;4875$XoooooXO2886>@X....#<88888888888888",
"8888888888888883*XoooXo%;>>:+XoooooXo->>:*+X....#<88888888888888",
"8888888888888883*ooooXoXXXXXXoooXXXooXXXXXoX....#<88888888888888",
"8888888888888883*XooooooooooooooXXXXooooXXoX....#<88888888888888",
"8888888888888883*XooXXXXXXXXXXXXXXXXXXXXXXXX....#<88888888888888",
"8888888888888883*XooO++++++++++++++++++++++Oo...#<78888888888888",
"8888888888888883*XoX+%--------------------;&O...@<78888888888888",
"8888888888888884=ooXO&345555555555555555544-o...#188888888888888",
"8888888888888888<#oXoO$>465555555555555551%oX..O;688888888888888",
"888888888888888861&OXXo#=155555555555553:$o...#>5888888888888888",
"8888888888888888882=+XXX+&:::::::::::::=@...X$,68888888888888888",
"88888888888888888884-+oXXO$&&&&&&&&&&&%+...o%1788888888888888888",
"888888888888888888886:ooX+-34444444444,$...&48888888888888888888",
"8888888888888888888883%oXo#<5666666664=o..@,88888888888888888888",
"8888888888888888888885*OXXo%>1111111<-+..X#188888888888888888888",
"8888888888888888888884*OXoXo$&&&&&&&%OX..X#<88888888888888888888",
"8888888888888888888884*OXooooooooooooX...X#<88888888888888888888",
"8888888888888888888884*OXoooooooooooXXX...#<88888888888888888888",
"8888888888888888888884*OXooooooooooooXX...#<88888888888888888888",
"8888888888888888888884*OXoooooooooooXX....#<88888888888888888888",
"8888888888888888888884*OXoooooooooooXX....#<88888888888888888888",
"8888888888888888888884*OXooooooooooooX...X#<88888888888888888888",
"8888888888888888888884*OXooooooooooooX...X#<88888888888888888888",
"8888888888888888888884*OXooooooooooooXX..X#<88888888888888888888",
"8888888888888888888884*OXXXXXXXXXXXXXX...X#188888888888888888888",
"8888888888888888888884&OXoooOOooOOOooooX..@,88888888888888888888",
"888888888888888888886>Ooo+$$%%%%%%%$$$$@X..*58888888888888888888",
"88888888888888888887>@XX+=2111111111112:#X.o*5888888888888888888",
"8888888888888888887>#XoO=266666666666674>+X.o=588888888888888888",
"888888888888888887<@Xoo@>3222222222222231%o..X;58888888888888888",
"888888888888888871+Xooo%*================&O...X;6888888888888888",
"8888888888888888<+oXoo+=;;;;;;;;;;;;;;;;;;#o...o-788888888888888",
"888888888888888,#XoXo$,2222222222222222222<&o...O-78888888888888",
"888888888888871$Xooo$>6666666666666666666661&OX..O:6888888888888",
"88888888888885$oXXo#>444444444444444444444441$X...O1888888888888",
"88888888888884@XXXo&;;;;;;;;;;;;;;;;;;;;;;;;;=o...X,788888888888",
"88888888888883@XXXo+@+++++++++++++++++++++++++X...X,788888888888",
"88888888888884@XoooXXXXXXXXXXXXXXXXXXXXXXXXXXXX...X,788888888888",
"88888888888884@XoooooooXooooooooooooXXoooooooXX...X,788888888888",
"88888888888884@XooXXXXooooooooooooXXooooXXXXXXX...X,788888888888",
"88888888888883@XooooooooooooooooooooooooXXoXXXX...X,788888888888",
"88888888888886,::::::::::>>>:::::::::::::>>>:::::::4888888888888",
"8888888888888877777777777777777777777777777777777778888888888888",
"8888888888888888888888888888888888888888888888888888888888888888",
"8888888888888888888888888888888888888888888888888888888888888888",
"8888888888888888888888888888888888888888888888888888888888888888",
"8888888888888888888888888888888888888888888888888888888888888888",
"8888888888888888888888888888888888888888888888888888888888888888",
"8888888888888888888888888888888888888888888888888888888888888888"
};
