/* XPM */
static char *bP[] = {
/* columns rows colors chars-per-pixel */
"64 64 27 1 ",
"  c #2E2E2E",
". c #353535",
"X c #3A3A3A",
"o c #404040",
"O c #4F4F4F",
"+ c #515151",
"@ c #5D5D5D",
"# c #646464",
"$ c #6B6B6B",
"% c #707070",
"& c #787878",
"* c #828282",
"= c #8E8E8E",
"- c #959595",
"; c #9F9F9F",
": c #A7A7A7",
"> c #ABABAB",
", c #B7B7B7",
"< c #BFBFBF",
"1 c #C5C5C5",
"2 c #CCCCCC",
"3 c #D6D6D6",
"4 c #DEDEDE",
"5 c #E1E1E1",
"6 c #E9E9E9",
"7 c #F3F3F3",
"8 c #FFFFFF",
/* pixels */
"8888888888888888888888888888888888888888888888888888888888888888",
"8888888888888888888888888888888888888888888888888888888888888888",
"8888888888888888888888888888888888888888888888888888888888888888",
"8888888888888888888888888888888888888888888888888888888888888888",
"8888888888888888888888888888888888888888888888888888888888888888",
"8888888888888888888888888888888888888888888888888888888888888888",
"8888888888888888888888888888888888888888888888888888888888888888",
"8888888888888888888888888888888888888888888888888888888888888888",
"8888888888888888888888888888888888888888888888888888888888888888",
"8888888888888888888888888888888888888888888888888888888888888888",
"8888888888888888888888888888888888888888888888888888888888888888",
"8888888888888888888888888888888888888888888888888888888888888888",
"8888888888888888888888888888888888888888888888888888888888888888",
"8888888888888888888888888888888888888888888888888888888888888888",
"8888888888888888888888888888888645788888888888888888888888888888",
"88888888888888888888888888887,*&%%*>6888888888888888888888888888",
"8888888888888888888888888887,#.....+;588888888888888888888888888",
"8888888888888888888888888871@XXXX...X:68888888888888888888888888",
"888888888888888888888888885%oXoXXX..X+<8888888888888888888888888",
"888888888888888888888888883+XooooXX..X>8888888888888888888888888",
"888888888888888888888888883OXooooXX...:8888888888888888888888888",
"888888888888888888888888883OXooooXX...>8888888888888888888888888",
"888888888888888888888888885$oooooXX.X+<8888888888888888888888888",
"8888888888888888888888888871@XooXX..X:68888888888888888888888888",
"888888888888888888888888885-+XooXX..o:68888888888888888888888888",
"88888888888888888888888872=+ooooXXX.X$>5888888888888888888888888",
"8888888888888888888888882&XXooooooXX..+-688888888888888888888888",
"888888888888888888888885&XoooooooooXX..+;78888888888888888888888",
"88888888888888888888887>@XoooooooooXXX.X@28888888888888888888888",
"88888888888888888888886%oXooooooooooXX..o-5888888888888888888888",
"88888888888888888888885@XooooooooooooXX.X@3888888888888888888888",
"88888888888888888888884@XooooooooooooXX..X1888888888888888888888",
"88888888888888888888884@XooooooooooooXX..X1888888888888888888888",
"88888888888888888888885@XoXXoooooooooXX..X1888888888888888888888",
"88888888888888888888887*OXXXoooooooooXX.X@3888888888888888888888",
"888888888888888888888882$XXoooooooooXX..o;5888888888888888888888",
"888888888888888888888888-OooXooooooXXXXX@48888888888888888888888",
"8888888888888888888888886>#oXoooooXXX.o&288888888888888888888888",
"8888888888888888888888884;+oXoooooXX..X#,68888888888888888888888",
"88888888888888888888887<=@XoooooooXXXX.X#:3788888888888888888888",
"8888888888888888888886,+XooooooooooooXX..X&278888888888888888888",
"888888888888888888885:+oXoooooooooooooXX..X$,8888888888888888888",
"88888888888888888886;+XXoooooooooooooooXX..X#,788888888888888888",
"8888888888888888887:@XooooooooooooooooooX...X$278888888888888888",
"888888888888888887<@XooooooooooooooooooooX...X*38888888888888888",
"888888888888888884+ooooooooooooooooooooooXX...X:7888888888888888",
"88888888888888886:OXooooooooooooooooooooooX....%1888888888888888",
"88888888888888881@oXooooooooooooooooooooooX....o-888888888888888",
"8888888888888888>XXoooooooooooooooooooooooXX... %688888888888888",
"8888888888888885-XooooooooooooooooooooooooXX....$288888888888888",
"8888888888888881%XooooooooooooooooooooooooXX....@>78888888888888",
"888888888888888>@oooooooooooooooooooooooooXX....O-78888888888888",
"888888888888888:@oooooooooooooooooooooooooXX....O=78888888888888",
"888888888888888>@oooooooooooooooooooooooooXX....O=78888888888888",
"888888888888888<$XooooooooooXoooooooooooooX.....+>78888888888888",
"8888888888888885-XoooooooooooooooooooooooXX.....$388888888888888",
"88888888888888883>>>>>>>>>>>>>>>>>>>>>>>>::::::;<788888888888888",
"8888888888888888877777777777777777777777777777777888888888888888",
"8888888888888888888888888888888888888888888888888888888888888888",
"8888888888888888888888888888888888888888888888888888888888888888",
"8888888888888888888888888888888888888888888888888888888888888888",
"8888888888888888888888888888888888888888888888888888888888888888",
"8888888888888888888888888888888888888888888888888888888888888888",
"8888888888888888888888888888888888888888888888888888888888888888"
};
