/* XPM */
static char *bB[] = {
/* columns rows colors chars-per-pixel */
"64 64 27 1 ",
"  c #2E2E2E",
". c #323232",
"X c #393939",
"o c #404040",
"O c #4A4A4A",
"+ c #515151",
"@ c #5E5E5E",
"# c #606060",
"$ c #6B6B6B",
"% c #727272",
"& c #7C7C7C",
"* c #868686",
"= c #8E8E8E",
"- c #949494",
"; c #9B9B9B",
": c #A3A3A3",
"> c #ACACAC",
", c #B1B1B1",
"< c #BBBBBB",
"1 c #C4C4C4",
"2 c #CBCBCB",
"3 c #D7D7D7",
"4 c #D9D9D9",
"5 c #E0E0E0",
"6 c #EBEBEB",
"7 c #F1F1F1",
"8 c #FFFFFF",
/* pixels */
"8888888888888888888888888888888888888888888888888888888888888888",
"8888888888888888888888888888888888888888888888888888888888888888",
"8888888888888888888888888888888888888888888888888888888888888888",
"8888888888888888888888888888888888888888888888888888888888888888",
"8888888888888888888888888888888888888888888888888888888888888888",
"8888888888888888888888888888888888888888888888888888888888888888",
"8888888888888888888888888888888888888888888888888888888888888888",
"8888888888888888888888888888888888888888888888888888888888888888",
"8888888888888888888888888888888888888888888888888888888888888888",
"8888888888888888888888888888888646788888888888888888888888888888",
"888888888888888888888888888884;$##=28888888888888888888888888888",
"88888888888888888888888888886;+.. o*4888888888888888888888888888",
"8888888888888888888888888888<$XXXX.O;688888888888888888888888888",
"8888888888888888888888888888*OXooX.X@488888888888888888888888888",
"8888888888888888888888888888*OXooXXX@488888888888888888888888888",
"8888888888888888888888888888>#XoXX.o=688888888888888888888888888",
"88888888888888888888888888885-+XXXo%2788888888888888888888888888",
"88888888888888888888888888888<$XX.+;7888888888888888888888888888",
"88888888888888888888888888886=X....#4888888888888888888888888888",
"8888888888888888888888888886=OXXXX.X$388888888888888888888888888",
"888888888888888888888888883-OXoXX....%17888888888888888888888888",
"88888888888888888888888872=oXoooXXX...$,588888888888888888888888",
"888888888888888888888887<%oooooooXXXX..+;58888888888888888888888",
"88888888888888888888886-@ooooooO+oXXXX.XO%3888888888888888888888",
"8888888888888888888885-@oXoooX#>,;#XXX...o&288888888888888888888",
"888888888888888888887,+oXooooX&664=XoXX...X=68888888888888888888",
"888888888888888888882&ooooXXXX&566;XXXX....@>8888888888888888888",
"88888888888888888888;oooooooOo*566;ooooX....$7888888888888888888",
"88888888888888888886=XoooO%>,,15552,,>%o....@4888888888888888888",
"88888888888888888883&XooX$,45555555555:#..X.+<788888888888888888",
"88888888888888888881%XooX$<45555555544>#XXX.+>788888888888888888",
"88888888888888888881%XooXO&>,,15553,,,&OXXX.+>788888888888888888",
"88888888888888888883&XooooO+++*556:O++OX..X.@<788888888888888888",
"88888888888888888885=XooooXXXX&556;XXXXX..X.@3888888888888888888",
"88888888888888888888;ooooooooX&664=XooXX....$6888888888888888888",
"88888888888888888888<#oXoooooX$11:$XooX....O;8888888888888888888",
"888888888888888888887,OooooooooO+OoooXX...X=58888888888888888888",
"8888888888888888888886>OXooooooooooXXX....=388888888888888888888",
"88888888888888888888886,*@XooooooXXXX..o$;4888888888888888888888",
"8888888888888888888888882&XooXoXoXX....@>78888888888888888888888",
"8888888888888888888888883&XoooooooXXX..@,78888888888888888888888",
"888888888888888888888888-OooO+@###@OoXXX$68888888888888888888888",
"888888888888888888888886&O&,<<1111<>:;&O+38888888888888888888888",
"88888888888888888888888<##<66666666522,%o:6888888888888888888888",
"88888888888888888888886*O=5433222222<<2-o#3888888888888888888888",
"88888888888888888888884@O-3<;=&%%%&*=;,-OX<888888888888888888888",
"88888888888888888888872@oO@++OOOooOooOOOXX:688888888888888888888",
"888888888888888888888861,:=%OXXXXX..X@&->,4888888888888888888888",
"8888888888888631,<13567885,&OoXX....X#;37876531<,<25888888888888",
"8888888888873>&+oo@&-><11,=oXooXX.XXX.$:<<,>-%@o.o#-168888888888",
"88888888888,@OooooooOOOOOOOoooooXXXX..XooooooXXX.XXXO=6888888888",
"88888888883*oXXooooXXXXXXXooooooXXXXX........XXXXX...@<788888888",
"88888888885=XoooooooooooooooooXo$OXXXXXXXXXXXXXXXXXX.#3888888888",
"888888888881#oXXXXXXXXooooooXXO%,*+XXooooooXXXXXXXoX+;8888888888",
"888888888887,OoOO+++OOOoooooOO&385-OOooooooOO+++OOoo-68888888888",
"8888888888885=+*<232<:*@oXo@=1688862-@oooO$-,1221;+&288888888888",
"888888888888741478887542<<<24788888851<<<<2567887513788888888888",
"8888888888888888888888888888888888888888888888888888888888888888",
"8888888888888888888888888888888888888888888888888888888888888888",
"8888888888888888888888888888888888888888888888888888888888888888",
"8888888888888888888888888888888888888888888888888888888888888888",
"8888888888888888888888888888888888888888888888888888888888888888",
"8888888888888888888888888888888888888888888888888888888888888888",
"8888888888888888888888888888888888888888888888888888888888888888"
};
