/* XPM */
static char *bQ[] = {
/* columns rows colors chars-per-pixel */
"64 64 26 1 ",
"  c #373737",
". c #383838",
"X c #404040",
"o c #4C4C4C",
"O c #505050",
"+ c #595959",
"@ c #666666",
"# c #6B6B6B",
"$ c #707070",
"% c #7D7D7D",
"& c #828282",
"* c #8A8A8A",
"= c #909090",
"- c #999999",
"; c #A3A3A3",
": c #AEAEAE",
"> c #B7B7B7",
", c #B9B9B9",
"< c #C4C4C4",
"1 c #CDCDCD",
"2 c #D1D1D1",
"3 c #DCDCDC",
"4 c #E6E6E6",
"5 c #EAEAEA",
"6 c #F2F2F2",
"7 c #FFFFFF",
/* pixels */
"7777777777777777777777777777777777777777777777777777777777777777",
"7777777777777777777777777777777777777777777777777777777777777777",
"7777777777777777777777777777777777777777777777777777777777777777",
"7777777777777777777777777777777777777777777777777777777777777777",
"7777777777777777777777777777777777777777777777777777777777777777",
"7777777777777777777777777777777777777777777777777777777777777777",
"7777777777777777777777777777777777777777777777777777777777777777",
"7777777777777777777777777777777777777777777777777777777777777777",
"7777777777777777777777777777777777777777777777777777777777777777",
"7777777777777777777777775567777777777765567777777777777777777777",
"77777777777777777777762&$$$=377777775;%$$$,577777777777777777777",
"7777777777777777777771%X...o&2777774=O....#>67777777777777777777",
"777777777777777777772&X.XXX..=67776,X.XXXX.#,7777777777777777777",
"77777777777777777777-.XXXXXX.$<7773*X.XXXXX.$6777777777777777777",
"77777777777777777777=.XXXXXX.+;777<@XXXXXXX.#5777777777777777777",
"77777777777777777777=.XXXXXXXO-777,+XXXXXXX.#5777777777777777777",
"77777777776435777777-XXXXXXX.@>7771$X.XXXXXX%6777775335777777777",
"7777777774<-=:157777,@X.XXXX.*37775:X.XXXX.+-777751:**>267777777",
"777777772#ooooo=37776:oXXXXXX:777771o.XXXXX*47775:OX..XO>6777777",
"77777773&o.....o-67775>O.XXX.;777771o.XXXX-47777,+...  .@,777777",
"7777777,OXXXXXX.$377775+.XXX.*47775:X.XX.X<77775-.XX..  .=777777",
"7777776:.XXXXXX.@,77775+.XXX.#,7772%X.XX.X177771%.XXX.   %577777",
"7777775;XXXXXXX.+;67775+.XXXXX*777>oXXXX.X<7777,#XXXX..  $377777",
"7777777:XXXXXXX.@>77774+.XXXX.%677;.XXXX.X<77771%XXXX.   %577777",
"7777777<+X.XXXX.#<77774+.XXXX.#274*.XXXX.X<77772&XXX..  X-777777",
"77777774-O...XX.O=47774+.XXXX.+;6,#.XXXX.X,7776:@X...  .%1777777",
"777777774*@OoXXX.O:5773+.XXXXXX$5=oXXXXX.X,776<#... .oO$<7777777",
"77777777763:%XXXXXo,673+.XXXXX.+3%.XXXXX.X,772@XX.. +-1577777777",
"777777777774;X.XX.XO>72+.XXXXX.O,$.XXXXX.X>72#X...  %26777777777",
"777777777777,X.XXXX.$<1+.XXXXX.o*+.XXXXXXX>2*X.X..  =67777777777",
"7777777777772OXXXXXXo%>O.XXXXXXX+o.XXXXXXX;-OXX..  .;77777777777",
"7777777777774&o.XXXX.+&o.XXXXXXXXXXXXXXXXX%#.XX.. .@<77777777777",
"7777777777776,O.XXXXXXoXXXXXXXXXXXXXXXXXXXoXXXX.  .=477777777777",
"77777777777773+.XXXXXX.XXXXXXXXXXXXXXXXXXX..XX..  .>777777777777",
"77777777777775#XXXXXXXXXXXXXXXXXXXXXXXXXXXXXXX..  o1777777777777",
"77777777777776=O.XXXXXXXXXXXXXXX...XXXXXXXXXX..  .#3777777777777",
"777777777777771#.XXXXXXXXXXXXXXXXXXXXXXXXXXX...  o:5777777777777",
"777777777777775%.XXXXX....XoO+@#$##@+oX....X..   O27777777777777",
"777777777777777*.XX..XO#*-;::>>,,,,>::;-=$+X.    +57777777777777",
"777777777777777:+XXO#&=>24555555555555553,-&@o. X&67777777777777",
"7777777777777772&.X$,54444445554444455444442>$X @,77777777777777",
"7777777777777776;.X$,54444444444444444444432:$X $477777777777777",
"7777777777777777<+Xo-45554<>;=**&**=-:<35521;o.X=777777777777777",
"77777777777777774-X.#:<:-*%#+OOooooO+@$*--;-$. $1777777777777777",
"777777777777777773@XX@%OX................X@+X.o>7777777777777777",
"777777777777777776>+.XXXXXXXXXXXXXXXXXXX. .. X=37777777777777777",
"7777777777777777775$..XXXX.XXXoooooXXX..     o177777777777777777",
"7777777777777777777*o..o@%=;::::::::::-%+X  .@477777777777777777",
"7777777777777777777=OO&*;<3555555555554,=%$O.#477777777777777777",
"7777777777777777777=o#455554444455444443<<1%.#477777777777777777",
"7777777777777777777=o#444444444444444443<<1%.#477777777777777777",
"7777777777777777777=o#4541:-*&%%%%%&*=;>,<1%.#477777777777777777",
"7777777777777777777=o+:-*%@+OoXXXXXooO@#$&=@.#477777777777777777",
"7777777777777777777-OX+X........XXXX.... .oX.%477777777777777777",
"7777777777777777777<%oooXXXXXX..XXX.......XX+;577777777777777777",
"777777777777777777764<-%OXXXXX..........X@*:25777777777777777777",
"777777777777777777777642<,,>>::;;;;::>>,,13577777777777777777777",
"7777777777777777777777777777776666677777777777777777777777777777",
"7777777777777777777777777777777777777777777777777777777777777777",
"7777777777777777777777777777777777777777777777777777777777777777",
"7777777777777777777777777777777777777777777777777777777777777777",
"7777777777777777777777777777777777777777777777777777777777777777",
"7777777777777777777777777777777777777777777777777777777777777777",
"7777777777777777777777777777777777777777777777777777777777777777"
};
