/* XPM */
static char *bN[] = {
/* columns rows colors chars-per-pixel */
"64 64 207 2 ",
"   c None",
".  c #2E2E2E",
"X  c #2F2F2F",
"o  c #303030",
"O  c #313131",
"+  c #323232",
"@  c #333333",
"#  c #343434",
"$  c #353535",
"%  c #363636",
"&  c #373737",
"*  c #383838",
"=  c #393939",
"-  c #3A3A3A",
";  c #3B3B3B",
":  c #3C3C3C",
">  c #3D3D3D",
",  c #3E3E3E",
"<  c #3F3F3F",
"1  c #404040",
"2  c #414141",
"3  c #424242",
"4  c #434343",
"5  c #444444",
"6  c #454545",
"7  c #464646",
"8  c #474747",
"9  c #484848",
"0  c #494949",
"q  c #4A4A4A",
"w  c #4B4B4B",
"e  c #4C4C4C",
"r  c #4D4D4D",
"t  c #4E4E4E",
"y  c #4F4F4F",
"u  c #505050",
"i  c #515151",
"p  c #525252",
"a  c #535353",
"s  c #545454",
"d  c #555555",
"f  c #565656",
"g  c #575757",
"h  c #585858",
"j  c #595959",
"k  c #5A5A5A",
"l  c #5B5B5B",
"z  c #5C5C5C",
"x  c #5D5D5D",
"c  c #5E5E5E",
"v  c #5F5F5F",
"b  c #606060",
"n  c #616161",
"m  c #626262",
"M  c #636363",
"N  c #646464",
"B  c #656565",
"V  c #666666",
"C  c #676767",
"Z  c #686868",
"A  c #696969",
"S  c #6A6A6A",
"D  c #6B6B6B",
"F  c #6C6C6C",
"G  c #6D6D6D",
"H  c #6E6E6E",
"J  c #707070",
"K  c #717171",
"L  c #727272",
"P  c #737373",
"I  c #747474",
"U  c #757575",
"Y  c #767676",
"T  c #777777",
"R  c #787878",
"E  c #797979",
"W  c #7A7A7A",
"Q  c #7B7B7B",
"!  c #7C7C7C",
"~  c #7D7D7D",
"^  c #7E7E7E",
"/  c #7F7F7F",
"(  c #808080",
")  c #818181",
"_  c #828282",
"`  c #838383",
"'  c #848484",
"]  c #858585",
"[  c #868686",
"{  c #878787",
"}  c #888888",
"|  c #898989",
" . c #8A8A8A",
".. c #8C8C8C",
"X. c #8D8D8D",
"o. c #8E8E8E",
"O. c #8F8F8F",
"+. c #909090",
"@. c #919191",
"#. c #929292",
"$. c #939393",
"%. c #949494",
"&. c #959595",
"*. c #969696",
"=. c #979797",
"-. c #989898",
";. c #999999",
":. c #9A9A9A",
">. c #9B9B9B",
",. c #9C9C9C",
"<. c #9D9D9D",
"1. c #9E9E9E",
"2. c #9F9F9F",
"3. c #A0A0A0",
"4. c #A1A1A1",
"5. c #A2A2A2",
"6. c #A3A3A3",
"7. c #A4A4A4",
"8. c #A5A5A5",
"9. c #A6A6A6",
"0. c #A8A8A8",
"q. c #A9A9A9",
"w. c #AAAAAA",
"e. c #ABABAB",
"r. c #ACACAC",
"t. c #ADADAD",
"y. c #AEAEAE",
"u. c #AFAFAF",
"i. c #B0B0B0",
"p. c #B1B1B1",
"a. c #B2B2B2",
"s. c #B3B3B3",
"d. c #B4B4B4",
"f. c #B5B5B5",
"g. c #B6B6B6",
"h. c #B7B7B7",
"j. c #B8B8B8",
"k. c #B9B9B9",
"l. c #BABABA",
"z. c #BBBBBB",
"x. c #BCBCBC",
"c. c #BDBDBD",
"v. c #BEBEBE",
"b. c #BFBFBF",
"n. c #C0C0C0",
"m. c #C1C1C1",
"M. c #C2C2C2",
"N. c #C3C3C3",
"B. c #C4C4C4",
"V. c #C5C5C5",
"C. c #C6C6C6",
"Z. c #C7C7C7",
"A. c #C8C8C8",
"S. c #C9C9C9",
"D. c #CACACA",
"F. c #CBCBCB",
"G. c #CCCCCC",
"H. c #CDCDCD",
"J. c #CECECE",
"K. c #CFCFCF",
"L. c #D0D0D0",
"P. c #D1D1D1",
"I. c #D2D2D2",
"U. c #D3D3D3",
"Y. c #D4D4D4",
"T. c #D5D5D5",
"R. c #D6D6D6",
"E. c #D7D7D7",
"W. c #D8D8D8",
"Q. c #D9D9D9",
"!. c #DADADA",
"~. c #DBDBDB",
"^. c #DDDDDD",
"/. c #DEDEDE",
"(. c #DFDFDF",
"). c #E0E0E0",
"_. c #E1E1E1",
"`. c #E2E2E2",
"'. c #E3E3E3",
"]. c #E4E4E4",
"[. c #E5E5E5",
"{. c #E6E6E6",
"}. c #E7E7E7",
"|. c #E8E8E8",
" X c #E9E9E9",
".X c #EAEAEA",
"XX c #EBEBEB",
"oX c #ECECEC",
"OX c #EDEDED",
"+X c #EEEEEE",
"@X c #EFEFEF",
"#X c #F0F0F0",
"$X c #F1F1F1",
"%X c #F2F2F2",
"&X c #F3F3F3",
"*X c #F4F4F4",
"=X c #F5F5F5",
"-X c #F6F6F6",
";X c #F7F7F7",
":X c #F8F8F8",
">X c #F9F9F9",
",X c #FAFAFA",
"<X c #FBFBFB",
"1X c #FCFCFC",
"2X c #FDFDFD",
"3X c #FEFEFE",
"4X c #FFFFFF",
/* pixels */
"                                                                                                                                ",
"                                                                                                                                ",
"                                                                                                                                ",
"                                                                                                                                ",
"                                                                                                                                ",
"                                                                                                                                ",
"                                                                                                                                ",
"                                                4X4X4X4X4X4X                                                                    ",
"                                            4X4X4X4X4X4X4X4X4X4X4X                                                              ",
"                                            4X4X4XOXQ.OX4X4X4X4X4X                                                              ",
"                                            4X4X4Xd.m F o.L.4X4X4X4X                                                            ",
"                                      4X4X4X4X4X4X5.. O 7 P j.4X4X4X4X4X                                                        ",
"                                  4X4X4X4X4X4X4X4Xj.r * O . m L.*X4X4X4X4X4X4X4X                                                ",
"                                  4X4X4X*XOXOXOX*XK.] 7 O O 7 P j.Q.OX*X4X4X4X4X4X4X4X                                          ",
"                                  4X4X*X5.z m m P Q F 7 * * * 7 r g m ] V.OX4X4X4X4X4X                                          ",
"                                  4X4X4Xt.g * * 7 r r 7 7 * * * O O O 7 m P %.V.*X4X4X4X4X                                      ",
"                                  4X4X4X_.,.g 7 * * * 7 7 7 * * * * * O O . 7 F 5.V.OX4X4X4X4X4X                                ",
"                                      4X4XQ.] r * 7 7 7 7 * * * 7 7 * * O O * O * z 5.Q.*X4X4X4X4X                              ",
"                                      4X4XOX5.g * 7 7 7 7 7 * * 7 7 7 7 * * * O O * * F d.*X4X4X4X                              ",
"                                  4X4X4X4XK.m 7 * 7 7 7 7 * * * 7 7 g z r * * * * O O * z o._.4X4X4X4X                          ",
"                                  4X4X4XL.] * * 7 7 * * 7 7 7 7 * 7 z Q ,.,.Q z * * O O O 7 ] L.4X4X4X4X                        ",
"                                4X4X4X*X,.r 7 7 7 * * * 7 7 7 7 * * g P t.V.j.,.P g * O O O O ] L.4X4X4X4X                      ",
"                              4X4X4X4Xd.F * 7 7 7 r g r 7 * 7 7 7 7 7 7 7 z 5.Q.L.,.m 7 O O O O Q _.4X4X4X                      ",
"                              4X4X4XL.P 7 * 7 7 P t.j.P r * * 7 7 7 7 * 7 7 r Q j.L.j.Q * * O O 7 ] *X4X4X                      ",
"                          4X4X4X4X_.Q r * * r ,.V.Q.V.m 7 * 7 * * * * 7 7 * * 7 P d.Q.V.] * O O O g d.*X4X4X                    ",
"                          4X4X4XOX5.7 * * r o.Q.OXL.%.7 * 7 * 7 z g 7 * 7 7 * * 7 P V._.j.F * O O * F L.4X4X                    ",
"                        4X4X4X4Xd.g 7 7 7 P L.Q.OXd.m 7 7 7 * r ] ] m 7 7 7 7 7 7 7 %.L.Q.t.g O O O * 5.OX4X4X4X                ",
"                        4X4X4XK.Q 7 7 * z ,.Q.d.K.t.g 7 7 7 * 7 m j.t.z 7 7 7 7 * 7 g 5.OXQ.Q 7 O O * z j.4X4X4X                ",
"                      4X4X4XOXo.r * 7 * z ] 5.m m z 7 7 7 7 7 7 r d._.t.r 7 7 7 7 7 * Q K._.K.F O O O * ,.*X4X4X                ",
"                      4X4X*X,.g * 7 7 * r z m 7 * * 7 7 7 7 7 * 7 d.*XK.z 7 7 7 7 7 * z ,._.OXo.7 O O O P K.4X4X4X              ",
"                    4X4X4XL.g * 7 7 7 7 * * * * 7 7 * 7 * * * 7 g d.*XK.m 7 * 7 7 * * 7 Q _.OXd.F O O O r %.4X4X4X              ",
"                    4X4X_.o.r * 7 7 7 7 * * * 7 7 7 * * * * * r ] K.OXj.z * * * 7 * * * F Q._._.,.* O O O F *X4X4X              ",
"                    4X4Xj.r 7 * * * * * * * 7 7 7 * * * 7 7 7 z V._.V.] * * * * 7 7 7 * z t.Q._.5.r * O O m Q.4X4X              ",
"                4X4X4XK.Q 7 * 7 * 7 * * 7 * 7 7 * * * * 7 * z 5.Q.t.P r O * * * 7 7 7 * r ] L.OXj.m * O O g d.*X4X              ",
"                4X4X4X5.r 7 7 7 7 7 7 7 7 7 7 7 7 7 * * 7 * m ,.%.m * O O * 7 7 7 7 7 * 7 F K.OXK.o.* O O 7 ] OX4X4X            ",
"              4X4X4XL.Q g P F r * 7 7 7 7 7 7 7 7 7 * * 7 7 r z * O O O O * 7 7 7 7 7 7 7 z K.OXQ.t.7 O O * z _.4X4X            ",
"              4X4X4X%.m o.L.d.m * 7 7 7 7 7 7 7 7 7 * * * * * * * * O O * * 7 7 7 7 7 * * g K.OXQ.d.r O O O r Q.4X4X            ",
"              4X4X_.Q o.Q.Q.o.g * * 7 7 7 7 7 7 7 7 * O O O * g %.z O * * * 7 7 7 7 7 * * g K.OX_.d.z * O O r L.4X4X            ",
"              4X*Xd.P ] t.] z 7 * 7 m r * * 7 7 * O * m ] ,.t.d.5.g O * * 7 7 7 7 7 * * * r K.OX_.j.F 7 O O r V.*X4X            ",
"              4XOXo.m m z 7 * * r P t.m * * * * z P ] d.Q.*X4X*XQ 7 O * * 7 7 7 7 7 * 7 * r V._._.V.] 7 O O 7 d.OX4X            ",
"              4XOX%.g * 7 7 7 7 P j.L.P 7 7 7 g 5._.4X4X4X4X*XK.g O * * * 7 * * 7 7 * 7 * r d._._.K.%.r O O 7 ,._.4X            ",
"              4X*Xj.m * 7 7 7 F t.L.,.g * r F K.*X4X4X4X4X4XL.P r * 7 7 * * * 7 7 7 * * * r t.Q._.L.t.g O O 7 o.Q.4X            ",
"              4X4XOX5.z * 7 z t.V.o.z 7 r ] L.*X4X4X4X4X4X_.,.r 7 7 7 7 * * 7 7 * * * * * r 5.Q._.L.j.z O O * Q Q.4X            ",
"              4X4X4X_.t.P r ] 5.] r * z %.L.4X4X4X4X4X4X_.,.z 7 * 7 7 7 * * 7 7 * * * * * r ,.L._.Q.V.z O O * F L.4X            ",
"                4X4X4X*XK.o.d.o.z z F 5._.4X4X4X4X4X4X_.5.z * 7 * 7 7 7 7 7 * 7 7 7 7 7 * r %.L._.Q.V.z O O * m K.4X            ",
"                    4X4X4X*X_.d.%.t.Q.*X4X4X4X4X4X4XQ.%.g * 7 7 * * 7 7 * 7 7 7 * * * 7 * r %.L._.Q.V.z O O * z K.4X            ",
"                    4X4X4X4X4X*XOX*X4X4X4X4X4X4X4XK.Q g 7 * * * 7 7 7 7 7 7 * * 7 7 * 7 * r %.L._.Q.V.z O O * g V.4X            ",
"                      4X4X4X4X4X4X4X4X4X4X4X4X4Xd.P r * * * * * 7 7 * * * * * * 7 7 7 7 * r %.L._.L.V.m O O * r V.4X            ",
"                                      4X4X4X*Xj.m * * 7 7 7 * * 7 7 7 7 7 7 7 7 7 7 7 7 * r %.K._.L.V.m * O * r V.4X            ",
"                                      4X4X*XK.g * * * 7 7 7 * * * * * * 7 7 7 7 7 7 7 7 * r %.K._.L.V.m * O * 7 V.4X            ",
"                                      4X4XL.m 7 * * 7 7 7 7 7 7 * * * 7 * * * * 7 7 * * * 7 %.L._.L.V.m O O * 7 V.4X            ",
"                                  4X4X4X_.,.7 7 * * * 7 7 7 7 7 * * 7 7 * 7 * * 7 7 * * * 7 %.L._.L.V.m O O * r V.4X            ",
"                                  4X4X4Xd.z 7 * 7 7 7 7 * 7 7 7 * * * * * 7 7 7 7 7 * * * r ,.L._.L.V.m O O * r V.4X            ",
"                                  4X4X*Xo.* * * 7 7 7 7 * 7 7 7 * * * * * * 7 7 7 7 * * * r ,.L._.L.V.m O O * g V.4X            ",
"                                  4X4XL.Q * 7 * 7 7 * * * * 7 7 * * * * 7 7 7 7 * * 7 7 * r ,.L.Q.K.j.z O O * z V.4X            ",
"                                  4X4Xd.F * 7 7 7 * * * * * 7 7 7 7 7 7 7 7 7 7 7 7 7 7 * r ,.V.V.d.t.z O O * m K.4X            ",
"                                  4X4XL.t.5.5.5.5.5.5.5.5.5.5.5.5.5.5.5.5.5.5.5.5.5.5.5.5.5.V.K.K.V.j.5.,.,.,.t._.4X            ",
"                                  4X4X*XOXOXOXOXOXOXOXOXOXOXOXOXOX*X*X*XOXOXOXOXOXOXOXOXOXOXOXOXOX_._.OXOXOXOXOX4X4X            ",
"                                  4X4X4X4X4X4X4X4X4X4X4X4X4X4X4X4X4X4X4X4X4X4X4X4X4X4X4X4X4X4X4X4X4X4X4X4X4X4X4X4X4X            ",
"                                  4X4X4X4X4X4X4X4X4X4X4X4X4X4X4X4X4X4X4X4X4X4X4X4X4X4X4X4X4X4X4X4X4X4X4X4X4X4X4X4X4X            ",
"                                                                                                                                ",
"                                                                                                                                ",
"                                                                                                                                ",
"                                                                                                                                "
};
