/* XPM */
static char *bP[] = {
/* columns rows colors chars-per-pixel */
"64 64 153 2 ",
"   c None",
".  c #2E2E2E",
"X  c #303030",
"o  c #313131",
"O  c #323232",
"+  c #333333",
"@  c #343434",
"#  c #353535",
"$  c #363636",
"%  c #373737",
"&  c #383838",
"*  c #393939",
"=  c #3A3A3A",
"-  c #3B3B3B",
";  c #3C3C3C",
":  c #3D3D3D",
">  c #3E3E3E",
",  c #3F3F3F",
"<  c #404040",
"1  c #414141",
"2  c #424242",
"3  c #434343",
"4  c #444444",
"5  c #464646",
"6  c #474747",
"7  c #484848",
"8  c #494949",
"9  c #4A4A4A",
"0  c #4B4B4B",
"q  c #4C4C4C",
"w  c #4D4D4D",
"e  c #4F4F4F",
"r  c #505050",
"t  c #515151",
"y  c #525252",
"u  c #535353",
"i  c #545454",
"p  c #555555",
"a  c #565656",
"s  c #575757",
"d  c #585858",
"f  c #595959",
"g  c #5A5A5A",
"h  c #5B5B5B",
"j  c #5C5C5C",
"k  c #5D5D5D",
"l  c #5E5E5E",
"z  c #5F5F5F",
"x  c #616161",
"c  c #646464",
"v  c #666666",
"b  c #686868",
"n  c #6A6A6A",
"m  c #6B6B6B",
"M  c #6C6C6C",
"N  c #6E6E6E",
"B  c #6F6F6F",
"V  c #707070",
"C  c #727272",
"Z  c #737373",
"A  c #747474",
"S  c #767676",
"D  c #787878",
"F  c #797979",
"G  c #7B7B7B",
"H  c #7E7E7E",
"J  c #7F7F7F",
"K  c #828282",
"L  c #838383",
"P  c #888888",
"I  c #898989",
"U  c #8E8E8E",
"Y  c #8F8F8F",
"T  c #909090",
"R  c #919191",
"E  c #929292",
"W  c #959595",
"Q  c #979797",
"!  c #999999",
"~  c #9A9A9A",
"^  c #9D9D9D",
"/  c #9F9F9F",
"(  c #A1A1A1",
")  c #A2A2A2",
"_  c #A3A3A3",
"`  c #A4A4A4",
"'  c #A5A5A5",
"]  c #A6A6A6",
"[  c #A7A7A7",
"{  c #A8A8A8",
"}  c #AAAAAA",
"|  c #ABABAB",
" . c #ADADAD",
".. c #AEAEAE",
"X. c #B1B1B1",
"o. c #B3B3B3",
"O. c #B5B5B5",
"+. c #B6B6B6",
"@. c #B7B7B7",
"#. c #BABABA",
"$. c #BCBCBC",
"%. c #BEBEBE",
"&. c #BFBFBF",
"*. c #C2C2C2",
"=. c #C3C3C3",
"-. c #C4C4C4",
";. c #C5C5C5",
":. c #C7C7C7",
">. c #C8C8C8",
",. c #C9C9C9",
"<. c #CBCBCB",
"1. c #CCCCCC",
"2. c #CFCFCF",
"3. c #D0D0D0",
"4. c #D1D1D1",
"5. c #D3D3D3",
"6. c #D4D4D4",
"7. c #D5D5D5",
"8. c #D6D6D6",
"9. c #D7D7D7",
"0. c #DCDCDC",
"q. c #DEDEDE",
"w. c #DFDFDF",
"e. c #E0E0E0",
"r. c #E1E1E1",
"t. c #E2E2E2",
"y. c #E4E4E4",
"u. c #E5E5E5",
"i. c #E6E6E6",
"p. c #E7E7E7",
"a. c #E8E8E8",
"s. c #E9E9E9",
"d. c #EAEAEA",
"f. c #EBEBEB",
"g. c #ECECEC",
"h. c #EDEDED",
"j. c #EFEFEF",
"k. c #F0F0F0",
"l. c #F1F1F1",
"z. c #F2F2F2",
"x. c #F3F3F3",
"c. c #F4F4F4",
"v. c #F5F5F5",
"b. c #F6F6F6",
"n. c #F7F7F7",
"m. c #F8F8F8",
"M. c #F9F9F9",
"N. c #FAFAFA",
"B. c #FBFBFB",
"V. c #FCFCFC",
"C. c #FDFDFD",
"Z. c #FEFEFE",
"A. c #FFFFFF",
/* pixels */
"                                                                                                                                ",
"                                                                                                                                ",
"                                                                                                                                ",
"                                                                                                                                ",
"                                                                                                                                ",
"                                                                                                                                ",
"                                                                                                                                ",
"                                                                                                                                ",
"                                                                                                                                ",
"                                                                                                                                ",
"                                                                                                                                ",
"                                                                                                                                ",
"                                                        A.A.A.A.A.A.A.A.A.A.                                                    ",
"                                                    A.A.A.A.A.A.A.A.A.A.A.A.A.                                                  ",
"                                                    A.A.A.A.A.s.q.r.x.A.A.A.A.                                                  ",
"                                                  A.A.A.x.@.K D V V K | s.A.A.A.                                                ",
"                                                  A.A.x.@.c # # # # # t / r.A.A.                                                ",
"                                                A.A.x.;.k = = = = # # # = [ s.A.A.A.                                            ",
"                                                A.A.r.V < = < = = = # # = t &.A.A.A.                                            ",
"                                                A.A.8.t = < < < < = = # # = | A.A.A.                                            ",
"                                                A.A.8.e = < < < < = = # # # [ A.A.A.                                            ",
"                                                A.A.8.e = < < < < = = # # # | A.A.A.                                            ",
"                                                A.A.r.m < < < < < = = # = t &.A.A.A.                                            ",
"                                                A.A.x.;.k = < < = = # # = [ s.A.A.A.                                            ",
"                                            A.A.A.A.r.W t = < < = = # # < [ s.A.A.A.A.                                          ",
"                                          A.A.A.x.1.U t < < < < = = = # = m | r.A.A.A.                                          ",
"                                          A.A.A.1.D = = < < < < < < = = # # t W s.A.A.A.                                        ",
"                                          A.A.r.D = < < < < < < < < < = = # # t / x.A.A.                                        ",
"                                        A.A.x.| k = < < < < < < < < < = = = # = k 1.A.A.                                        ",
"                                        A.A.s.V < = < < < < < < < < < < = = # # < W r.A.A.                                      ",
"                                        A.A.r.k = < < < < < < < < < < < < = = # = k 8.A.A.                                      ",
"                                        A.A.q.k = < < < < < < < < < < < < = = # # = ;.A.A.                                      ",
"                                        A.A.q.k = < < < < < < < < < < < < = = # # = ;.A.A.                                      ",
"                                        A.A.r.k = < = = < < < < < < < < < = = # # = ;.A.A.                                      ",
"                                        A.A.x.K e = = = < < < < < < < < < = = # = k 8.A.A.                                      ",
"                                        A.A.A.1.m = = < < < < < < < < < = = # # < / r.A.A.                                      ",
"                                          A.A.A.W e < < = < < < < < < = = = = = k q.A.A.                                        ",
"                                          A.A.A.s.| c < = < < < < < = = = # < D 1.A.A.A.                                        ",
"                                        A.A.A.A.q./ t < = < < < < < = = # # = c @.s.A.A.A.                                      ",
"                                      A.A.A.x.&.U k = < < < < < < < = = = = # = c [ 8.x.A.A.A.A.                                ",
"                                  A.A.A.A.s.@.t = < < < < < < < < < < < < = = # # = D 1.x.A.A.A.                                ",
"                                  A.A.A.r.[ t < = < < < < < < < < < < < < < = = # # = m @.A.A.A.                                ",
"                                A.A.A.s./ t = = < < < < < < < < < < < < < < < = = # # = c @.x.A.A.                              ",
"                              A.A.A.x.[ k = < < < < < < < < < < < < < < < < < < = # # # = m 1.x.A.A.A.                          ",
"                              A.A.x.&.k = < < < < < < < < < < < < < < < < < < < < = # # # = K 8.A.A.A.                          ",
"                            A.A.A.q.t < < < < < < < < < < < < < < < < < < < < < < = = # # # = [ x.A.A.A.                        ",
"                          A.A.A.s.[ e = < < < < < < < < < < < < < < < < < < < < < < = # # # # V ;.A.A.A.                        ",
"                          A.A.A.;.k < = < < < < < < < < < < < < < < < < < < < < < < = # # # # < W A.A.A.                        ",
"                          A.A.A.| = = < < < < < < < < < < < < < < < < < < < < < < < = = # # # . V s.A.A.                        ",
"                          A.A.r.W = < < < < < < < < < < < < < < < < < < < < < < < < = = # # # # m 1.A.A.                        ",
"                          A.A.;.V = < < < < < < < < < < < < < < < < < < < < < < < < = = # # # # k | x.A.                        ",
"                          A.A.| k < < < < < < < < < < < < < < < < < < < < < < < < < = = # # # # e W x.A.                        ",
"                          A.A.[ k < < < < < < < < < < < < < < < < < < < < < < < < < = = # # # # e U x.A.                        ",
"                          A.A.| k < < < < < < < < < < < < < < < < < < < < < < < < < = = # # # # e U x.A.                        ",
"                          A.A.&.m = < < < < < < < < < < = < < < < < < < < < < < < < = # # # # # t | x.A.                        ",
"                          A.A.r.W = < < < < < < < < < < < < < < < < < < < < < < < = = # # # # # m 8.A.A.                        ",
"                          A.A.A.8.| | | | | | | | | | | | | | | | | | | | | | | | [ [ [ [ [ [ / &.x.A.A.                        ",
"                          A.A.A.A.x.x.x.x.x.x.x.x.x.x.x.x.x.x.x.x.x.x.x.x.x.x.x.x.x.x.x.x.x.x.x.x.A.A.A.                        ",
"                          A.A.A.A.A.A.A.A.A.A.A.A.A.A.A.A.A.A.A.A.A.A.A.A.A.A.A.A.A.A.A.A.A.A.A.A.A.A.A.                        ",
"                              A.A.A.A.A.A.A.A.A.A.A.A.A.A.A.A.A.A.A.A.A.A.A.A.A.A.A.A.A.A.A.A.A.A.A.A.                          ",
"                                                                                                                                ",
"                                                                                                                                ",
"                                                                                                                                ",
"                                                                                                                                "
};
