/* XPM */
static char *bQ[] = {
/* columns rows colors chars-per-pixel */
"64 64 203 2 ",
"   c None",
".  c #303030",
"X  c #313131",
"o  c #323232",
"O  c #333333",
"+  c #343434",
"@  c #353535",
"#  c #363636",
"$  c #373737",
"%  c #383838",
"&  c #393939",
"*  c #3A3A3A",
"=  c #3B3B3B",
"-  c #3C3C3C",
";  c #3D3D3D",
":  c #3E3E3E",
">  c #3F3F3F",
",  c #404040",
"<  c #414141",
"1  c #424242",
"2  c #434343",
"3  c #444444",
"4  c #454545",
"5  c #464646",
"6  c #474747",
"7  c #484848",
"8  c #494949",
"9  c #4A4A4A",
"0  c #4B4B4B",
"q  c #4C4C4C",
"w  c #4D4D4D",
"e  c #4E4E4E",
"r  c #4F4F4F",
"t  c #505050",
"y  c #515151",
"u  c #525252",
"i  c #535353",
"p  c #545454",
"a  c #555555",
"s  c #565656",
"d  c #575757",
"f  c #585858",
"g  c #595959",
"h  c #5A5A5A",
"j  c #5B5B5B",
"k  c #5C5C5C",
"l  c #5D5D5D",
"z  c #5E5E5E",
"x  c #5F5F5F",
"c  c #606060",
"v  c #616161",
"b  c #626262",
"n  c #636363",
"m  c #646464",
"M  c #656565",
"N  c #666666",
"B  c #676767",
"V  c #686868",
"C  c #6A6A6A",
"Z  c #6B6B6B",
"A  c #6C6C6C",
"S  c #6D6D6D",
"D  c #6E6E6E",
"F  c #6F6F6F",
"G  c #707070",
"H  c #717171",
"J  c #727272",
"K  c #747474",
"L  c #757575",
"P  c #767676",
"I  c #777777",
"U  c #787878",
"Y  c #7A7A7A",
"T  c #7B7B7B",
"R  c #7C7C7C",
"E  c #7D7D7D",
"W  c #7E7E7E",
"Q  c #7F7F7F",
"!  c #808080",
"~  c #828282",
"^  c #838383",
"/  c #848484",
"(  c #858585",
")  c #878787",
"_  c #888888",
"`  c #898989",
"'  c #8A8A8A",
"]  c #8B8B8B",
"[  c #8C8C8C",
"{  c #8D8D8D",
"}  c #8E8E8E",
"|  c #8F8F8F",
" . c #909090",
".. c #919191",
"X. c #929292",
"o. c #939393",
"O. c #949494",
"+. c #959595",
"@. c #969696",
"#. c #979797",
"$. c #989898",
"%. c #999999",
"&. c #9A9A9A",
"*. c #9B9B9B",
"=. c #9C9C9C",
"-. c #9D9D9D",
";. c #9E9E9E",
":. c #9F9F9F",
">. c #A0A0A0",
",. c #A1A1A1",
"<. c #A2A2A2",
"1. c #A3A3A3",
"2. c #A4A4A4",
"3. c #A5A5A5",
"4. c #A6A6A6",
"5. c #A7A7A7",
"6. c #A8A8A8",
"7. c #A9A9A9",
"8. c #AAAAAA",
"9. c #ABABAB",
"0. c #ACACAC",
"q. c #ADADAD",
"w. c #AEAEAE",
"e. c #AFAFAF",
"r. c #B0B0B0",
"t. c #B1B1B1",
"y. c #B2B2B2",
"u. c #B3B3B3",
"i. c #B4B4B4",
"p. c #B5B5B5",
"a. c #B6B6B6",
"s. c #B7B7B7",
"d. c #B8B8B8",
"f. c #B9B9B9",
"g. c #BABABA",
"h. c #BBBBBB",
"j. c #BCBCBC",
"k. c #BDBDBD",
"l. c #BEBEBE",
"z. c #BFBFBF",
"x. c #C0C0C0",
"c. c #C1C1C1",
"v. c #C2C2C2",
"b. c #C3C3C3",
"n. c #C4C4C4",
"m. c #C5C5C5",
"M. c #C6C6C6",
"N. c #C7C7C7",
"B. c #C8C8C8",
"V. c #C9C9C9",
"C. c #CBCBCB",
"Z. c #CCCCCC",
"A. c #CDCDCD",
"S. c #CECECE",
"D. c #CFCFCF",
"F. c #D0D0D0",
"G. c #D1D1D1",
"H. c #D2D2D2",
"J. c #D3D3D3",
"K. c #D4D4D4",
"L. c #D5D5D5",
"P. c #D6D6D6",
"I. c #D7D7D7",
"U. c #D8D8D8",
"Y. c #D9D9D9",
"T. c #DADADA",
"R. c #DBDBDB",
"E. c #DCDCDC",
"W. c #DDDDDD",
"Q. c #DEDEDE",
"!. c #DFDFDF",
"~. c #E0E0E0",
"^. c #E1E1E1",
"/. c #E2E2E2",
"(. c #E3E3E3",
"). c #E4E4E4",
"_. c #E5E5E5",
"`. c #E6E6E6",
"'. c #E7E7E7",
"]. c #E8E8E8",
"[. c #E9E9E9",
"{. c #EAEAEA",
"}. c #EBEBEB",
"|. c #ECECEC",
" X c #EDEDED",
".X c #EEEEEE",
"XX c #EFEFEF",
"oX c #F0F0F0",
"OX c #F1F1F1",
"+X c #F2F2F2",
"@X c #F3F3F3",
"#X c #F4F4F4",
"$X c #F5F5F5",
"%X c #F6F6F6",
"&X c #F7F7F7",
"*X c #F8F8F8",
"=X c #F9F9F9",
"-X c #FAFAFA",
";X c #FBFBFB",
":X c #FCFCFC",
">X c #FDFDFD",
",X c #FEFEFE",
"<X c #FFFFFF",
/* pixels */
"                                                                                                                                ",
"                                                                                                                                ",
"                                                                                                                                ",
"                                                                                                                                ",
"                                                                                                                                ",
"                                                                                                                                ",
"                                                                                                                                ",
"                                          <X<X<X<X<X<X<X<X<X          <X<X<X<X<X<X<X<X<X                                        ",
"                                        <X<X<X<X<X<X<X<X<X<X<X      <X<X<X<X<X<X<X<X<X<X<X                                      ",
"                                        <X<X<X<X{.{.+X<X<X<X<X      <X<X<X<X+X{.{.+X<X<X<X                                      ",
"                                      <X<X+XG.~ G G G  .E.<X<X<X<X<X<X<X{.1.E G G G f.{.<X<X<X                                  ",
"                                  <X<X<X<XA.E , % % % q ~ G.<X<X<X<X<X`. .t % % % % Z s.+X<X<X<X                                ",
"                                  <X<X<XG.~ , % , , , % %  .+X<X<X<X+Xf., % , , , , % Z f.<X<X<X                                ",
"                                  <X<X<X%.% , , , , , , % G n.<X<X<XE.' , % , , , , , % G +X<X<X                                ",
"                                  <X<X<X .% , , , , , , % g 1.<X<X<Xn.N , , , , , , , % Z {.<X<X                                ",
"              <X<X<X<X<X<X<X<X<X<X<X<X<X .% , , , , , , , t %.<X<X<Xf.g , , , , , , , % Z {.<X<X<X<X<X<X<X<X<X<X<X<X            ",
"            <X<X<X<X+X`.E.{.<X<X<X<X<X<X%., , , , , , , % N s.<X<X<XA.G , % , , , , , , E +X<X<X<X<X<X{.E.E.{.<X<X<X<X<X        ",
"          <X<X<X<X`.n.%. .w.A.{.<X<X<X<Xf.N , % , , , , % ' E.<X<X<X{.w., % , , , , % g %.<X<X<X<X{.A.w.' ' s.G.+X<X<X<X<X      ",
"          <X<X<XG.Z q q q q q  .E.<X<X<X+Xw.q , , , , , , w.<X<X<X<X<XA.q % , , , , , ' `.<X<X<X{.w.t , % % , t s.+X<X<X<X      ",
"        <X<X<XE.~ q % % % % % q %.+X<X<X<X{.s.t % , , , % 1.<X<X<X<X<XA.q % , , , , %.`.<X<X<X<Xf.g % % % $ $ % N f.<X<X<X      ",
"        <X<X<Xf.t , , , , , , % G E.<X<X<X<X{.g % , , , % ' `.<X<X<X{.w., % , , % , n.<X<X<X<X{.%.% , , % % $ $ %  .<X<X<X      ",
"        <X<X+Xw.% , , , , , , % N f.<X<X<X<X{.g % , , , % Z f.<X<X<XG.E , % , , % , A.<X<X<X<XA.E % , , , % $ $ $ E {.<X<X      ",
"        <X<X{.1., , , , , , , % g 1.+X<X<X<X{.g % , , , , , ' <X<X<Xs.q , , , , % , n.<X<X<X<Xf.Z , , , , % % $ $ G E.<X<X      ",
"        <X<X<Xw., , , , , , , % N s.<X<X<X<X`.g % , , , , % E +X<X<X1.% , , , , % , n.<X<X<X<XA.E , , , , % $ $ $ E {.<X<X      ",
"        <X<X<Xn.g , % , , , , % Z n.<X<X<X<X`.g % , , , , % Z G.<X`.' % , , , , % , n.<X<X<X<XG.~ , , , % % $ $ , %.<X<X<X      ",
"        <X<X<X`.%.t % % % , , % t  .`.<X<X<X`.g % , , , , % g 1.+Xf.Z % , , , , % , f.<X<X<X+Xw.N , % % % $ $ % E A.<X<X<X      ",
"            <X<X`.' N t q , , , % t w.{.<X<XE.g % , , , , , , G {. .q , , , , , % , f.<X<X+Xn.Z % % % $ % q t G n.<X<X<X        ",
"            <X<X<X+XE.w.E , , , , , q f.+X<XE.g % , , , , , % g E.E % , , , , , % , f.<X<XG.N , , % % $ g %.A.{.<X<X<X<X        ",
"            <X<X<X<X<X`.1., % , , % , t s.<XG.g % , , , , , % t f.G % , , , , , % , s.<XG.Z , % % % $ $ E G.+X<X<X<X<X<X        ",
"              <X<X<X<X<Xf., % , , , , % G n.A.g % , , , , , % q ' g % , , , , , , , s.G.' , % , % % $ $  .+X<X<X<X<X            ",
"                    <X<XG.t , , , , , , q E s.t % , , , , , , , g q % , , , , , , , 1.%.t , , % % $ $ % 1.<X<X<X                ",
"                    <X<X`.~ q % , , , , % g ~ q % , , , , , , , , , , , , , , , , , E Z % , , % % $ % N n.<X<X<X                ",
"                    <X<X+Xf.t % , , , , , , q , , , , , , , , , , , , , , , , , , , q , , , , % $ $ %  .`.<X<X<X                ",
"                      <X<XE.g % , , , , , , % , , , , , , , , , , , , , , , , , , , % % , , % % $ $ % s.<X<X                    ",
"                      <X<X{.Z , , , , , , , , , , , , , , , , , , , , , , , , , , , , , , , % % $ $ q A.<X<X                    ",
"                      <X<X+X .t % , , , , , , , , , , , , , , , % % % , , , , , , , , , , % % $ $ % Z E.<X<X                    ",
"                        <X<XA.Z % , , , , , , , , , , , , , , , , , , , , , , , , , , , % % % $ $ q w.{.<X                      ",
"                        <X<X{.E % , , , , , % % % % , q t g N Z G Z Z N g q , % % % % , % % $ $ $ t G.<X<X                      ",
"                        <X<X<X' % , , % % , t Z ' %.1.w.w.s.s.f.f.f.f.s.w.w.1.%. .G g , % $ $ $ $ g {.<X<X                      ",
"                        <X<X<Xw.g , , t Z ~  .s.G.`.{.{.{.{.{.{.{.{.{.{.{.{.{.{.E.f.%.~ N q % $ , ~ +X<X<X                      ",
"                          <X<XG.~ % , G f.{.`.`.`.`.`.`.{.{.{.`.`.`.`.`.{.{.`.`.`.`.`.G.s.G , $ N f.<X<X                        ",
"                          <X<X+X1.% , G f.{.`.`.`.`.`.`.`.`.`.`.`.`.`.`.`.`.`.`.`.`.E.G.w.G , $ G `.<X<X                        ",
"                          <X<X<Xn.g , q %.`.{.{.{.`.n.s.1. .' ' ~ ' '  .%.w.n.E.{.{.G.A.1.q % ,  .<X<X<X                        ",
"                          <X<X<X`.%., % Z w.n.w.%.' E Z g t t q q q q t g N G ' %.%.1.%.G % $ G A.<X<X<X                        ",
"                              <X<XE.N , , N E t , % % % % % % % % % % % % % % % % , N g , % q s.<X<X<X                          ",
"                              <X<X+Xs.g % , , , , , , , , , , , , , , , , , , , % $ % % $ ,  .E.<X<X<X                          ",
"                              <X<X<X{.G % % , , , , % , , , q q q q q , , , % % $ $ $ $ $ q A.<X<X<X<X                          ",
"                                <X<X<X' q % % q N E  .1.w.w.w.w.w.w.w.w.w.w.%.E g , $ $ % N `.<X<X                              ",
"                                <X<X<X .t t ~ ' 1.n.E.{.{.{.{.{.{.{.{.{.{.{.`.f. .E G t % Z `.<X<X                              ",
"                                  <X<X .q Z `.{.{.{.{.`.`.`.`.`.{.{.`.`.`.`.`.E.n.n.A.E % Z `.<X                                ",
"                                  <X<X .q Z `.`.`.`.`.`.`.`.`.`.`.`.`.`.`.`.`.E.n.n.A.E % Z `.<X                                ",
"                                  <X<X .q Z `.{.`.A.w.%.' ~ E E E E E ~ '  .1.s.f.n.A.E % Z `.<X                                ",
"                                  <X<X .q g w.%.' E N g t q , , , , , q q t N Z G ~  .N % Z `.<X                                ",
"                                  <X<X%.t , g , % % % % % % % % , , , , % % % % $ % q , % E `.<X                                ",
"                                  <X<Xn.E q q q , , , , , , % % , , , % % % % % % % , , g 1.{.<X                                ",
"                                  <X<X+X`.n.%.E t , , , , , % % % % % % % % % % , N ' w.G.{.<X<X                                ",
"                                  <X<X<X<X+X`.G.n.f.f.s.s.w.w.1.1.1.1.w.w.s.s.f.f.A.E.{.<X<X<X<X                                ",
"                                      <X<X<X<X<X<X<X<X<X<X<X+X+X+X+X+X<X<X<X<X<X<X<X<X<X<X<X<X                                  ",
"                                                <X<X<X<X<X<X<X<X<X<X<X<X<X<X<X<X<X<X                                            ",
"                                                  <X<X<X<X<X<X<X<X<X<X<X<X<X<X<X                                                ",
"                                                                                                                                ",
"                                                                                                                                ",
"                                                                                                                                ",
"                                                                                                                                "
};
