/* XPM */
static char *bR[] = {
/* columns rows colors chars-per-pixel */
"64 64 187 2 ",
"   c None",
".  c #303030",
"X  c #313131",
"o  c #323232",
"O  c #333333",
"+  c #343434",
"@  c #353535",
"#  c #363636",
"$  c #373737",
"%  c #383838",
"&  c #393939",
"*  c #3A3A3A",
"=  c #3B3B3B",
"-  c #3C3C3C",
";  c #3D3D3D",
":  c #3E3E3E",
">  c #3F3F3F",
",  c #404040",
"<  c #414141",
"1  c #424242",
"2  c #434343",
"3  c #444444",
"4  c #454545",
"5  c #464646",
"6  c #474747",
"7  c #484848",
"8  c #494949",
"9  c #4A4A4A",
"0  c #4B4B4B",
"q  c #4D4D4D",
"w  c #4E4E4E",
"e  c #4F4F4F",
"r  c #505050",
"t  c #515151",
"y  c #525252",
"u  c #535353",
"i  c #545454",
"p  c #555555",
"a  c #565656",
"s  c #575757",
"d  c #585858",
"f  c #595959",
"g  c #5A5A5A",
"h  c #5B5B5B",
"j  c #5C5C5C",
"k  c #5D5D5D",
"l  c #5E5E5E",
"z  c #606060",
"x  c #616161",
"c  c #636363",
"v  c #646464",
"b  c #656565",
"n  c #666666",
"m  c #676767",
"M  c #686868",
"N  c #6A6A6A",
"B  c #6B6B6B",
"V  c #6C6C6C",
"C  c #6D6D6D",
"Z  c #6E6E6E",
"A  c #6F6F6F",
"S  c #717171",
"D  c #737373",
"F  c #747474",
"G  c #757575",
"H  c #767676",
"J  c #787878",
"K  c #797979",
"L  c #7A7A7A",
"P  c #7B7B7B",
"I  c #7C7C7C",
"U  c #7D7D7D",
"Y  c #7E7E7E",
"T  c #7F7F7F",
"R  c #808080",
"E  c #818181",
"W  c #848484",
"Q  c #858585",
"!  c #868686",
"~  c #898989",
"^  c #8A8A8A",
"/  c #8B8B8B",
"(  c #8C8C8C",
")  c #8D8D8D",
"_  c #8E8E8E",
"`  c #8F8F8F",
"'  c #909090",
"]  c #939393",
"[  c #949494",
"{  c #959595",
"}  c #969696",
"|  c #979797",
" . c #989898",
".. c #999999",
"X. c #9A9A9A",
"o. c #9B9B9B",
"O. c #9C9C9C",
"+. c #9D9D9D",
"@. c #A0A0A0",
"#. c #A1A1A1",
"$. c #A2A2A2",
"%. c #A3A3A3",
"&. c #A4A4A4",
"*. c #A5A5A5",
"=. c #A6A6A6",
"-. c #A7A7A7",
";. c #A8A8A8",
":. c #A9A9A9",
">. c #AAAAAA",
",. c #ABABAB",
"<. c #ACACAC",
"1. c #ADADAD",
"2. c #AEAEAE",
"3. c #AFAFAF",
"4. c #B0B0B0",
"5. c #B1B1B1",
"6. c #B3B3B3",
"7. c #B4B4B4",
"8. c #B5B5B5",
"9. c #B6B6B6",
"0. c #B9B9B9",
"q. c #BABABA",
"w. c #BBBBBB",
"e. c #BCBCBC",
"r. c #BDBDBD",
"t. c #BEBEBE",
"y. c #C0C0C0",
"u. c #C1C1C1",
"i. c #C2C2C2",
"p. c #C3C3C3",
"a. c #C4C4C4",
"s. c #C5C5C5",
"d. c #C6C6C6",
"f. c #C7C7C7",
"g. c #C8C8C8",
"h. c #C9C9C9",
"j. c #CACACA",
"k. c #CBCBCB",
"l. c #CCCCCC",
"z. c #CDCDCD",
"x. c #CFCFCF",
"c. c #D1D1D1",
"v. c #D2D2D2",
"b. c #D3D3D3",
"n. c #D4D4D4",
"m. c #D5D5D5",
"M. c #D6D6D6",
"N. c #D7D7D7",
"B. c #D8D8D8",
"V. c #D9D9D9",
"C. c #DADADA",
"Z. c #DCDCDC",
"A. c #DDDDDD",
"S. c #DEDEDE",
"D. c #DFDFDF",
"F. c #E0E0E0",
"G. c #E1E1E1",
"H. c #E2E2E2",
"J. c #E3E3E3",
"K. c #E4E4E4",
"L. c #E5E5E5",
"P. c #E6E6E6",
"I. c #E7E7E7",
"U. c #E8E8E8",
"Y. c #E9E9E9",
"T. c #EAEAEA",
"R. c #EBEBEB",
"E. c #ECECEC",
"W. c #EDEDED",
"Q. c #EEEEEE",
"!. c #EFEFEF",
"~. c #F0F0F0",
"^. c #F1F1F1",
"/. c #F2F2F2",
"(. c #F3F3F3",
"). c #F4F4F4",
"_. c #F5F5F5",
"`. c #F6F6F6",
"'. c #F7F7F7",
"]. c #F8F8F8",
"[. c #F9F9F9",
"{. c #FAFAFA",
"}. c #FBFBFB",
"|. c #FCFCFC",
" X c #FDFDFD",
".X c #FEFEFE",
"XX c #FFFFFF",
/* pixels */
"                                                                                                                                ",
"                                                                                                                                ",
"                                                                                                                                ",
"                                                                                                                                ",
"                                                                                                                                ",
"                                                                                                                                ",
"                                                                                                                                ",
"                                                                                                                                ",
"                                                                                                                                ",
"                                                                                                                                ",
"                          XXXXXXXXXXXXXXXXXXXXXXXXXXXXXXXXXXXXXXXXXXXXXXXXXXXXXXXXXXXXXXXXXXXXXXXXXXXXXX                        ",
"                          XXXXXX^.^.^.^.^.^.^.^.XXXXXXXX^.^.^.^.^.^.^.^.^.XXXXXXXX^.^.^.R.R.R.R.^.^.XXXX                        ",
"                          XXXXR.j.4.4.4.2.2.4.M.^.XXXX^.y.2.4.4.4.4.4.2.4.R.XXXXXXD.t.2.2.2.2.$.t.D.XXXX                        ",
"                          XXXXM.~ , , , , , 8 o.I.XXXXI.B , , , , , , , 8 j.XXXX^.2.b > > > > # b t.XXXX                        ",
"                          XXXXM.! > > > > > 8 | I.XXXXI.b > > > > > > > 8 j.XXXX^.2.j # # # # # b t.XXXX                        ",
"                          XXXXM.! > , , , > 8 o.D.XX^.I.B > , , , , , > 8 j.XXXXR.2.j > # # # # b t.XXXX                        ",
"                          XXXXM.! > , , , > , G o.2.2.$.p > , , , , , > , | 2.2.$.! p > # # # # b t.XXXX                        ",
"                          XXXXM.! , , , , > , > > > > > > , , , > > > , , > > > > > , > # # # # b t.XXXX                        ",
"                          XXXXM.! > , , , , , , , , , , , , , , > > > > , , , , > > , > # # # # b t.XXXX                        ",
"                          XXXXM.! > , , > > > > > > > > > > > > > > > > > > > > > > > > # # # # b t.XXXX                        ",
"                          XXXXM.! > , , 8 p p p p p p p p p p p p p p p p p p p p p p 8 , # # # b t.^.XX                        ",
"                          XXXXM.! > , > p G | | | | | | | | | | | | | | | | | | | | o.Y 8 # # # j t.^.XX                        ",
"                          XXXXD.~ , , > 8 Y M.D.I.I.I.I.I.I.I.I.I.I.I.I.I.I.I.I.I.D.D.| , # # # b y.XXXX                        ",
"                          XXXXXXt.b , > , 8 B 2.D.R.I.I.I.I.I.I.I.I.I.I.I.I.I.I.I.y.G , > # # 8 o.R.XXXX                        ",
"                          XXXXXXR.y.Y 8 > > , b ~ y.I.I.I.I.I.I.I.I.I.I.I.I.I.M.$.B , # # # b 2.I.XXXXXX                        ",
"                          XXXXXXXXXXj.~ p > > > p Y $.$.$.$.$.$.$.$.$.$.$.$.$.~ j # # # > B 4.R.XXXXXXXX                        ",
"                              XXXXXXXXD.| p , > > 8 B Y Y Y Y Y Y Y Y Y Y Y G p # # # , G y.^.XXXXXXXX                          ",
"                                XXXXXXXXR.$., , > p | M.D.D.D.D.D.D.D.D.D.D.4.B # # # Y D.XXXXXXXX                              ",
"                                  XXXXXXXXM.G , > , b t.I.R.R.R.R.R.R.R.R.D.~ , # # j 4.XXXXXXXX                                ",
"                                      XXXXI.! 8 > > , G 2.y.y.y.y.y.y.y.t.| p # # > b y.XXXXXX                                  ",
"                                        XXD.! 8 > , > , B Y Y Y Y Y Y Y G 8 > # # > b t.XX                                      ",
"                                        XXD.! 8 > , , > , , , , , , , , , > # # # > b t.XX                                      ",
"                                        XXD.! 8 > , , , , , , , , , , , > > > # # # b t.XX                                      ",
"                                        XXD.! 8 > , , , , , , , , , , , , > > # # # b t.XX                                      ",
"                                        XXD.! 8 > , , , , , , , , , , , > > # # # # b t.XX                                      ",
"                                        XXD.! 8 > , , , , , , , , , , , > > # # # # b t.XX                                      ",
"                                        XXD.! 8 > , , , , , , , , , , , , > # # # > b t.XX                                      ",
"                                        XXD.! 8 > , , , , , , , , , , , , > # # # > b t.XX                                      ",
"                                        XXD.! 8 > , , , , , , , , , , , , > > # # > b t.XX                                      ",
"                                      XXXXD.! 8 > > > > > > > > > > > > > > # # # > b y.XXXXXX                                  ",
"                                  XXXXXXXXD.Y 8 > , , , 8 8 , , 8 8 8 , , , , > # # j 4.XXXXXXXX                                ",
"                                  XXXXXXR.2.8 , , p B B G G G G G G G B B B B j > # # ! I.XXXXXX                                ",
"                                XXXXXX^.2.j > > p ~ j.y.y.y.y.y.y.y.y.y.y.y.j.$.b > # , ! I.XXXXXX                              ",
"                              XXXXXX^.2.b > , 8 ~ j.R.R.R.R.R.R.R.R.R.R.R.R.^.D.2.p > . , ~ I.XXXXXXXX                          ",
"                          XXXXXXXX^.t.j > , , j 2.M.j.j.j.j.j.j.j.j.j.j.j.j.j.M.y.G , # # > o.I.XXXXXXXX                        ",
"                        XXXXXXXX^.y.p > , , , G ! ~ ~ ~ ~ ~ ~ ~ ~ ~ ~ ~ ~ ~ ~ ~ ~ Y 8 # # # > o.R.XXXXXXXX                      ",
"                        XXXXXXXXt.p , > , , p ~ o.o.o.o.o.o.o.o.o.o.o.o.o.o.o.o.o.o.b , # # # , | ^.XXXXXX                      ",
"                      XXXXXXXX4.b > , > , B 4.j.j.j.j.j.j.j.j.j.j.j.j.j.j.j.j.j.j.j.t.Y , # # # 8 | ^.XXXXXX                    ",
"                      XXXX^.y.B > , , , B 2.R.R.R.R.R.R.R.R.R.R.R.R.R.R.R.R.R.R.R.R.R.y.Y 8 > # # 8 $.R.XXXX                    ",
"                      XXXXI.B , > > , b 2.D.D.D.D.D.D.D.D.D.D.D.D.D.D.D.D.D.D.D.D.D.D.D.y.B > # # # 8 y.XXXX                    ",
"                      XXXXD.j > > > , Y o.o.o.o.o.o.o.o.o.o.o.o.o.o.o.o.o.o.o.o.o.o.o.o.o.~ , # # # > 4.^.XX                    ",
"                      XXXXM.j > > > , p j p p p p p p p p p p p p p p p p p p p p p p p p p > # # # > 4.^.XX                    ",
"                      XXXXD.j > , , , > > > > > > > > > > > > > > > > > > > > > > > > > > > > # # # > 4.^.XX                    ",
"                      XXXXD.j > , , , , , , , > , , , , , , , , , , , , > > , , , , , , , > > # # # > 4.^.XX                    ",
"                      XXXXD.j > , , > > > > , , , , , , , , , , , , > > , , , , > > > > > > > # # # > 4.^.XX                    ",
"                      XXXXM.j > , , , , , , , , , , , , , , , , , , , , , , , , > > , > > > > # # # > 4.^.XX                    ",
"                      XXXXR.4.$.$.$.$.$.$.$.$.$.$.2.2.2.$.$.$.$.$.$.$.$.$.$.$.$.$.2.2.2.$.$.$.$.$.$.$.D.XXXX                    ",
"                      XXXXXX^.^.^.^.^.^.^.^.^.^.^.^.^.^.^.^.^.^.^.^.^.^.^.^.^.^.^.^.^.^.^.^.^.^.^.^.^.XXXXXX                    ",
"                      XXXXXXXXXXXXXXXXXXXXXXXXXXXXXXXXXXXXXXXXXXXXXXXXXXXXXXXXXXXXXXXXXXXXXXXXXXXXXXXXXXXXXX                    ",
"                      XXXXXXXXXXXXXXXXXXXXXXXXXXXXXXXXXXXXXXXXXXXXXXXXXXXXXXXXXXXXXXXXXXXXXXXXXXXXXXXXXXXXXX                    ",
"                                                                                                                                ",
"                                                                                                                                ",
"                                                                                                                                ",
"                                                                                                                                "
};
