/* XPM */
static char *wB[] = {
/* columns rows colors chars-per-pixel */
"64 64 141 2 ",
"   c None",
".  c #292929",
"X  c #2A2A2A",
"o  c #2E2E2E",
"O  c #303030",
"+  c #333333",
"@  c #343434",
"#  c #353535",
"$  c #363636",
"%  c #373737",
"&  c #393939",
"*  c #3A3A3A",
"=  c #3B3B3B",
"-  c #3C3C3C",
";  c #3D3D3D",
":  c #3E3E3E",
">  c #3F3F3F",
",  c #414141",
"<  c #424242",
"1  c #434343",
"2  c #454545",
"3  c #464646",
"4  c #474747",
"5  c #484848",
"6  c #4C4C4C",
"7  c #4E4E4E",
"8  c #525252",
"9  c #535353",
"0  c #545454",
"q  c #565656",
"w  c #585858",
"e  c #595959",
"r  c #5B5B5B",
"t  c #5C5C5C",
"y  c #5D5D5D",
"u  c #5F5F5F",
"i  c #616161",
"p  c #626262",
"a  c #636363",
"s  c #646464",
"d  c #656565",
"f  c #666666",
"g  c #676767",
"h  c #696969",
"j  c #6C6C6C",
"k  c #6E6E6E",
"l  c #717171",
"z  c #727272",
"x  c #757575",
"c  c #767676",
"v  c #787878",
"b  c #797979",
"n  c #7A7A7A",
"m  c #7C7C7C",
"M  c #7D7D7D",
"N  c #7F7F7F",
"B  c #828282",
"V  c #858585",
"C  c #868686",
"Z  c #888888",
"A  c #8B8B8B",
"S  c #8D8D8D",
"D  c #909090",
"F  c #919191",
"G  c #939393",
"H  c #9E9E9E",
"J  c #A0A0A0",
"K  c #A3A3A3",
"L  c #A5A5A5",
"P  c #A7A7A7",
"I  c #A9A9A9",
"U  c #B0B0B0",
"Y  c #B5B5B5",
"T  c #B6B6B6",
"R  c #B7B7B7",
"E  c #B8B8B8",
"W  c #B9B9B9",
"Q  c #BABABA",
"!  c #BBBBBB",
"~  c #BCBCBC",
"^  c #BDBDBD",
"/  c #BEBEBE",
"(  c #BFBFBF",
")  c #C0C0C0",
"_  c #C3C3C3",
"`  c #C6C6C6",
"'  c #C7C7C7",
"]  c #C8C8C8",
"[  c #C9C9C9",
"{  c #CCCCCC",
"}  c #CDCDCD",
"|  c #CECECE",
" . c #CFCFCF",
".. c #D0D0D0",
"X. c #D1D1D1",
"o. c #D2D2D2",
"O. c #D3D3D3",
"+. c #D4D4D4",
"@. c #D5D5D5",
"#. c #D6D6D6",
"$. c #D7D7D7",
"%. c #D8D8D8",
"&. c #D9D9D9",
"*. c #DADADA",
"=. c #DBDBDB",
"-. c #DCDCDC",
";. c #DDDDDD",
":. c #DEDEDE",
">. c #DFDFDF",
",. c #E0E0E0",
"<. c #E1E1E1",
"1. c #E2E2E2",
"2. c #E3E3E3",
"3. c #E4E4E4",
"4. c #E5E5E5",
"5. c #E6E6E6",
"6. c #E7E7E7",
"7. c #E8E8E8",
"8. c #E9E9E9",
"9. c #EAEAEA",
"0. c #EBEBEB",
"q. c #ECECEC",
"w. c #EDEDED",
"e. c #EEEEEE",
"r. c #EFEFEF",
"t. c #F0F0F0",
"y. c #F1F1F1",
"u. c #F2F2F2",
"i. c #F3F3F3",
"p. c #F4F4F4",
"a. c #F5F5F5",
"s. c #F6F6F6",
"d. c #F7F7F7",
"f. c #F8F8F8",
"g. c #F9F9F9",
"h. c #FAFAFA",
"j. c #FBFBFB",
"k. c #FCFCFC",
"l. c #FDFDFD",
"z. c #FEFEFE",
"x. c #FFFFFF",
/* pixels */
"                                                                                                                                ",
"                                                                                                                                ",
"                                                                                                                                ",
"                                                                                                                                ",
"                                                                                                                                ",
"                                                                                                                                ",
"                                                                                                                                ",
"                                                          x.x.x.x.x.x.x.                                                        ",
"                                                        x.x.x.x.x.x.x.x.x.x.                                                    ",
"                                                        x.x.x.x.x.x.x.x.x.x.                                                    ",
"                                                    x.x.x.p.6.>.>.>.6.p.x.x.x.                                                  ",
"                                                    x.x.x.p.6.>.......6.x.x.x.                                                  ",
"                                                    x.x.x.x.p.8.>.>...>.8.x.x.                                                  ",
"                                                    x.x.x.x.x.x.x.8.>...>.x.x.                                                  ",
"                                                    x.x.x.x.x.x.x.8.>...>.x.x.                                                  ",
"                                                    x.x.x.x.x.x.p.6.....6.x.x.                                                  ",
"                                                    x.x.x.x.x.p.8.>...6.p.x.x.                                                  ",
"                                                  x.x.x.x.x.p.8.>...>.8.x.x.x.x.                                                ",
"                                                  x.x.x.x.x.p.>.......>.x.x.x.x.                                                ",
"                                                x.x.x.x.x.x.p.6.........6.p.x.x.x.x.                                            ",
"                                          x.x.x.x.x.x.x.x.x.p.8.>.........6.p.x.x.x.x.x.                                        ",
"                                        x.x.x.x.x.x.x.x.x.x.x.x.8.6.>.......>.8.x.x.x.x.x.                                      ",
"                                        x.x.x.x.x.x.x.x.x.x.x.x.x.p.6.........>.8.x.x.x.x.x.x.                                  ",
"                                        x.x.x.x.x.x.x.x.x.x.p.p.6.p.p.8.........>.6.p.x.x.x.                                    ",
"                                      x.x.x.x.x.x.x.x.x.x.x.| b c F | p.8.>.........6.p.x.x.x.                                  ",
"                                  x.x.x.x.x.x.x.x.x.x.x.x.x.Y + + 6 L x.p.6.>.........6.x.x.x.x.                                ",
"                                  x.x.x.x.x.x.x.x.x.x.x.x.x.Y = = + F x.x.x.6.........>.8.x.x.x.                                ",
"                                  x.x.x.x.x.x.x.x.x.p.p.p.p.I = = + S p.p.p.8.>.........6.x.x.x.                                ",
"                                  x.x.x.x.x.x.x.x.8.) B c b p = = = 9 b b B Y >.........>.p.x.x.                                ",
"                                  x.x.x.x.x.x.x.x.| c < = = = = = = = = = < B ) ........>.p.x.x.                                ",
"                                  x.x.x.x.x.x.x.x.) k < < < = = = = = < < < b ! ........>.8.x.x.                                ",
"                                  x.x.x.x.x.x.x.x.8.! b c c u = = = 9 c c b ! 6.........>.8.x.x.                                ",
"                                  x.x.x.x.x.x.x.x.p.p.6.6.6.I = = + B 8.6.8.p.8.........>.p.x.x.                                ",
"                                  x.x.x.x.x.x.x.x.x.x.x.x.x.Y = = + F x.x.x.p.6.........>.p.x.x.                                ",
"                                  x.x.x.x.x.x.x.x.x.x.x.x.x.Y + + < L x.x.x.8.>.........6.x.x.x.                                ",
"                                  x.x.x.x.x.x.x.x.x.x.x.x.x.) p p B | x.x.x.6.........>.8.x.x.x.                                ",
"                                      x.x.x.x.x.x.x.x.x.x.x.p.8.6.8.p.x.p.8.>.........6.x.x.x.x.                                ",
"                                      x.x.x.x.x.x.x.x.x.x.x.x.x.x.x.x.p.6.>.........6.p.x.x.x.                                  ",
"                                      x.x.x.x.x.x.x.x.x.x.x.x.x.x.p.8.>.........6.8.x.x.x.x.x.                                  ",
"                                        x.x.x.x.x.x.x.x.x.x.x.x.x.p.6.........>.8.x.x.x.x.                                      ",
"                                          x.x.x.x.x.x.x.x.p.p.p.p.p.6.........>.p.x.x.x.                                        ",
"                                          x.x.x.x.x.p.p.8.6.....| ..| ! ) | ....6.x.x.x.                                        ",
"                                          x.x.x.x.8.! c k k p p p p p u u u S ! >.p.x.x.                                        ",
"                                        x.x.x.x.x.| k + + + + + + + + X X X < S >.8.x.x.x.                                      ",
"                                        x.x.x.x.x.L = < 6 9 u u u u u 9 < = X p | >.p.x.x.                                      ",
"                                        x.x.x.x.8.H 6 k S L Y ! ) ! Y L B p < p ! ..p.x.x.                                      ",
"                                        x.x.x.x.p.6...6.6.8.8.8.p.8.6.>.| ! ! ! | ..8.x.x.                                      ",
"                    x.x.x.x.x.x.x.x.x.x.x.x.x.x.x.x.x.x.x.x.p.6.6.6.>.>.>.6.8.8.8.p.x.x.x.x.x.x.x.x.x.x.x.x.x.x.                ",
"                x.x.x.x.x.x.x.x.x.x.x.x.x.x.x.x.x.x.x.x.x.x.p.>...........>.8.p.x.x.x.x.x.p.p.p.8.p.p.x.x.x.x.x.x.              ",
"                x.x.x.x.x.x.x.x.x.x.x.x.x.x.x.x.x.x.x.x.x.x.x.p.>...........6.8.8.8.8.8.6.6.>.......>.8.p.x.x.x.x.              ",
"                x.x.x.x.x.x.x.x.x.x.x.x.x.x.x.x.x.x.x.x.x.x.x.p.p.6.>.........>.........................>.6.x.x.x.              ",
"                x.x.x.x.x.x.x.x.x.x.x.x.x.x.x.x.x.x.x.x.x.x.x.x.x.p.8.8.6.>.............>.6.6.6.6.>.......>.p.x.x.              ",
"                x.x.x.x.x.x.x.x.x.x.x.x.x.x.x.x.x.x.x.x.x.x.x.x.x.x.x.p.p.8.8.8.6.6.6.8.8.p.p.p.p.8.8.6.>.6.p.x.x.              ",
"                x.x.x.x.x.x.x.x.x.x.x.x.x.x.x.x.x.x.x.x.x.x.x.x.x.x.x.x.x.x.x.x.x.x.x.x.x.x.x.x.x.x.x.x.p.p.x.x.x.              ",
"                  x.x.x.x.x.x.x.x.x.x.x.x.x.x.x.x.x.x.x.x.x.x.x.x.x.x.x.x.x.x.x.x.x.x.x.x.x.x.x.x.x.x.x.x.x.x.x.x.              ",
"                    x.x.x.x.x.x.x.x.x.x.x.x.x.x.x.x.x.x.x.x.x.x.x.x.x.x.x.x.x.x.x.x.x.x.x.x.x.x.x.x.x.x.x.x.x.x.x.              ",
"                    x.x.x.x.x.x.x.x.x.x.x.x.x.x.x.x.x.x.x.x.x.x.x.x.x.x.x.x.x.x.x.x.x.x.x.x.x.x.x.x.x.x.x.x.x.x.                ",
"                      x.x.x.x.x.x.x.x.x.x.x.x.x.x.x.x.x.x.x.x.x.x.x.x.x.x.x.x.x.x.x.x.x.x.x.x.x.x.x.x.x.x.x.                    ",
"                      x.x.x.x.x.x.              x.x.x.x.                    x.x.x.x.x.            x.x.x.x.x.                    ",
"                                                                                                                                ",
"                                                                                                                                ",
"                                                                                                                                ",
"                                                                                                                                ",
"                                                                                                                                "
};
