/* XPM */
static char *wQ[] = {
/* columns rows colors chars-per-pixel */
"64 64 27 1 ",
"  c #2F2F2F",
". c #373737",
"X c #3C3C3C",
"o c #474747",
"O c #484848",
"+ c #555555",
"@ c #5D5D5D",
"# c #656565",
"$ c #696969",
"% c #767676",
"& c #7F7F7F",
"* c #858585",
"= c #8B8B8B",
"- c #919191",
"; c #9F9F9F",
": c #A3A3A3",
"> c #AEAEAE",
", c #B4B4B4",
"< c #BCBCBC",
"1 c #C2C2C2",
"2 c #CCCCCC",
"3 c #D5D5D5",
"4 c #DBDBDB",
"5 c #E5E5E5",
"6 c #EDEDED",
"7 c #F7F7F7",
"8 c #FFFFFF",
/* pixels */
"8888888888888888888888888888888888888888888888888888888888888888",
"8888888888888888888888888888888888888888888888888888888888888888",
"8888888888888888888888888888888888888888888888888888888888888888",
"8888888888888888888888888888888888888888888888888888888888888888",
"8888888888888888888888888888888888888888888888888888888888888888",
"8888888888888888888888888888888888888888888888888888888888888888",
"8888888888888888888888888888888888888888888888888888888888888888",
"8888888888888888888888888888888888888888888888888888888888888888",
"8888888888888888888888888888888888888888888888888888888888888888",
"8888888888888888888888888888888888888888888888888888888888888888",
"8888888888888888888888888888888888888888888888888888888888888888",
"8888888888888888888888888888888888888888888888888888888888888888",
"8888888888888888888888888888888888888888888888888888888888888888",
"8888888888888888888888888888888888888888888888888888888888888888",
"8888888888888888888888888888888888888888888888888888888888888888",
"8888888888888888888888888888888888888888888888888888888888888888",
"8888888888888888888888888888888888888888888888888888778888888888",
"8888888888888888888888888888888888888888888888888876556788888888",
"8888888888888888888888888888888888888888888888888754333468888888",
"8888888888888888888888888888888888888888888888888876533347888888",
"8888888888887887888888888888888888888788888888888888753336888888",
"8888888888888887888888888888888888888888888888888888874335888888",
"8888888888888888888888888888888888887788888888888888874335888888",
"8888888888888888888888888888888888888888888888888888863335888888",
"8888888888888888888888888888888888888888888888888888753346888888",
"8888888888888888888888888888888888888888888888888776543357888888",
"8888888888888888888888888887888888888888888888888753334578888888",
"8888888888888888888888888877888888888888888888887633467888888888",
"8888888888888888888888888888888888788888888888887533578888888888",
"8888888888888888888888888888888888788888888888886433588888888888",
"8888888888888888888888888788888888888888888888875333688888888888",
"8888888888888888888888887788877888888888888888864334788888888888",
"8888888888888888888888888887888888888888888887753336888888888888",
"8888888888888888888887888887888888888888888787643336888888888888",
"8888888888888888888878888888888888888888888887533347888888888888",
"8888888888888888888888888888888888888888888887433357888888888888",
"8888888888888888888888888887777777777888888876333468888888888888",
"88888888888888888888888888765321<1234678888874333478888888888888",
"888888888888888888888852:=*&&%$$#$$%&&*=;14763333488888888888888",
"888888888888888888751>;&+X..............O$-:><234588888888888888",
"8888888888888888887<$.XXXXXXXX.XXXXXXXXXXXX.o=234788888888888888",
"8888888888888888887<$.XXXXXXXXXXXXXXXXXXXX..o-235888888888888888",
"88888888888888888886=X...o@&=-::>::;=&#O... @<346888888888888888",
"888888888888888888881&#*-;,23556666542<:-&@#-3357888888888888888",
"8888888888888888888873,4788888888888888873::23468888888888888888",
"8888888888888888888887788888888888888887633333688888888888888888",
"8888888888888888888888888888876666677887433334788888888888888888",
"8888888888888888888888863,-***&&&&&&**-:>13334888888888888888888",
"8888888888888888888885>;*#o...........o+$*=,35888888888888888888",
"8888888888888888888881X.XXXXXXXX..XXXXX... &45888888888888888888",
"8888888888888888888881XXXXXXXXXXXXXXXXXX.. *45888888888888888888",
"8888888888888888888881X.X+&-:>,,,,,>:;*#X  &45888888888888888888",
"8888888888888888888883&-;,2456777776653,=*$;45888888888888888888",
"888888888888888888888637888888888888888643<135888888888888888888",
"8888888888888888888888888888888777777764333346888888888888888888",
"8888888888888888888888888888876655444443345678888888888888888888",
"8888888888888888888888888888887766666667778888888888888888888888",
"8888888888888888888888888888888888888888888888888888888888888888",
"8888888888888888888888888888888888888888888888888888888888888888",
"8888888888888888888888888888888888888888888888888888888888888888",
"8888888888888888888888888888888888888888888888888888888888888888",
"8888888888888888888888888888888888888888888888888888888888888888",
"8888888888888888888888888888888888888888888888888888888888888888",
"8888888888888888888888888888888888888888888888888888888888888888"
};
