/* XPM */
static char *wP[] = {
/* columns rows colors chars-per-pixel */
"64 64 6 1 ",
"  c #D7D7D7",
". c #DCDCDC",
"X c #E2E2E2",
"o c #EFEFEF",
"O c #F6F6F6",
"+ c #FFFFFF",
/* pixels */
"++++++++++++++++++++++++++++++++++++++++++++++++++++++++++++++++",
"++++++++++++++++++++++++++++++++++++++++++++++++++++++++++++++++",
"++++++++++++++++++++++++++++++++++++++++++++++++++++++++++++++++",
"++++++++++++++++++++++++++++++++++++++++++++++++++++++++++++++++",
"++++++++++++++++++++++++++++++++++++++++++++++++++++++++++++++++",
"++++++++++++++++++++++++++++++++++++++++++++++++++++++++++++++++",
"++++++++++++++++++++++++++++++++++++++++++++++++++++++++++++++++",
"++++++++++++++++++++++++++++++++++++++++++++++++++++++++++++++++",
"++++++++++++++++++++++++++++++++++++++++++++++++++++++++++++++++",
"++++++++++++++++++++++++++++++++++++++++++++++++++++++++++++++++",
"++++++++++++++++++++++++++++++++++++++++++++++++++++++++++++++++",
"++++++++++++++++++++++++++++++++++++++++++++++++++++++++++++++++",
"++++++++++++++++++++++++++++++++++++++++++++++++++++++++++++++++",
"++++++++++++++++++++++++++++++++++++++++++++++++++++++++++++++++",
"++++++++++++++++++++++++++++++++++++++++++++++++++++++++++++++++",
"+++++++++++++++++++++++++++++oXXXXXo++++++++++++++++++++++++++++",
"+++++++++++++++++++++++++++++o.    .o+++++++++++++++++++++++++++",
"+++++++++++++++++++++++++++++OoX.    o++++++++++++++++++++++++++",
"+++++++++++++++++++++++++++++++OO.   .O+++++++++++++++++++++++++",
"+++++++++++++++++++++++++++++++++o.   o+++++++++++++++++++++++++",
"+++++++++++++++++++++++++++++++++OX   o+++++++++++++++++++++++++",
"+++++++++++++++++++++++++++++++++OX   o+++++++++++++++++++++++++",
"++++++++++++++++++++++++++++++++OX.  .O+++++++++++++++++++++++++",
"+++++++++++++++++++++++++++++++Oo.   o++++++++++++++++++++++++++",
"+++++++++++++++++++++++++++++++OX    o++++++++++++++++++++++++++",
"+++++++++++++++++++++++++++++++OoX.  Xo+++++++++++++++++++++++++",
"+++++++++++++++++++++++++++++++++Oo.  .o++++++++++++++++++++++++",
"++++++++++++++++++++++++++++++++++Oo.  .o+++++++++++++++++++++++",
"+++++++++++++++++++++++++OOO+++++++Oo.  .O++++++++++++++++++++++",
"++++++++++++++++++++++++++O+++++++++O.   o++++++++++++++++++++++",
"+++++++++++++++++++++++++++++++++++++X.  .O+++++++++++++++++++++",
"+++++++++++++++++++++++++++++++++++++O.   O+++++++++++++++++++++",
"+++++++++++++++++++++++++++++++++++++O.   O+++++++++++++++++++++",
"++++++++++++++++++++++++++++++++++O++o.   O+++++++++++++++++++++",
"++++++++++++++++++++++++++++++++++O++X.  .O+++++++++++++++++++++",
"+++++++++++++++++++++++++++++OO++++OO.   o++++++++++++++++++++++",
"++++++++++++++++++++++++++++++++++OOX   .+++++++++++++++++++++++",
"+++++++++++++++++++++++++++++++++Oo.   XO+++++++++++++++++++++++",
"++++++++++++++++++++++++++++++++++o.   .O+++++++++++++++++++++++",
"++++++++++++++++++++++++++++++++++OoX.  .oO+++++++++++++++++++++",
"++++++++++++++++++++++++O++++O++++++Oo.   XO++++++++++++++++++++",
"++++++++++++++++++++++++O++++O+++++++OoX   .O+++++++++++++++++++",
"++++++++++++++++++++++++++++++++++++++OoX   .O++++++++++++++++++",
"+++++++++++++++++++++++++++++++++++++++Oo    XO+++++++++++++++++",
"++++++++++++++++++++++++++++++++++++++++O.    XO++++++++++++++++",
"+++++++++++++++++++++++++++++++++++++++++o.    o++++++++++++++++",
"+++++++++++++++++++++++++O+++O+++++++++++O.    XO+++++++++++++++",
"++++++++++++++++++++OO+++O++++++++O+++++++X     o+++++++++++++++",
"++++++++++++++++++++++++++++++++++O+++++++X.    X+++++++++++++++",
"++++++++++++++++++++++++++++++++++OO++++++o.    .O++++++++++++++",
"++++++++++++++++++++++++++++O+++++++++++++o.    .o++++++++++++++",
"++++++++++++++++++++++++++O+OO++++++O+++++o.    .o++++++++++++++",
"++++++++++++++++++++++++++++++++++++++++++o.    .X++++++++++++++",
"+++++++++++++++++++++++O++++++++++++++++++X     .o++++++++++++++",
"+++++++++++++++++O+++++O+++++++++++++++++O.     .o++++++++++++++",
"+++++++++++++++++O++++++++++++++++OO+++++O.     XO++++++++++++++",
"++++++++++++++++++++++++++++++++++++++++++ooooooO+++++++++++++++",
"++++++++++++++++++++++++++++++++++++++++++++++++++++++++++++++++",
"++++++++++++++++++++++++++++++++++++++++++++++++++++++++++++++++",
"++++++++++++++++++++++++++++++++++++++++++++++++++++++++++++++++",
"++++++++++++++++++++++++++++++++++++++++++++++++++++++++++++++++",
"++++++++++++++++++++++++++++++++++++++++++++++++++++++++++++++++",
"++++++++++++++++++++++++++++++++++++++++++++++++++++++++++++++++",
"++++++++++++++++++++++++++++++++++++++++++++++++++++++++++++++++"
};
