/* XPM */
static char *wB[] = {
/* columns rows colors chars-per-pixel */
"64 64 27 1 ",
"  c #2A2A2A",
". c #333333",
"X c #3B3B3B",
"o c #424242",
"O c #4C4C4C",
"+ c #535353",
"@ c #5F5F5F",
"# c #626262",
"$ c #6E6E6E",
"% c #767676",
"& c #797979",
"* c #828282",
"= c #8D8D8D",
"- c #919191",
"; c #9E9E9E",
": c #A5A5A5",
"> c #A9A9A9",
", c #B5B5B5",
"< c #BBBBBB",
"1 c #C0C0C0",
"2 c #CECECE",
"3 c #D0D0D0",
"4 c #DFDFDF",
"5 c #E7E7E7",
"6 c #E9E9E9",
"7 c #F4F4F4",
"8 c #FFFFFF",
/* pixels */
"8888888888888888888888888888888888888888888888888888888888888888",
"8888888888888888888888888888888888888888888888888888888888888888",
"8888888888888888888888888888888888888888888888888888888888888888",
"8888888888888888888888888888888888888888888888888888888888888888",
"8888888888888888888888888888888888888888888888888888888888888888",
"8888888888888888888888888888888888888888888888888888888888888888",
"8888888888888888888888888888888888888888888888888888888888888888",
"8888888888888888888888888888888888888888888888888888888888888888",
"8888888888888888888888888888888888888888888888888888888888888888",
"8888888888888888888888888888888888888888888888888888888888888888",
"8888888888888888888888888888875444578888888888888888888888888888",
"8888888888888888888888888888875433358888888888888888888888888888",
"8888888888888888888888888888887644346888888888888888888888888888",
"8888888888888888888888888888888886434888888888888888888888888888",
"8888888888888888888888888888888886434888888888888888888888888888",
"8888888888888888888888888888888875335888888888888888888888888888",
"8888888888888888888888888888888764357888888888888888888888888888",
"8888888888888888888888888888887643468888888888888888888888888888",
"8888888888888888888888888888887433348888888888888888888888888888",
"8888888888888888888888888888887533335788888888888888888888888888",
"8888888888888888888888888888887643333578888888888888888888888888",
"8888888888888888888888888888888865433346888888888888888888888888",
"8888888888888888888888888888888887533334688888888888888888888888",
"8888888888888888888888888888887757763333457888888888888888888888",
"8888888888888888888888888888882&%-276433335788888888888888888888",
"888888888888888888888888888888,..O:87543333588888888888888888888",
"888888888888888888888888888888,XX.-88853333468888888888888888888",
"888888888888888888888888887777>XX.=77764333358888888888888888888",
"888888888888888888888888861*%&#XXX+&&*,4333347888888888888888888",
"88888888888888888888888882%oXXXXXXXXXo*1333347888888888888888888",
"88888888888888888888888881$oooXXXXXooo&<333346888888888888888888",
"88888888888888888888888886<&%%@XXX+%%&<5333346888888888888888888",
"888888888888888888888888877555>XX.*65676333347888888888888888888",
"888888888888888888888888888888,XX.-88875333347888888888888888888",
"888888888888888888888888888888,..o:88864333358888888888888888888",
"8888888888888888888888888888881##*288853333468888888888888888888",
"8888888888888888888888888888887656787643333588888888888888888888",
"8888888888888888888888888888888888875433335788888888888888888888",
"8888888888888888888888888888878887643333567888888888888888888888",
"8888888888888888888888888888888887533334688888888888888888888888",
"8888888888888888888888888888877777533334788888888888888888888888",
"88888888888888888888888888776533232<1233588888888888888888888888",
"88888888888888888888888886<%$$#####@@@=<478888888888888888888888",
"88888888888888888888888882$........   o=468888888888888888888888",
"8888888888888888888888888:XoO+@@@@@+oX #247888888888888888888888",
"8888888888888888888888886;O$=:,<1<,:*#o#<37888888888888888888888",
"8888888888888888888888887534566676542<<<236888888888888888888888",
"8888888888888888888888888888887555444566678888888888888888888888",
"8888888888888888888888888888887433333467888887776778888888888888",
"8888888888888888888888888888888743333356666655433346788888888888",
"8888888888888888888888888888888775433334333333333333458888888888",
"8888888888888888888888888888888887665433333345555433347888888888",
"8888888888888888888888888888888888877666555667777665457888888888",
"8888888888888888888888888888888888888888888888888888778888888888",
"8888888888888888888888888888888888888888888888888888888888888888",
"8888888888888888888888888888888888888888888888888888888888888888",
"8888888888888888888888888888888888888888888888888888888888888888",
"8888888888888888888888888888888888888888888888888888888888888888",
"8888888888888888888888888888888888888888888888888888888888888888",
"8888888888888888888888888888888888888888888888888888888888888888",
"8888888888888888888888888888888888888888888888888888888888888888",
"8888888888888888888888888888888888888888888888888888888888888888",
"8888888888888888888888888888888888888888888888888888888888888888",
"8888888888888888888888888888888888888888888888888888888888888888"
};
