/* XPM */
static char *wK[] = {
/* columns rows colors chars-per-pixel */
"64 64 26 1 ",
"  c #2B2B2B",
". c #303030",
"X c #383838",
"o c #444444",
"O c #4B4B4B",
"+ c #555555",
"@ c #5E5E5E",
"# c #606060",
"$ c #6D6D6D",
"% c #787878",
"& c #818181",
"* c #8E8E8E",
"= c #919191",
"- c #9A9A9A",
"; c #A2A2A2",
": c #ACACAC",
"> c #B1B1B1",
", c #BFBFBF",
"< c #C7C7C7",
"1 c #C8C8C8",
"2 c #D2D2D2",
"3 c #DADADA",
"4 c #E3E3E3",
"5 c #E8E8E8",
"6 c #F5F5F5",
"7 c #FFFFFF",
/* pixels */
"7777777777777777777777777777777777777777777777777777777777777777",
"7777777777777777777777777777777777777777777777777777777777777777",
"7777777777777777777777777777777777777777777777777777777777777777",
"7777777777777777777777777777777777777777777777777777777777777777",
"7777777777777777777777777777777777777777777777777777777777777777",
"7777777777777777777777777777777777777777777777777777777777777777",
"7777777777777777777777777777777777777777777777777777777777777777",
"7777777777777777777777777777777755557777777777777777777777777777",
"7777777777777777777777777777777632236777777777777777777777777777",
"7777777777777777777777777777777632236777777777777777777777777777",
"7777777777777777777777777777777632235777777777777777777777777777",
"7777777777777777777777777777777632234566677777777777777777777777",
"7777777777777777777777777777777632223333477777777777777777777777",
"7777777777777777777777777777777633322222377777777777777777777777",
"7777777777777777777777777777777766652222377777777777777777777777",
"7777777777777777777777777777777777752222377777777777777777777777",
"7777777777777777777777777777777777652222377777777777777777777777",
"7777777777777777777777777777777777652222377777777777777777777777",
"7777777777777777777777777777777777653344477777777777777777777777",
"7777777777777777777777777777777777764676777777777777777777777777",
"7777777777777777777777777777777777763677766555667777777777777777",
"7777777777777777777777777777777777763677764333344567777777777777",
"7777777777777777777777777777777777764677765422222224677777777777",
"7777777777777777777777777777777777766677776654222222357777777777",
"7777777777777777777777777777777777776677777766422222235777777777",
"7777777777777777777777777777777777777777777777642222223677777777",
"7777777777777777777777777777776777777777777777754222222467777777",
"7777777777777777776677777777777677777777777777775222222257777777",
"7777777777777776767777767777777777767777777777776322222257777777",
"7777777777777776767777777777777777777777777777776522222246777777",
"7777777777777777777777777677777777776677777777777532222235777777",
"7777777777777777777777777677766777777677776777777532222235777777",
"7777777777777777777777777777776777777777777777677532222235777777",
"7777777777777777777777777766777777777777677777676532222246777777",
"7777777777777777777777777777777766777766777777776422222247777777",
"7777777777777777766767777777777777777777777777765222222257777777",
"7777777777777777777777777777777777766777777777764222222367777777",
"7777777777777767777777777777777777777777777777642222222677777777",
"7777777777776777776677777767777677777777777776422222235777777777",
"7777777777777767777777767767777677777777777764222222357777777777",
"7777777777777777777777767777777777777777777642222223577777777777",
"7777777777777777777777777777777777777777776422222225777777777777",
"7777777777777777777777777777777777777777664222222357777777777777",
"7777777777777777777777777777777777777777652222223577777777777777",
"7777777777777777777777776655554444445566653222223677777777777777",
"77777777777777777776665531<>:;--==--:><2321122223677777777777777",
"777777777777777777751-$@@++OOOOOOOOOO+++++@%;<223677777777777777",
"7777777777777777762*$+X........X...........o+$>24677777777777777",
"777777777777777776,+..XXX...............X... X-14677777777777777",
"777777777777777776,@.XXXoOO++++@+++++++OOX.. X;14677777777777777",
"777777777777777776,@XXo#&->,122222221<>;*#o..o;14677777777777777",
"777777777777777776<-;,1234566667766666553<>;=%>14677777777777777",
"777777777777777776435777777777777777777654321,<13677777777777777",
"7777777777777777777777777666666666655544322222234677777777777777",
"7777777777777777777777665555444332222222222333357777777777777777",
"7777777777777777777776554333322222222222234566777777777777777777",
"7777777777777777777777766665555555555556666777777777777777777777",
"7777777777777777777777777777777777777777777777777777777777777777",
"7777777777777777777777777777777777777777777777777777777777777777",
"7777777777777777777777777777777777777777777777777777777777777777",
"7777777777777777777777777777777777777777777777777777777777777777",
"7777777777777777777777777777777777777777777777777777777777777777",
"7777777777777777777777777777777777777777777777777777777777777777",
"7777777777777777777777777777777777777777777777777777777777777777"
};
