/* XPM */
static char *wN[] = {
/* columns rows colors chars-per-pixel */
"64 64 27 1 ",
"  c #2E2E2E",
". c #323232",
"X c #3B3B3B",
"o c #464646",
"O c #4F4F4F",
"+ c #565656",
"@ c #5D5D5D",
"# c #666666",
"$ c #6D6D6D",
"% c #767676",
"& c #7C7C7C",
"* c #858585",
"= c #8F8F8F",
"- c #939393",
"; c #9D9D9D",
": c #A2A2A2",
"> c #AAAAAA",
", c #B1B1B1",
"< c #BDBDBD",
"1 c #C6C6C6",
"2 c #CDCDCD",
"3 c #D5D5D5",
"4 c #DBDBDB",
"5 c #E0E0E0",
"6 c #ECECEC",
"7 c #F1F1F1",
"8 c #FFFFFF",
/* pixels */
"8888888888888888888888888888888888888888888888888888888888888888",
"8888888888888888888888888888888888888888888888888888888888888888",
"8888888888888888888888888888888888888888888888888888888888888888",
"8888888888888888888888888888888888888888888888888888888888888888",
"8888888888888888888888888888888888888888888888888888888888888888",
"8888888888888888888888888888888888888888888888888888888888888888",
"8888888888888888888888888888888888888888888888888888888888888888",
"8888888888888888888888888888888888888888888888888888888888888888",
"8888888888888888888888888888888888888888888888888888888888888888",
"8888888888888888888888888888888888888888888888888888888888888888",
"8888888888888888888888888755788888888888888888888888888888888888",
"8888888888888888888888888743467888888888888888888888888888888888",
"8888888888888888888888888864346888888888888888888888888888888888",
"8888888888888888888888888886434688888888888888888888888888888888",
"8888888888888888888888888887643445678888888888888888888888888888",
"8888888888888888888888888888764433445578888888888888888888888888",
"8888888888888888888888888888776554433346688888888888888888888888",
"8888888888888888888888888888888887644333357888888888888888888888",
"8888888888888888888888888888888888777543333588888888888888888888",
"8888888888888888888888888888888888778775333457888888888888888888",
"88888888888888888888888888888888873:->25643334688888888888888888",
"88888888888888888888888888888888872-$%=>144333468888888888888888",
"8888888888888888888888887667788888876,%o+,4433346888888888888888",
"8888888888888888888888884:*<68888888874-O+=143334688888888888888",
"88888888888888888888887,&O@2788888888885:+O*,3333478888888888888",
"8888888888888888888886<#XO=68887568888886;Oo&<333358888888888888",
"8888888888888888888882$o.%4888871<48888886*XO=133336888888888888",
"888888888888888888885;o+o*6888872$*68888873*XO:23335788888888888",
"888888888888888888883-#<247888876$o-7888888:OX@>4333688888888888",
"8888888888888888888862<6888888887%.#58888883*XX=2333578888888888",
"888888888888888888888888888888875% @36788887,X.$>333468888888888",
"88888888888888888888888888888887<@.@157888882oXX&333358888888888",
"88888888888888888888888788888884@XO&257888883%o.$133348888888888",
"8888888888888888888888888888885;o+=<367888885;O.@:33347888888888",
"8888888888888888888888888888883*%;13368888886<+.O&23345888888888",
"8888888888885136888888888888872:13333788888873+..+13334888888888",
"888888888886>O&3888888887788753333334788888885@..O<3334888888888",
"88888888887:OX;5888888888775433354335788888885@..O,3334788888888",
"88888888884-%:37874688887543456664346888888886@..o;2334788888888",
"888888888841278861=388876545688864347888888886#X.o*1334688888888",
"88888888888888872&O<88877788888864467888888886%X.X$<433688888888",
"8888888888888883*O*488888888888877778888888886&o.X+,433688888888",
"888888888888875*#;3788888888888888888888888886*O..o>433578888888",
"88888888888887:&;58888888888888888888888888886=OX..>433578888888",
"88888888888887;<688888888888888888888887888886-+..X>433478888888",
"8888888888888888888888888888888888888888888887;+..X>433478888888",
"8888888888888888888888888888878888888888888887;+...:333478888888",
"8888888888888888888888888888888888888888888887;+...:333478888888",
"8888888888888888888888888888888888888788888886;+...:333478888888",
"8888888888888888888888888888888888888888888886-+...:333478888888",
"8888888888888888888888888888788888888888888886-+...:333478888888",
"8888888888888888888888888878788888888888888886-O...:333478888888",
"8888888888888888888888888888888888788877888886-O...:333478888888",
"8888888888888888888888888888888888888888888886=O...:333478888888",
"8888888888888888888888888888888888888888888886=OX.X:333478888888",
"8888888888888888888888888888888888888888888886=#@++>333478888888",
"8888888888888888888888888888888888888888888888421114666688888888",
"8888888888888888888888888888888888888888888888888888888888888888",
"8888888888888888888888888888888888888888888888888888888888888888",
"8888888888888888888888888888888888888888888888888888888888888888",
"8888888888888888888888888888888888888888888888888888888888888888",
"8888888888888888888888888888888888888888888888888888888888888888",
"8888888888888888888888888888888888888888888888888888888888888888",
"8888888888888888888888888888888888888888888888888888888888888888"
};
