/* XPM */
static char *wR[] = {
/* columns rows colors chars-per-pixel */
"64 64 27 1 ",
"  c #303030",
". c #353535",
"X c #393939",
"o c #434343",
"O c #4D4D4D",
"+ c #575757",
"@ c #585858",
"# c #656565",
"$ c #6E6E6E",
"% c #717171",
"& c #7A7A7A",
"* c #858585",
"= c #888888",
"- c #959595",
"; c #999999",
": c #A2A2A2",
"> c #A9A9A9",
", c #B0B0B0",
"< c #BBBBBB",
"1 c #C7C7C7",
"2 c #CACACA",
"3 c #D4D4D4",
"4 c #DFDFDF",
"5 c #E4E4E4",
"6 c #ECECEC",
"7 c #F7F7F7",
"8 c #FFFFFF",
/* pixels */
"8888888888888888888888888888888888888888888888888888888888888888",
"8888888888888888888888888888888888888888888888888888888888888888",
"8888888888888888888888888888888888888888888888888888888888888888",
"8888888888888888888888888888888888888888888888888888888888888888",
"8888888888888888888888888888888888888888888888888888888888888888",
"8888888888888888888888888888888888888888888888888888888888888888",
"8888888888888888888888888888888888888888888888888888888888888888",
"8888888888888888888888888888888888888888888888888888888888888888",
"8888888888888888888888888888888888888888888888888888888888888888",
"8888888888888888888888888888888888888888888888888888888888888888",
"8888888888888888888888888888888888888888888888888888888888888888",
"8888888888888888888888888888888888888888888888888888888888888888",
"8888888888888888888888888888888888888888888766667888888888888888",
"8888888888888888888888888888888888888888888633334788888888888888",
"8888888888888888888888888888888888888888888633334788888888888888",
"8888888888888888888888888888888888888888888633334788888888888888",
"8888888888888888888888888888888888888888888533334788888888888888",
"8888888888888888888888888888888888888888888533334788888888888888",
"8888888888888888888888888888888888888888888533334788888888888888",
"8888888888888888888888888888888888888888888633334788888888888888",
"8888888888888888888864555555444455555555555313334788888888888888",
"888888888888888888885<--;;;;----;;;;;;;;---:<3334788888888888888",
"888888888888888888886,OoXXXXXXXXXXXXXXXXXoo*13334788888888888888",
"88888888888888888888762&OXXXXXXXXXXXXXXXX@:133346888888888888888",
"888888888888888888888873;#XoooooooooooX+&>2333468888888888888888",
"8888888888888888888888885,*===========*-<33335788888888888888888",
"888888888888888888888888861,,,,,,,,,,,<1333357888888888888888888",
"88888888888888888888888884;Ooooooooooo$:333578888888888888888888",
"888888888888888888888888872$o........X=2334788888888888888888888",
"888888888888888888888888887<&#######$=<3335788888888888888888888",
"88888888888888888888888888871,,,,,,,,333335788888888888888888888",
"8888888888888888888888888888888888887543334788888888888888888888",
"8888888888888888888888888888888888888543334788888888888888888888",
"8888888888888888888888888888887788887543334788888888888888888888",
"8888888888888888888888888888888888888543334788888888888888888888",
"8888888888888888888888888888888888887543334788888888888888888888",
"8888888888888888888888888888888888787543334788888888888888888888",
"8888888888888888888888888888888788887543334788888888888888888888",
"8888888888888888888888888888888788887543334788888888888888888888",
"8888888888888888888888888888888888888543335788888888888888888888",
"8888888888888888888888888777777777777533334788888888888888888888",
"8888888888888888888888888511111111111<>,333588888888888888888888",
"8888888888888888888888886:@@@@@@#@@@@@+%>33458888888888888888888",
"888888888888888888888886:+.............X$<3335888888888888888888",
"888888888888888888888874&O++++++++++++++#:2333688888888888888888",
"888888888888888888888871>:::::::::::::::::1333368888888888888888",
"88888888888888888888875:------------------<333336888888888888888",
"8888888888888888888882&@@@@@@@@@@@@@@@@@@@$:33334688888888888888",
"888888888888888888871&.....................@:2333468888888888888",
"88888888888888888873*ooooooOOOOOoOoOOOOOoooo#,333347888888888888",
"8888888888888888887,=========================;233337888888888888",
"8888888888888888887545554444555555555555444454333337888888888888",
"8888888888888888888888888888888888888888888888433336888888888888",
"8888888888888888888888888888888888888888888887433337888888888888",
"8888888888888888888888888888888888888888888887433337888888888888",
"8888888888888888888888888888888888888888888887433336888888888888",
"8888888888888888888888888888888888888888888888666668888888888888",
"8888888888888888888888888888888888888888888888888888888888888888",
"8888888888888888888888888888888888888888888888888888888888888888",
"8888888888888888888888888888888888888888888888888888888888888888",
"8888888888888888888888888888888888888888888888888888888888888888",
"8888888888888888888888888888888888888888888888888888888888888888",
"8888888888888888888888888888888888888888888888888888888888888888",
"8888888888888888888888888888888888888888888888888888888888888888"
};
