/* XPM */
static char *wK[] = {
/* columns rows colors chars-per-pixel */
"64 64 132 2 ",
"   c None",
".  c #2B2B2B",
"X  c #2E2E2E",
"o  c #2F2F2F",
"O  c #303030",
"+  c #313131",
"@  c #323232",
"#  c #333333",
"$  c #343434",
"%  c #353535",
"&  c #363636",
"*  c #373737",
"=  c #383838",
"-  c #393939",
";  c #3A3A3A",
":  c #3C3C3C",
">  c #3D3D3D",
",  c #3F3F3F",
"<  c #414141",
"1  c #444444",
"2  c #464646",
"3  c #474747",
"4  c #4A4A4A",
"5  c #4B4B4B",
"6  c #4C4C4C",
"7  c #4D4D4D",
"8  c #4E4E4E",
"9  c #4F4F4F",
"0  c #505050",
"q  c #515151",
"w  c #525252",
"e  c #535353",
"r  c #545454",
"t  c #555555",
"y  c #565656",
"u  c #575757",
"i  c #585858",
"p  c #595959",
"a  c #5A5A5A",
"s  c #5D5D5D",
"d  c #5E5E5E",
"f  c #606060",
"g  c #626262",
"h  c #676767",
"j  c #6C6C6C",
"k  c #6D6D6D",
"l  c #787878",
"z  c #7E7E7E",
"x  c #818181",
"c  c #898989",
"v  c #8E8E8E",
"b  c #919191",
"n  c #949494",
"m  c #969696",
"M  c #979797",
"N  c #9A9A9A",
"B  c #9B9B9B",
"V  c #9C9C9C",
"C  c #9F9F9F",
"Z  c #A0A0A0",
"A  c #A1A1A1",
"S  c #A2A2A2",
"D  c #A3A3A3",
"F  c #A9A9A9",
"G  c #ACACAC",
"H  c #B0B0B0",
"J  c #B1B1B1",
"K  c #B3B3B3",
"L  c #B4B4B4",
"P  c #B5B5B5",
"I  c #B8B8B8",
"U  c #BABABA",
"Y  c #BDBDBD",
"T  c #BEBEBE",
"R  c #BFBFBF",
"E  c #C1C1C1",
"W  c #C5C5C5",
"Q  c #C6C6C6",
"!  c #C7C7C7",
"~  c #C8C8C8",
"^  c #C9C9C9",
"/  c #CBCBCB",
"(  c #CCCCCC",
")  c #CFCFCF",
"_  c #D0D0D0",
"`  c #D1D1D1",
"'  c #D2D2D2",
"]  c #D3D3D3",
"[  c #D4D4D4",
"{  c #D5D5D5",
"}  c #D6D6D6",
"|  c #D7D7D7",
" . c #D8D8D8",
".. c #D9D9D9",
"X. c #DADADA",
"o. c #DBDBDB",
"O. c #DCDCDC",
"+. c #DDDDDD",
"@. c #DEDEDE",
"#. c #DFDFDF",
"$. c #E0E0E0",
"%. c #E1E1E1",
"&. c #E2E2E2",
"*. c #E3E3E3",
"=. c #E4E4E4",
"-. c #E5E5E5",
";. c #E6E6E6",
":. c #E7E7E7",
">. c #E8E8E8",
",. c #E9E9E9",
"<. c #EAEAEA",
"1. c #EBEBEB",
"2. c #ECECEC",
"3. c #EDEDED",
"4. c #EEEEEE",
"5. c #EFEFEF",
"6. c #F0F0F0",
"7. c #F1F1F1",
"8. c #F2F2F2",
"9. c #F3F3F3",
"0. c #F4F4F4",
"q. c #F5F5F5",
"w. c #F6F6F6",
"e. c #F7F7F7",
"r. c #F8F8F8",
"t. c #F9F9F9",
"y. c #FAFAFA",
"u. c #FBFBFB",
"i. c #FCFCFC",
"p. c #FDFDFD",
"a. c #FEFEFE",
"s. c #FFFFFF",
/* pixels */
"                                                                                                                                ",
"                                                                                                                                ",
"                                                                                                                                ",
"                                                                                                                                ",
"                                                        s.s.s.s.s.s.s.s.s.s.                                                    ",
"                                                    s.s.s.s.s.s.s.s.s.s.s.s.s.                                                  ",
"                                                    s.s.s.s.s.s.s.s.s.s.s.s.s.                                                  ",
"                                                    s.s.s.s.s.s.>.>.>.>.s.s.s.                                                  ",
"                                                    s.s.s.s.s.q.X.' ' X.q.s.s.                                                  ",
"                                                    s.s.s.s.s.q.X.' ' X.q.s.s.                                                  ",
"                                          s.s.s.s.s.s.s.s.s.s.q.X.' ' X.>.s.s.s.s.s.s.s.                                        ",
"                                          s.s.s.s.s.s.s.s.s.s.q.X.' ' X.*.>.q.q.q.s.s.s.                                        ",
"                                          s.s.s.s.s.s.s.s.s.s.q.X.' ' ' X.X.X.X.*.s.s.s.                                        ",
"                                          s.s.s.s.s.s.s.s.s.s.q.X.X.X.' ' ' ' ' X.s.s.s.                                        ",
"                                          s.s.s.s.s.s.s.s.s.s.s.q.q.q.>.' ' ' ' X.s.s.s.                                        ",
"                                          s.s.s.s.s.s.s.s.s.s.s.s.s.s.>.' ' ' ' X.s.s.s.                                        ",
"                                          s.s.s.s.s.s.s.s.s.s.s.s.s.q.>.' ' ' ' X.s.s.s.                                        ",
"                                          s.s.s.s.s.s.s.s.s.s.s.s.s.q.>.' ' ' ' X.s.s.s.                                        ",
"                                          s.s.s.s.s.s.s.s.s.s.s.s.s.q.>.X.X.*.*.*.s.s.s.                                        ",
"                        s.s.s.s.s.s.s.s.s.s.s.s.s.s.s.s.s.s.s.s.s.s.s.q.*.q.s.q.s.s.s.s.s.s.s.s.s.s.s.s.s.                      ",
"                    s.s.s.s.s.s.s.s.s.s.s.s.s.s.s.s.s.s.s.s.s.s.s.s.s.q.X.q.s.s.s.q.q.>.>.>.q.q.s.s.s.s.s.s.s.s.                ",
"                s.s.s.s.s.s.s.s.s.s.s.s.s.s.s.s.s.s.s.s.s.s.s.s.s.s.s.q.X.q.s.s.s.q.*.X.X.X.X.*.*.>.q.s.s.s.s.s.s.              ",
"                s.s.s.s.s.s.s.s.s.s.s.s.s.s.s.s.s.s.s.s.s.s.s.s.s.s.s.q.*.q.s.s.s.q.>.*.' ' ' ' ' ' ' *.q.s.s.s.s.s.            ",
"                s.s.s.s.s.s.s.s.s.s.s.s.s.s.s.s.s.s.s.s.s.s.s.s.s.s.s.q.q.q.s.s.s.s.q.q.>.*.' ' ' ' ' ' X.>.s.s.s.s.            ",
"              s.s.s.s.s.s.s.s.s.s.s.s.s.s.s.s.s.s.s.s.s.s.s.s.s.s.s.s.s.q.q.s.s.s.s.s.s.q.q.*.' ' ' ' ' ' X.>.s.s.s.            ",
"            s.s.s.s.s.s.s.s.s.s.s.s.s.s.s.s.s.s.s.s.s.s.s.s.s.s.s.s.s.s.s.s.s.s.s.s.s.s.s.s.q.*.' ' ' ' ' ' X.q.s.s.s.s.        ",
"            s.s.s.s.s.s.s.s.s.s.s.s.s.s.s.s.s.s.s.s.s.s.s.s.s.q.s.s.s.s.s.s.s.s.s.s.s.s.s.s.s.>.*.' ' ' ' ' ' *.q.s.s.s.        ",
"            s.s.s.s.s.s.s.s.s.s.s.s.q.q.s.s.s.s.s.s.s.s.s.s.s.q.s.s.s.s.s.s.s.s.s.s.s.s.s.s.s.s.>.' ' ' ' ' ' ' >.s.s.s.        ",
"            s.s.s.s.s.s.s.s.s.s.s.s.s.s.s.s.s.q.s.s.s.s.s.s.s.s.s.s.s.q.s.s.s.s.s.s.s.s.s.s.s.s.q.X.' ' ' ' ' ' >.s.s.s.        ",
"            s.s.s.s.s.s.s.s.s.q.s.q.s.s.s.s.s.q.s.s.s.s.s.s.s.s.s.s.s.s.s.s.s.s.s.s.s.s.s.s.s.s.q.>.' ' ' ' ' ' *.q.s.s.        ",
"            s.s.s.s.s.s.s.s.s.q.s.s.s.s.s.s.s.s.s.q.s.s.s.s.s.s.s.s.s.s.q.q.s.s.s.s.s.s.s.s.s.s.s.>.X.' ' ' ' ' X.>.s.s.        ",
"            s.s.s.s.s.s.s.s.s.s.s.s.s.s.s.s.s.s.s.s.s.s.s.q.q.s.s.s.s.s.s.q.s.s.s.s.q.s.s.s.s.s.s.>.X.' ' ' ' ' X.>.s.s.        ",
"            s.s.s.s.s.s.s.s.s.s.s.s.s.s.s.s.s.s.s.s.s.s.s.q.q.s.s.s.s.s.s.s.s.s.s.s.s.s.s.q.q.s.s.>.X.' ' ' ' ' X.>.s.s.        ",
"            s.s.s.s.s.s.s.s.s.s.s.s.s.s.s.s.s.s.s.s.q.q.s.s.s.s.s.s.s.s.s.s.s.s.s.q.s.s.s.s.s.s.q.>.X.' ' ' ' ' *.q.s.s.        ",
"            s.s.s.s.s.s.s.s.s.s.s.s.s.s.q.s.s.s.s.s.s.s.s.s.s.s.s.q.s.s.s.s.s.q.s.s.s.s.s.s.s.s.q.*.' ' ' ' ' ' *.s.s.s.        ",
"            s.s.s.s.s.s.s.s.s.s.s.s.q.s.q.s.s.s.s.s.s.s.s.s.s.s.s.s.s.s.s.s.s.q.s.s.s.s.s.s.s.q.>.' ' ' ' ' ' ' >.s.s.s.        ",
"            s.s.s.s.s.s.s.s.s.s.s.s.s.s.s.s.s.s.s.s.s.s.s.s.s.s.s.s.q.q.s.s.s.s.s.s.s.s.s.s.s.q.*.' ' ' ' ' ' X.q.s.s.s.        ",
"            s.s.s.s.s.s.s.s.s.s.s.s.s.s.s.s.s.s.s.s.s.s.s.s.s.s.s.s.s.s.s.s.s.s.s.s.s.s.s.s.q.*.' ' ' ' ' ' ' q.s.s.s.          ",
"              s.s.s.s.s.q.s.q.s.s.s.q.q.s.s.s.s.s.s.q.s.s.s.s.s.s.s.s.s.s.s.s.s.s.s.s.s.s.q.*.' ' ' ' ' ' X.>.s.s.s.            ",
"              s.s.s.s.s.s.s.q.s.s.s.s.q.s.s.s.s.s.s.s.s.s.s.q.q.s.s.s.s.s.s.s.s.s.s.s.s.q.*.' ' ' ' ' ' X.>.s.s.s.s.            ",
"                  s.s.s.s.s.s.s.s.s.s.s.s.s.s.q.s.s.s.s.s.s.s.s.s.s.s.s.s.s.s.s.s.s.s.q.*.' ' ' ' ' ' X.>.s.s.s.s.              ",
"                s.s.s.s.s.s.s.s.s.s.s.s.s.s.s.s.s.s.s.s.s.s.s.s.s.s.s.s.s.s.s.s.s.s.q.*.' ' ' ' ' ' ' >.s.s.s.s.s.              ",
"                    s.s.s.s.s.s.s.s.s.s.s.s.s.s.s.s.s.s.s.s.s.s.s.s.s.s.s.s.s.s.q.q.*.' ' ' ' ' ' X.>.s.s.s.s.s.                ",
"                      s.s.s.s.s.s.s.s.s.s.s.s.s.s.s.s.s.s.s.s.s.s.s.s.s.s.s.s.s.q.>.' ' ' ' ' ' X.>.s.s.s.s.                    ",
"                        s.s.s.s.s.s.s.s.s.s.s.s.q.q.>.>.>.>.*.*.*.*.*.*.>.>.q.q.q.>.X.' ' ' ' ' X.q.s.s.s.                      ",
"                          s.s.s.s.s.s.q.q.q.>.>.X.~ ! J G S N N b b N N G J ! ' X.' ~ ~ ' ' ' ' X.q.s.s.                        ",
"                          s.s.s.s.s.s.>.~ N k d d t t 5 5 5 5 5 5 5 5 5 5 t t t t t d l S ! ' ' X.q.s.s.                        ",
"                          s.s.s.s.q.' v k t = O O O O O O O O = O O O O O O O O O O O 1 t k J ' *.q.s.s.                        ",
"                          s.s.s.s.q.R t O O = = = O O O O O O O O O O O O O O O = O O O . = N ~ *.q.s.s.                        ",
"                          s.s.s.s.q.R d O = = = 1 5 5 t t t t d t t t t t t t 5 5 = O O . = S ~ *.q.s.s.                        ",
"                          s.s.s.s.q.R d = = 1 f x N J R ~ ' ' ' ' ' ' ' ~ ! J S v f 1 O O 1 S ~ *.q.s.s.                        ",
"                          s.s.s.s.q.! N S R ~ ' X.*.>.q.q.q.q.s.s.q.q.q.q.q.>.>.X.! J S b l J ~ *.q.s.s.                        ",
"                          s.s.s.s.q.*.X.>.s.s.s.s.s.s.s.s.s.s.s.s.s.s.s.s.s.s.q.>.*.X.' ~ R ! ~ X.q.s.s.                        ",
"                          s.s.s.s.s.s.s.s.s.s.s.s.q.q.q.q.q.q.q.q.q.q.>.>.>.*.*.X.' ' ' ' ' ' X.*.q.s.s.                        ",
"                          s.s.s.s.s.s.s.s.s.q.q.>.>.>.>.*.*.*.X.X.' ' ' ' ' ' ' ' ' ' X.X.X.X.>.s.s.s.s.                        ",
"                            s.s.s.s.s.s.s.q.>.>.*.X.X.X.X.' ' ' ' ' ' ' ' ' ' ' ' X.*.>.q.q.s.s.s.s.s.s.                        ",
"                              s.s.s.s.s.s.s.s.q.q.q.q.>.>.>.>.>.>.>.>.>.>.>.>.q.q.q.q.s.s.s.s.s.s.s.s.s.                        ",
"                                  s.s.s.s.s.s.s.s.s.s.s.s.s.s.s.s.s.s.s.s.s.s.s.s.s.s.s.s.s.s.s.                                ",
"                                                s.s.s.s.s.s.s.s.s.s.s.s.s.s.s.s.s.s.s.                                          ",
"                                                    s.s.s.s.s.s.s.s.s.s.s.s.s.s.                                                ",
"                                                                                                                                ",
"                                                                                                                                ",
"                                                                                                                                ",
"                                                                                                                                "
};
