/* XPM */
static char *wN[] = {
/* columns rows colors chars-per-pixel */
"64 64 177 2 ",
"   c None",
".  c #2E2E2E",
"X  c #303030",
"o  c #323232",
"O  c #333333",
"+  c #343434",
"@  c #353535",
"#  c #363636",
"$  c #373737",
"%  c #383838",
"&  c #3A3A3A",
"*  c #3B3B3B",
"=  c #3C3C3C",
"-  c #3D3D3D",
";  c #3E3E3E",
":  c #3F3F3F",
">  c #404040",
",  c #414141",
"<  c #424242",
"1  c #434343",
"2  c #444444",
"3  c #464646",
"4  c #474747",
"5  c #484848",
"6  c #494949",
"7  c #4A4A4A",
"8  c #4B4B4B",
"9  c #4C4C4C",
"0  c #4D4D4D",
"q  c #4E4E4E",
"w  c #4F4F4F",
"e  c #505050",
"r  c #515151",
"t  c #525252",
"y  c #535353",
"u  c #545454",
"i  c #565656",
"p  c #575757",
"a  c #585858",
"s  c #595959",
"d  c #5A5A5A",
"f  c #5B5B5B",
"g  c #5C5C5C",
"h  c #5D5D5D",
"j  c #5E5E5E",
"k  c #5F5F5F",
"l  c #626262",
"z  c #636363",
"x  c #646464",
"c  c #666666",
"v  c #676767",
"b  c #686868",
"n  c #6C6C6C",
"m  c #6D6D6D",
"M  c #6F6F6F",
"N  c #717171",
"B  c #727272",
"V  c #737373",
"C  c #767676",
"Z  c #787878",
"A  c #797979",
"S  c #7C7C7C",
"D  c #7D7D7D",
"F  c #7F7F7F",
"G  c #808080",
"H  c #818181",
"J  c #828282",
"K  c #838383",
"L  c #848484",
"P  c #858585",
"I  c #878787",
"U  c #898989",
"Y  c #8B8B8B",
"T  c #8C8C8C",
"R  c #8D8D8D",
"E  c #8E8E8E",
"W  c #8F8F8F",
"Q  c #909090",
"!  c #919191",
"~  c #929292",
"^  c #939393",
"/  c #949494",
"(  c #959595",
")  c #969696",
"_  c #979797",
"`  c #989898",
"'  c #999999",
"]  c #9A9A9A",
"[  c #9B9B9B",
"{  c #9D9D9D",
"}  c #9E9E9E",
"|  c #9F9F9F",
" . c #A0A0A0",
".. c #A2A2A2",
"X. c #A3A3A3",
"o. c #A4A4A4",
"O. c #A5A5A5",
"+. c #A6A6A6",
"@. c #A7A7A7",
"#. c #A8A8A8",
"$. c #A9A9A9",
"%. c #AAAAAA",
"&. c #ABABAB",
"*. c #ADADAD",
"=. c #AFAFAF",
"-. c #B1B1B1",
";. c #B2B2B2",
":. c #B3B3B3",
">. c #B4B4B4",
",. c #B8B8B8",
"<. c #BABABA",
"1. c #BCBCBC",
"2. c #BDBDBD",
"3. c #BEBEBE",
"4. c #BFBFBF",
"5. c #C1C1C1",
"6. c #C3C3C3",
"7. c #C4C4C4",
"8. c #C5C5C5",
"9. c #C6C6C6",
"0. c #C7C7C7",
"q. c #C8C8C8",
"w. c #C9C9C9",
"e. c #CACACA",
"r. c #CBCBCB",
"t. c #CCCCCC",
"y. c #CDCDCD",
"u. c #CECECE",
"i. c #CFCFCF",
"p. c #D0D0D0",
"a. c #D1D1D1",
"s. c #D2D2D2",
"d. c #D3D3D3",
"f. c #D4D4D4",
"g. c #D5D5D5",
"h. c #D6D6D6",
"j. c #D7D7D7",
"k. c #D8D8D8",
"l. c #D9D9D9",
"z. c #DADADA",
"x. c #DBDBDB",
"c. c #DCDCDC",
"v. c #DDDDDD",
"b. c #DEDEDE",
"n. c #DFDFDF",
"m. c #E0E0E0",
"M. c #E1E1E1",
"N. c #E2E2E2",
"B. c #E3E3E3",
"V. c #E4E4E4",
"C. c #E5E5E5",
"Z. c #E6E6E6",
"A. c #E7E7E7",
"S. c #E8E8E8",
"D. c #E9E9E9",
"F. c #EAEAEA",
"G. c #EBEBEB",
"H. c #ECECEC",
"J. c #EDEDED",
"K. c #EEEEEE",
"L. c #EFEFEF",
"P. c #F0F0F0",
"I. c #F1F1F1",
"U. c #F2F2F2",
"Y. c #F3F3F3",
"T. c #F4F4F4",
"R. c #F5F5F5",
"E. c #F6F6F6",
"W. c #F7F7F7",
"Q. c #F8F8F8",
"!. c #F9F9F9",
"~. c #FAFAFA",
"^. c #FBFBFB",
"/. c #FCFCFC",
"(. c #FDFDFD",
"). c #FEFEFE",
"_. c #FFFFFF",
/* pixels */
"                                                                                                                                ",
"                                                                                                                                ",
"                                                                                                                                ",
"                                                                                                                                ",
"                                                                                                                                ",
"                                                                                                                                ",
"                                                                                                                                ",
"                                                _._._._._.                                                                      ",
"                                                _._._._._._._.                                                                  ",
"                                            _._._._._._._._._._._.                                                              ",
"                                            _._._.I.m.m.I._._._._._.                                                            ",
"                                            _._._.I.x.g.x.H._._._._._.                                                          ",
"                                  _._._._._._._._._.H.x.g.x.H._._._._._._._._.                                                  ",
"                                  _._._._._._._._._._.H.x.g.x.H._._._._._._._._._._._.                                          ",
"                                  _._._._._._._._._._.I.H.x.g.x.x.m.H.I._._._._._._._.                                          ",
"                                  _._._._._._._._._._._.I.H.x.g.g.g.x.x.m.m.I._._._._._._.                                      ",
"                                  _._._._._._._._._._._.I.I.H.m.m.x.x.g.g.g.x.H.H._._._._._._.                                  ",
"                                  _._._._._._._._._._._._._._._._.I.H.x.x.g.g.g.g.m.I._._._._._._.                              ",
"                                      _._._._._._._._._._._._._._._.I.I.I.m.x.g.g.g.g.m._._._._._.                              ",
"                                      _._._._._._._._._._._._._._._.I.I._._.I.m.g.g.g.x.m.I._._._._._.                          ",
"                                  _._._._._._._._._._._._._._._._.I.g...^ %.y.m.H.x.g.g.g.x.H._._._._._.                        ",
"                                _._._._._._._._._._._._._._._._._.I.y.^ m C W %.9.x.x.g.g.g.x.H._._._._.                        ",
"                              _._._._._._._._._.I.H.H.I.I._._._._._._.I.H.-.C 3 i -.x.x.g.g.g.x.H._._._._.                      ",
"                                _._._._._._._._.x...P 2.H._._._._._._._._.I.x.^ w i W 9.x.g.g.g.x.H._._._.                      ",
"                              _._._._._._._.I.-.S w h y.I._._._._._._._._._._.m...i w P -.g.g.g.g.x.I._._._.                    ",
"                          _._._._._._._._.H.2.c * w W H._._._.I.m.H._._._._._._.H.{ w 3 S 2.g.g.g.g.m._._._.                    ",
"                        _._._._._._._._._.y.m 3 o C x._._._._.I.9.2.x._._._._._._.H.P * w W 9.g.g.g.g.H._._._._.                ",
"                        _._._._._._._._.m.{ 3 i 3 P H._._._._.I.y.m P H._._._._._.I.g.P * w ..y.g.g.g.m.I._._._.                ",
"                      _._._._._._._._._.g.^ c 2.y.x.I._._._._.I.H.m 3 ^ I._._._._._._...w * h %.x.g.g.g.H._._._.                ",
"                      _._._._._._._._._.H.y.2.H._._._._._._._._.I.C o c m._._._._._._.g.P * * W y.g.g.g.m.I._._._.              ",
"                    _._._._._._._._._._._._._._._._._._._._._.I.m.C . h g.H.I._._._._.I.-.* o m %.g.g.g.x.H._._._.              ",
"                    _._._._._._._._._._._._._._._._._._._._._.I.2.h o h 9.m.I._._._._._.y.3 * * S g.g.g.g.m._._._.              ",
"                    _._._._._._._._._._._._._._._._._._._._._.x.h * w S y.m.I._._._._._.g.C 3 o m 9.g.g.g.x._._._.              ",
"                _._._._._._._._._._._._._._._._.I._._._._._.m.{ 3 i W 2.g.H.I._._._._._.m.{ w o h ..g.g.g.x.I._._.              ",
"                _._._._._._._._._._._._._._._._._._._._._._.g.P C { 9.g.g.H._._._._._._.H.2.i o w S y.g.g.x.m._._._.            ",
"              _._._._._.m.9.g.H._._._._._._._._._._._._._.I.y...9.g.g.g.g.I._._._._._._.I.g.i o o i 9.g.g.g.x._._._.            ",
"              _._._._.H.%.w S g._._._._._._._._._._._.I.I.m.g.g.g.g.g.g.x.I._._._._._._._.m.h o o w 2.g.g.g.x._._._.            ",
"              _._._.I...w * { m._._._._._._._._._.I.I.m.x.g.g.x.m.x.g.g.m.I._._._._._._._.m.h o o w -.g.g.g.x.I._._.            ",
"              _._._.x.^ C ..g.I._.I.x.H._._._._.I.m.x.g.x.m.H.H.H.x.g.x.H._._._._._._._._.H.h o o 3 { y.g.g.x.I._._.            ",
"              _._._.x.9.y.I._._.H.9.W g._._._.I.H.m.x.m.H._._._.H.x.g.x.I._._._._._._._._.H.c * o 3 P 9.g.g.x.H._._.            ",
"              _._._._._._._._.I.y.S w 2._._._.I.I.I._._._._._._.H.x.x.H.I._._._._._._._._.H.C * o * m 2.x.g.g.H._._.            ",
"              _._._._._._._._.g.P w P x._._._._._._._._._._._._.I.I.I.I._._._._._._._._._.H.S 3 o * i -.x.g.g.H._._.            ",
"              _._._._._._.I.m.P c { g.I._._._._._._._._._._._._._._._._._._._._._._._._._.H.P w o o 3 %.x.g.g.m.I._.            ",
"              _._._._._._.I...S { m._._._._._._._._._._._._._._._._._._._._._.I._._._._._.H.W w * o o %.x.g.g.m.I._.            ",
"                _._._._._.I.{ 2.H._._._._._._._._._._._._._._._._._._._._._._._._._._._._.H.^ i o o * %.x.g.g.x.I._.            ",
"                    _._._._._._._._._._._._._._._._._._._.I._._._._._._._._._._._._._._._.I.{ i o o * %.x.g.g.x.I._.            ",
"                    _._._._._._._._._._._._._._._._._._._.I._._._._._._._._._._._._._._._.I.{ i o o o ..g.g.g.x.I._.            ",
"                      _._._._._._._._._._._._._._._._._._._._._._._._._._._._._._._._._._.I.{ i o o o ..g.g.g.x.I._.            ",
"                                      _._._._._._._._._._._._._._._._._._._.I._._._._._._.H.{ i o o o ..g.g.g.x.I._.            ",
"                                      _._._._._._._._._._._._._._._._._._._._._._._._._._.H.^ i o o o ..g.g.g.x.I._.            ",
"                                      _._._._._._._._._._._._._._._._._._._._._._._._._._.H.^ i o o o ..g.g.g.x.I._.            ",
"                                  _._._._._._._.I._._._._.I._._._._._._._._._._._._._._._.H.^ w o o o ..g.g.g.x.I._.            ",
"                                  _._._._._._._._._._._._._._._._._._._._._._.I._._._._._.H.^ w o o o ..g.g.g.x.I._.            ",
"                                  _._._._._._._._._._._._._._._._._.I._._._._.I._._._._._.H.W w o o o ..g.g.g.x.I._.            ",
"                                  _._._._._._._._._._._._._._._._._._._._._._._._._._._._.H.W w * o * ..g.g.g.x.I._.            ",
"                                  _._._._._._._._._._._._._._._._._._._._._._._._._._._._.H.W c h i i %.g.g.g.x.I._.            ",
"                                  _._._._._._._._._._._._._._._._._._._._._._._._._._._._._.x.y.9.9.9.x.H.H.H.H._._.            ",
"                                  _._._._._._._._._._._._._._._._._._._._._._._._._._._._._._._._._._._._._._._._._.            ",
"                                  _._._._._._._._._._._._._._._._._._._._._._._._._._._._._._._._._._._._._._._._._.            ",
"                                      _._._._._._._._._._._._._._._._._._._._._._._._._._._._._._._._._._._._._._._.            ",
"                                                                                                                                ",
"                                                                                                                                ",
"                                                                                                                                ",
"                                                                                                                                "
};
