/* XPM */
static char *wP[] = {
/* columns rows colors chars-per-pixel */
"64 64 46 1 ",
"  c None",
". c #D3D3D3",
"X c #D4D4D4",
"o c #D5D5D5",
"O c #D6D6D6",
"+ c #D7D7D7",
"@ c #D8D8D8",
"# c #D9D9D9",
"$ c #DADADA",
"% c #DBDBDB",
"& c #DCDCDC",
"* c #DDDDDD",
"= c #DEDEDE",
"- c #DFDFDF",
"; c #E0E0E0",
": c #E1E1E1",
"> c #E2E2E2",
", c #E3E3E3",
"< c #E4E4E4",
"1 c #E5E5E5",
"2 c #E6E6E6",
"3 c #E7E7E7",
"4 c #E8E8E8",
"5 c #E9E9E9",
"6 c #EAEAEA",
"7 c #EBEBEB",
"8 c #ECECEC",
"9 c #EDEDED",
"0 c #EEEEEE",
"q c #EFEFEF",
"w c #F0F0F0",
"e c #F1F1F1",
"r c #F2F2F2",
"t c #F3F3F3",
"y c #F4F4F4",
"u c #F5F5F5",
"i c #F6F6F6",
"p c #F7F7F7",
"a c #F8F8F8",
"s c #F9F9F9",
"d c #FAFAFA",
"f c #FBFBFB",
"g c #FCFCFC",
"h c #FDFDFD",
"j c #FEFEFE",
"k c #FFFFFF",
/* pixels */
"                                                                ",
"                                                                ",
"                                                                ",
"                                                                ",
"                                                                ",
"                                                                ",
"                                                                ",
"                                                                ",
"                                                                ",
"                                                                ",
"                                                                ",
"                                                                ",
"                            kkkkkkkk                            ",
"                          kkkkkkkkkkkkk                         ",
"                          kkkkkkkkkkkkk                         ",
"                         kkkkq>>>>>qkkkk                        ",
"                         kkkkq&++++&qkkk                        ",
"                        kkkkkiq>&++++qkk k                      ",
"                        kkkkkkkii&+++&ikkk                      ",
"                        kkkkkkkkkq&+++qkkk                      ",
"                        kkkkkkkkki>+++qkkk                      ",
"                        kkkkkkkkki>+++qkkk                      ",
"                        kkkkkkkki>&++&ikkk                      ",
"                         kkkkkkiq&+++qkk k                      ",
"                      kkkkkkkkki>++++qkkkkk                     ",
"                     kkkkkkkkkkiq>&++>qkkkk                     ",
"                     kkkkkkkkkkkkiq&++&qkkkk                    ",
"                     kkkkkkkkkkkkkiq&++&qkkk                    ",
"                    kkkkkiikkkkkkkkiq&++&ikk                    ",
"                    kkkkkiikkkkkkkkki&+++qkkk                   ",
"                    kkkkkkkkkkkkkkkkk>&++&ikk                   ",
"                    kkkkkkkkkkkkkkkkki&+++ikk                   ",
"                    kkkkkkkkkkkkkkkkki&+++ikk                   ",
"                    kkkkkkkkkkkkkkikkq&+++ikk                   ",
"                    kkkkkkkkkkkkkkikk>&++&ikk                   ",
"                    kkkkkkkkiikkkkkii&+++qkkk                   ",
"                     kkkkkkkkkkkkkii>+++&kkk                    ",
"                     kkkkkkkkkkkkiq&+++>ikkk                    ",
"                    kkkkkkkkkkkkkkq&+++&ikkkk                   ",
"                   kkkkkkkkkkkkkkkiq>&++&qikkkkk                ",
"                 kkkkkkkkkkkikkkkkkkiq&+++>ikkkk                ",
"                 kkkkkkkkkkkikkkkkkkkiq>+++&ikkk                ",
"                kkkkkkkkiikkkkkkkkkkkkiq>+++&ikkk               ",
"               kkkkkkkkkkkkkkkkkkkkkkkkiq++++>ikkkk             ",
"               kkkkkkkkkkkkkkkkkkkkkkkkki&++++>ikkk             ",
"               kkkkkkkkkkkkkikkkkkkkkkkkkq&++++qkkkk            ",
"              kkkkkikkkkikkkkkkkkkkkkkkkki&++++>ikkk            ",
"             kkkkkkiikkkkkkkkkkkikkkkkkkkk>+++++qkkk            ",
"             kkkkkkkkkkkkkkkkkkkkkkkikkkkk>&++++>kkk            ",
"             kkkkkkkkkkkkkkkkkkkkkkkiikkkkq&++++&ikk            ",
"             kkkkkkkkkkkkkkkkiikkkkkkkkkkkq&++++&qkk            ",
"             kkkkkkkkkkkikkkkikkkkkkkkkkkkq&++++&qkk            ",
"             kkkkkkkkkkkkkkkkkkkkkkikikkkkq&++++&>kk            ",
"             kkkkkkkkkkkkkkkkkkkkkkikkkkkk>+++++&qkk            ",
"             kkkkkkkkiikkkkkkkkkkkkkkkkkki&+++++&qkk            ",
"             kkkkikkkkkkkkkkkkkkkkkkkkkkki&+++++>ikk            ",
"             kkkkkkkkkkkkkkkkkkkkkkkkkkkkkqqqqqqikkk            ",
"              kkkkkkkkkkkkkkkkkkkkkkkkkkkkkkkkkkkkkk            ",
"              kkkkkkkkkkkkkkkkkkkkkkkkkkkkkkkkkkkkkk            ",
"                kkkkkkkkkkkkkkkkkkkkkkkkkkkkkkkkkk              ",
"                                                                ",
"                                                                ",
"                                                                ",
"                                                                "
};
