/* XPM */
static char *wQ[] = {
/* columns rows colors chars-per-pixel */
"64 64 149 2 ",
"   c None",
".  c #292929",
"X  c #2B2B2B",
"o  c #2C2C2C",
"O  c #2F2F2F",
"+  c #303030",
"@  c #313131",
"#  c #323232",
"$  c #333333",
"%  c #343434",
"&  c #353535",
"*  c #363636",
"=  c #373737",
"-  c #383838",
";  c #393939",
":  c #3A3A3A",
">  c #3B3B3B",
",  c #3C3C3C",
"<  c #3D3D3D",
"1  c #3E3E3E",
"2  c #3F3F3F",
"3  c #404040",
"4  c #414141",
"5  c #474747",
"6  c #484848",
"7  c #494949",
"8  c #525252",
"9  c #555555",
"0  c #575757",
"q  c #5B5B5B",
"w  c #5D5D5D",
"e  c #616161",
"r  c #656565",
"t  c #666666",
"y  c #696969",
"u  c #6A6A6A",
"i  c #6B6B6B",
"p  c #6C6C6C",
"a  c #6D6D6D",
"s  c #6F6F6F",
"d  c #707070",
"f  c #747474",
"g  c #767676",
"h  c #787878",
"j  c #797979",
"k  c #7A7A7A",
"l  c #7B7B7B",
"z  c #7C7C7C",
"x  c #7D7D7D",
"c  c #7E7E7E",
"v  c #7F7F7F",
"b  c #808080",
"n  c #818181",
"m  c #828282",
"M  c #858585",
"N  c #868686",
"B  c #8B8B8B",
"V  c #8C8C8C",
"C  c #8D8D8D",
"Z  c #8F8F8F",
"A  c #909090",
"S  c #919191",
"D  c #929292",
"F  c #939393",
"G  c #949494",
"H  c #989898",
"J  c #999999",
"K  c #9A9A9A",
"L  c #9B9B9B",
"P  c #9C9C9C",
"I  c #9D9D9D",
"U  c #9F9F9F",
"Y  c #A0A0A0",
"T  c #A1A1A1",
"R  c #A3A3A3",
"E  c #A4A4A4",
"W  c #A6A6A6",
"Q  c #A7A7A7",
"!  c #A8A8A8",
"~  c #ADADAD",
"^  c #AEAEAE",
"/  c #B0B0B0",
"(  c #B4B4B4",
")  c #B5B5B5",
"_  c #B6B6B6",
"`  c #B7B7B7",
"'  c #B9B9B9",
"]  c #BBBBBB",
"[  c #BCBCBC",
"{  c #C0C0C0",
"}  c #C1C1C1",
"|  c #C2C2C2",
" . c #C3C3C3",
".. c #C4C4C4",
"X. c #C6C6C6",
"o. c #C7C7C7",
"O. c #C8C8C8",
"+. c #C9C9C9",
"@. c #CCCCCC",
"#. c #CDCDCD",
"$. c #CECECE",
"%. c #D0D0D0",
"&. c #D1D1D1",
"*. c #D2D2D2",
"=. c #D3D3D3",
"-. c #D4D4D4",
";. c #D5D5D5",
":. c #D6D6D6",
">. c #D7D7D7",
",. c #D8D8D8",
"<. c #D9D9D9",
"1. c #DADADA",
"2. c #DBDBDB",
"3. c #DCDCDC",
"4. c #DDDDDD",
"5. c #DEDEDE",
"6. c #DFDFDF",
"7. c #E0E0E0",
"8. c #E1E1E1",
"9. c #E2E2E2",
"0. c #E3E3E3",
"q. c #E4E4E4",
"w. c #E5E5E5",
"e. c #E6E6E6",
"r. c #E7E7E7",
"t. c #E8E8E8",
"y. c #E9E9E9",
"u. c #EAEAEA",
"i. c #EBEBEB",
"p. c #ECECEC",
"a. c #EDEDED",
"s. c #EEEEEE",
"d. c #EFEFEF",
"f. c #F0F0F0",
"g. c #F1F1F1",
"h. c #F2F2F2",
"j. c #F3F3F3",
"k. c #F4F4F4",
"l. c #F5F5F5",
"z. c #F6F6F6",
"x. c #F7F7F7",
"c. c #F8F8F8",
"v. c #F9F9F9",
"b. c #FAFAFA",
"n. c #FBFBFB",
"m. c #FCFCFC",
"M. c #FDFDFD",
"N. c #FEFEFE",
"B. c #FFFFFF",
/* pixels */
"                                                                                                                                ",
"                                                                                                                                ",
"                                                                                                                                ",
"                                                                                                                                ",
"                                                                                                                                ",
"                                                                                                                                ",
"                                                                                                                                ",
"                                          B.B.B.B.B.B.B.B.B.            B.B.B.B.B.B.B.B.                                        ",
"                                        B.B.B.B.B.B.B.B.B.B.B.      B.B.B.B.B.B.B.B.B.B.B.                                      ",
"                                        B.B.B.B.B.B.B.B.B.B.B.      B.B.B.B.B.B.B.B.B.B.B.                                      ",
"                                      B.B.B.B.B.B.B.B.B.B.B.B.B.B.B.B.B.B.B.B.B.B.B.B.B.B.B.B.                                  ",
"                                    B.B.B.B.B.B.B.B.B.B.B.B.B.B.B.B.B.B.B.B.B.B.B.B.B.B.B.B.B.B.                                ",
"                                    B.B.B.B.B.B.B.B.B.B.B.B.B.B.B.B.B.B.B.B.B.B.B.B.B.B.B.B.B.B.                                ",
"                                  B.B.B.B.B.B.B.B.B.B.B.B.B.B.B.B.B.B.B.B.B.B.B.B.B.B.B.B.B.B.B.                                ",
"                                  B.B.B.B.B.B.B.B.B.B.B.B.B.B.B.B.B.B.B.B.B.B.B.B.B.B.B.B.B.B.B.                                ",
"              B.B.B.B.B.B.B.B.B.B.B.B.B.B.B.B.B.B.B.B.B.B.B.B.B.B.B.B.B.B.B.B.B.B.B.B.B.B.B.B.B.B.B.B.B.B.B.B.B.B.B.            ",
"            B.B.B.B.B.B.B.B.B.B.B.B.B.B.B.B.B.B.B.B.B.B.B.B.B.B.B.B.B.B.B.B.B.B.B.B.B.B.B.B.B.B.B.B.B.B.x.x.B.B.B.B.B.B.        ",
"            B.B.B.B.B.B.B.B.B.B.B.B.B.B.B.B.B.B.B.B.B.B.B.B.B.B.B.B.B.B.B.B.B.B.B.B.B.B.B.B.B.B.B.B.x.a.w.w.a.x.B.B.B.B.        ",
"            B.B.B.B.B.B.B.B.B.B.B.B.B.B.B.B.B.B.B.B.B.B.B.B.B.B.B.B.B.B.B.B.B.B.B.B.B.B.B.B.B.B.B.x.w.2.;.;.;.2.a.B.B.B.B.      ",
"          B.B.B.B.B.B.B.B.B.B.B.B.B.B.B.B.B.B.B.B.B.B.B.B.B.B.B.B.B.B.B.B.B.B.B.B.B.B.B.B.B.B.B.B.B.x.a.w.;.;.;.2.x.B.B.B.      ",
"        B.B.B.B.B.B.B.B.B.x.B.x.B.B.B.B.B.B.B.B.B.B.B.B.B.B.B.B.B.B.B.B.B.B.B.B.B.B.B.B.B.B.B.B.B.B.B.B.x.w.;.;.;.a.B.B.B.      ",
"        B.B.B.B.B.B.B.B.B.B.B.x.B.B.B.B.B.B.B.B.B.B.B.B.B.B.B.B.B.B.B.B.B.B.B.B.B.B.B.B.B.B.B.B.B.B.B.B.B.x.2.;.;.w.B.B.B.      ",
"        B.B.B.B.B.B.B.B.B.B.B.B.B.B.B.B.B.B.B.B.B.B.B.B.B.B.B.B.B.B.B.B.x.x.B.B.B.B.B.B.B.B.B.B.B.B.B.B.B.x.2.;.;.w.B.B.B.      ",
"        B.B.B.B.B.B.B.B.B.B.B.B.B.B.B.B.B.B.B.B.B.B.B.B.B.B.B.B.B.B.B.B.B.x.B.B.B.B.B.B.B.B.B.B.B.B.B.B.B.a.;.;.;.w.B.B.B.      ",
"        B.B.B.B.B.B.B.B.B.B.B.B.B.B.B.B.B.B.B.B.B.B.B.B.B.B.B.B.B.B.B.B.B.B.B.B.B.B.B.B.B.B.B.B.B.B.B.B.x.w.;.;.2.a.B.B.B.      ",
"          B.B.B.B.B.B.B.B.B.B.B.B.B.B.B.B.B.B.B.B.B.B.B.B.B.B.B.B.B.B.B.B.B.B.B.B.B.B.B.B.B.B.B.B.x.x.a.w.2.;.;.w.x.B.B.B.      ",
"            B.B.B.B.B.B.B.B.B.B.B.B.B.B.B.B.B.B.B.B.B.B.B.B.B.B.B.B.B.B.B.B.B.B.B.B.B.B.B.B.B.B.B.x.w.;.;.;.2.w.x.B.B.B.        ",
"            B.B.B.B.B.B.B.B.B.B.B.B.B.B.B.B.B.B.B.B.x.x.B.B.x.B.B.B.B.B.B.B.B.B.B.B.B.B.B.B.B.B.x.a.;.;.2.a.x.B.B.B.B.B.        ",
"            B.B.B.B.B.B.B.B.B.B.B.B.B.B.B.B.B.B.B.B.B.B.B.B.B.B.B.B.x.B.B.B.B.B.B.B.B.B.B.B.B.B.x.w.;.;.w.x.B.B.B.B.B.          ",
"              B.B.B.B.B.B.B.B.B.B.B.B.B.B.B.B.B.B.B.B.B.B.B.B.B.B.B.x.B.B.B.B.B.B.B.B.B.B.B.B.B.a.2.;.;.w.B.B.B.B.B.            ",
"                    B.B.B.B.B.B.B.B.B.B.B.B.B.B.B.x.B.B.B.B.B.B.B.B.B.B.B.B.B.B.B.B.B.B.B.B.B.x.w.;.;.;.a.B.B.B.                ",
"                    B.B.B.B.B.B.B.B.B.B.B.B.B.B.x.x.B.B.B.x.B.B.B.B.B.B.B.B.B.B.B.B.B.B.B.B.B.a.2.;.;.2.x.B.B.B.                ",
"                    B.B.B.B.B.B.B.B.B.B.B.B.B.B.B.B.B.x.B.B.B.B.B.B.B.B.B.B.B.B.B.B.B.B.B.x.x.w.;.;.;.a.B.B.B.B.                ",
"                      B.B.B.B.B.B.B.B.B.B.x.B.B.B.B.B.x.B.B.B.B.B.B.B.B.B.B.B.B.B.B.x.B.B.x.a.2.;.;.;.a.B.B.                    ",
"                      B.B.B.B.B.B.B.B.B.x.B.B.B.B.B.B.B.B.B.B.B.B.B.B.B.B.B.B.B.B.B.B.B.B.x.w.;.;.;.2.x.B.B.                    ",
"                      B.B.B.B.B.B.B.B.B.B.B.B.B.B.B.B.B.B.B.B.B.B.B.B.B.B.B.B.B.B.B.B.B.B.x.2.;.;.;.w.x.B.B.                    ",
"                        B.B.B.B.B.B.B.B.B.B.B.B.B.B.B.x.x.x.x.x.x.x.x.x.x.B.B.B.B.B.B.B.x.a.;.;.;.2.a.B.B.                      ",
"                        B.B.B.B.B.B.B.B.B.B.B.B.B.B.x.a.w.;.@.| [ | @.;.2.a.x.B.B.B.B.B.x.2.;.;.;.2.x.B.B.                      ",
"                        B.B.B.B.B.B.B.B.B.B.w.@.R B M v v g y y r y y g v v M B U | 2.x.a.;.;.;.;.2.B.B.B.                      ",
"                        B.B.B.B.B.B.x.w.| ^ U v 9 , = = = = = = = = = = = = = = 6 y S R ^ [ @.;.2.w.B.B.B.                      ",
"                          B.B.B.B.B.x.[ y = , , , , , , , , = , , , , , , , , , , , , = 5 B @.;.2.x.B.B.                        ",
"                          B.B.B.B.B.x.[ y = , , , , , , , , , , , , , , , , , , , , = = 5 S @.;.w.B.B.B.                        ",
"                          B.B.B.B.B.B.a.B , = = = 5 w v B S R R ^ R R U B v r 6 = = = O w [ ;.2.a.B.B.B.                        ",
"                          B.B.B.B.B.B.B.| v r M S U ( @.;.w.w.a.a.a.a.w.2.@.[ R S v w r S ;.;.w.x.B.B.B.                        ",
"                              B.B.B.B.B.x.;.( 2.x.B.B.B.B.B.B.B.B.B.B.B.B.B.B.B.x.;.R R @.;.2.a.B.B.B.                          ",
"                              B.B.B.B.B.B.x.x.B.B.B.B.B.B.B.B.B.B.B.B.B.B.B.B.x.a.;.;.;.;.;.a.B.B.B.B.                          ",
"                              B.B.B.B.B.B.B.B.B.B.B.B.B.B.x.a.a.a.a.a.x.x.B.B.x.2.;.;.;.;.2.x.B.B.B.B.                          ",
"                                B.B.B.B.B.B.B.a.;.( S M M M v v v v v v M M S R ^ | ;.;.;.2.B.B.B.                              ",
"                                B.B.B.B.B.w.^ U M r 5 = = = = = = = = = = = 5 9 y M B ( ;.w.B.B.B.                              ",
"                                  B.B.B.B.| , = , , , , , , , , = = , , , , , = = = O v 2.w.B.B.                                ",
"                                  B.B.B.B.| , , , , , , , , , , , , , , , , , , = = O M 2.w.B.B.                                ",
"                                  B.B.B.B.| , = , 9 v S R ^ ( ( [ ( ( ^ R U M r , O O v 2.w.B.B.                                ",
"                                  B.B.B.B.;.v S U ( @.2.w.a.x.x.x.x.x.a.a.w.;.( B M y U 2.w.B.B.                                ",
"                                  B.B.B.B.a.;.x.B.B.B.B.B.B.B.B.B.B.B.B.B.B.B.a.2.;.[ | ;.w.B.B.                                ",
"                                  B.B.B.B.B.B.B.B.B.B.B.B.B.B.x.x.x.x.x.x.x.a.2.;.;.;.;.2.a.B.B.                                ",
"                                  B.B.B.B.B.B.B.B.B.B.B.B.x.a.a.w.w.2.2.2.2.2.;.;.2.w.a.x.B.B.B.                                ",
"                                  B.B.B.B.B.B.B.B.B.B.B.B.B.x.x.a.a.a.a.a.a.a.x.x.x.B.B.B.B.B.B.                                ",
"                                      B.B.B.B.B.B.B.B.B.B.B.B.B.B.B.B.B.B.B.B.B.B.B.B.B.B.B.B.                                  ",
"                                                B.B.B.B.B.B.B.B.B.B.B.B.B.B.B.B.  B.                                            ",
"                                                      B.B.B.B.B.B.B.B.B.B.B.B.B.                                                ",
"                                                                                                                                ",
"                                                                                                                                ",
"                                                                                                                                ",
"                                                                                                                                "
};
