/* XPM */
static char *wR[] = {
/* columns rows colors chars-per-pixel */
"64 64 145 2 ",
"   c None",
".  c #303030",
"X  c #313131",
"o  c #323232",
"O  c #343434",
"+  c #353535",
"@  c #363636",
"#  c #373737",
"$  c #383838",
"%  c #393939",
"&  c #3D3D3D",
"*  c #3F3F3F",
"=  c #404040",
"-  c #414141",
";  c #434343",
":  c #444444",
">  c #464646",
",  c #484848",
"<  c #494949",
"1  c #4D4D4D",
"2  c #505050",
"3  c #515151",
"4  c #525252",
"5  c #545454",
"6  c #575757",
"7  c #585858",
"8  c #595959",
"9  c #5C5C5C",
"0  c #5E5E5E",
"q  c #5F5F5F",
"w  c #606060",
"e  c #616161",
"r  c #636363",
"t  c #656565",
"y  c #666666",
"u  c #686868",
"i  c #696969",
"p  c #6E6E6E",
"a  c #717171",
"s  c #797979",
"d  c #7A7A7A",
"f  c #7D7D7D",
"g  c #7F7F7F",
"h  c #808080",
"j  c #818181",
"k  c #828282",
"l  c #838383",
"z  c #858585",
"x  c #888888",
"c  c #8B8B8B",
"v  c #8C8C8C",
"b  c #8D8D8D",
"n  c #8E8E8E",
"m  c #8F8F8F",
"M  c #919191",
"N  c #929292",
"B  c #949494",
"V  c #959595",
"C  c #979797",
"Z  c #989898",
"A  c #999999",
"S  c #9A9A9A",
"D  c #9C9C9C",
"F  c #9E9E9E",
"G  c #A0A0A0",
"H  c #A1A1A1",
"J  c #A2A2A2",
"K  c #A3A3A3",
"L  c #A4A4A4",
"P  c #A5A5A5",
"I  c #A6A6A6",
"U  c #A9A9A9",
"Y  c #ABABAB",
"T  c #AEAEAE",
"R  c #B0B0B0",
"E  c #B2B2B2",
"W  c #B3B3B3",
"Q  c #B4B4B4",
"!  c #B5B5B5",
"~  c #B6B6B6",
"^  c #B7B7B7",
"/  c #B8B8B8",
"(  c #B9B9B9",
")  c #BBBBBB",
"_  c #BCBCBC",
"`  c #BDBDBD",
"'  c #BFBFBF",
"]  c #C3C3C3",
"[  c #C4C4C4",
"{  c #C5C5C5",
"}  c #C6C6C6",
"|  c #C7C7C7",
" . c #C9C9C9",
".. c #CACACA",
"X. c #CBCBCB",
"o. c #CCCCCC",
"O. c #CDCDCD",
"+. c #CECECE",
"@. c #D0D0D0",
"#. c #D1D1D1",
"$. c #D2D2D2",
"%. c #D3D3D3",
"&. c #D4D4D4",
"*. c #D5D5D5",
"=. c #D6D6D6",
"-. c #D7D7D7",
";. c #D8D8D8",
":. c #D9D9D9",
">. c #DADADA",
",. c #DBDBDB",
"<. c #DCDCDC",
"1. c #DDDDDD",
"2. c #DEDEDE",
"3. c #DFDFDF",
"4. c #E0E0E0",
"5. c #E1E1E1",
"6. c #E2E2E2",
"7. c #E3E3E3",
"8. c #E4E4E4",
"9. c #E5E5E5",
"0. c #E6E6E6",
"q. c #E7E7E7",
"w. c #E8E8E8",
"e. c #E9E9E9",
"r. c #EAEAEA",
"t. c #EBEBEB",
"y. c #ECECEC",
"u. c #EDEDED",
"i. c #EEEEEE",
"p. c #EFEFEF",
"a. c #F0F0F0",
"s. c #F1F1F1",
"d. c #F2F2F2",
"f. c #F3F3F3",
"g. c #F4F4F4",
"h. c #F6F6F6",
"j. c #F7F7F7",
"k. c #F8F8F8",
"l. c #F9F9F9",
"z. c #FAFAFA",
"x. c #FBFBFB",
"c. c #FCFCFC",
"v. c #FDFDFD",
"b. c #FEFEFE",
"n. c #FFFFFF",
/* pixels */
"                                                                                                                                ",
"                                                                                                                                ",
"                                                                                                                                ",
"                                                                                                                                ",
"                                                                                                                                ",
"                                                                                                                                ",
"                                                                                                                                ",
"                                                                                                                                ",
"                                                                                                                                ",
"                                                                                                                                ",
"                          n.n.n.n.n.n.n.n.n.n.n.n.n.n.n.n.n.n.n.n.n.n.n.n.n.n.n.n.n.n.n.n.n.n.n.n.n.n.n.                        ",
"                          n.n.n.n.n.n.n.n.n.n.n.n.n.n.n.n.n.n.n.n.n.n.n.n.n.n.n.n.n.n.n.n.n.n.n.n.n.n.n.                        ",
"                          n.n.n.n.n.n.n.n.n.n.n.n.n.n.n.n.n.n.n.n.n.n.n.n.n.n.n.n.n.n.j.y.y.y.y.j.n.n.n.                        ",
"                          n.n.n.n.n.n.n.n.n.n.n.n.n.n.n.n.n.n.n.n.n.n.n.n.n.n.n.n.n.n.y.&.&.&.&.3.j.n.n.                        ",
"                          n.n.n.n.n.n.n.n.n.n.n.n.n.n.n.n.n.n.n.n.n.n.n.n.n.n.n.n.n.n.y.&.&.&.&.3.j.n.n.                        ",
"                          n.n.n.n.n.n.n.n.n.n.n.n.n.n.n.n.n.n.n.n.n.n.n.n.n.n.n.n.n.n.y.&.&.&.&.3.j.n.n.                        ",
"                          n.n.n.n.n.n.n.n.n.n.n.n.n.n.n.n.n.n.n.n.n.n.n.n.n.n.n.n.n.n.8.&.&.&.&.3.j.n.n.                        ",
"                          n.n.n.n.n.n.n.n.n.n.n.n.n.n.n.n.n.n.n.n.n.n.n.n.n.n.n.n.n.n.8.&.&.&.&.3.j.n.n.                        ",
"                          n.n.n.n.n.n.n.n.n.n.n.n.n.n.n.n.n.n.n.n.n.n.n.n.n.n.n.n.n.n.8.&.&.&.&.3.j.n.n.                        ",
"                          n.n.n.n.n.n.n.n.n.n.n.n.n.n.n.n.n.n.n.n.n.n.n.n.n.n.n.n.n.n.y.&.&.&.&.3.j.n.n.                        ",
"                          n.n.n.n.n.n.n.y.3.8.8.8.8.8.8.3.3.3.3.8.8.8.8.8.8.8.8.8.8.8.&.| &.&.&.3.j.n.n.                        ",
"                          n.n.n.n.n.n.n.8.) V V A A A A V V V V A A A A A A A A V V V J ) &.&.&.3.j.n.n.                        ",
"                          n.n.n.n.n.n.n.y.R 1 ; % % % % % % % % % % % % % % % % % ; ; z | &.&.&.3.j.n.n.                        ",
"                          n.n.n.n.n.n.n.j.y...d 1 % % % % % % % % % % % % % % % % 7 J | &.&.&.3.y.n.n.n.                        ",
"                          n.n.n.n.n.n.n.n.n.j.&.A t % ; ; ; ; ; ; ; ; ; ; ; % 6 d U ..&.&.&.3.y.n.n.n.n.                        ",
"                            n.n.n.n.n.n.n.n.n.n.8.R z x x x x x x x x x x x z V ) &.&.&.&.8.j.n.n.n.n.n.                        ",
"                              n.n.n.n.n.n.n.n.n.n.y.| R R R R R R R R R R R ) | &.&.&.&.8.j.n.n.n.n.                            ",
"                                  n.n.n.n.n.n.n.n.3.A 1 ; ; ; ; ; ; ; ; ; ; p J &.&.&.8.n.n.n.n.n.                              ",
"                                  n.n.n.n.n.n.n.n.j...p ; + + + + + + + + % x ..&.&.3.j.n.n.n.n.                                ",
"                                      n.n.n.n.n.n.n.j.) d t t t t t t t p x ) &.&.&.8.j.n.n.n.                                  ",
"                                        n.n.n.n.n.n.n.j.| R R R R R R R R &.&.&.&.&.8.j.n.                                      ",
"                                        n.n.n.n.n.n.n.n.n.n.n.n.n.n.n.n.j.8.3.&.&.&.3.j.n.                                      ",
"                                        n.n.n.n.n.n.n.n.n.n.n.n.n.n.n.n.n.8.3.&.&.&.3.j.n.                                      ",
"                                        n.n.n.n.n.n.n.n.n.n.j.n.n.n.n.n.j.8.3.&.&.&.3.j.n.                                      ",
"                                        n.n.n.n.n.n.n.n.n.n.n.n.n.n.n.n.n.8.3.&.&.&.3.j.n.                                      ",
"                                        n.n.n.n.n.n.n.n.n.n.n.n.n.n.n.n.j.8.3.&.&.&.3.j.n.                                      ",
"                                        n.n.n.n.n.n.n.n.n.n.n.n.n.n.n.n.j.8.3.&.&.&.3.j.n.                                      ",
"                                        n.n.n.n.n.n.n.n.n.n.n.j.n.n.j.n.j.8.3.&.&.&.3.j.n.                                      ",
"                                        n.n.n.n.n.n.n.n.n.n.n.j.n.n.n.n.j.8.3.&.&.&.3.j.n.                                      ",
"                                      n.n.n.n.n.n.n.n.n.n.n.n.n.n.n.n.n.n.8.3.&.&.&.8.j.n.n.n.                                  ",
"                                  n.n.n.n.n.n.n.n.j.j.j.j.j.j.j.j.j.j.j.j.8.&.&.&.&.3.j.n.n.n.n.                                ",
"                                  n.n.n.n.n.n.n.n.8.| | | | | | | | | | | ) U R &.&.&.8.n.n.n.n.                                ",
"                                n.n.n.n.n.n.n.n.y.J 7 7 7 7 7 7 t 7 7 7 7 7 6 a U &.&.3.8.n.n.n.n.                              ",
"                              n.n.n.n.n.n.n.n.y.J 6 + + + + + + + + + + + + + % p ) &.&.&.8.n.n.n.n.n.                          ",
"                            n.n.n.n.n.n.n.n.j.3.d 1 6 6 6 6 6 6 6 6 6 6 6 6 6 6 t J ..&.&.&.y.n.n.n.n.n.                        ",
"                          n.n.n.n.n.n.n.n.n.j.| U J J J J J J J J J J J J J J J J J | &.&.&.&.y.n.n.n.n.n.                      ",
"                        n.n.n.n.n.n.n.n.n.j.8.J V V V V V V V V V V V V V V V V V V ) &.&.&.&.&.y.n.n.n.n.                      ",
"                      n.n.n.n.n.n.n.n.n.n...d 7 7 7 7 7 7 7 7 7 7 7 7 7 7 7 7 7 7 7 p J &.&.&.&.3.y.n.n.n.n.                    ",
"                      n.n.n.n.n.n.n.n.j.| d + + + + + + + + + + + + + + + + + + + + + 7 J ..&.&.&.3.y.n.n.n.                    ",
"                      n.n.n.n.n.n.n.j.&.z ; ; ; ; ; ; 1 1 1 1 1 ; 1 ; 1 1 1 1 1 ; ; ; ; t R &.&.&.&.3.j.n.n.                    ",
"                      n.n.n.n.n.n.n.j.R x x x x x x x x x x x x x x x x x x x x x x x x x A ..&.&.&.&.j.n.n.                    ",
"                      n.n.n.n.n.n.n.j.8.3.8.8.8.3.3.3.3.8.8.8.8.8.8.8.8.8.8.8.8.3.3.3.3.8.3.&.&.&.&.&.j.n.n.                    ",
"                      n.n.n.n.n.n.n.n.n.n.n.n.n.n.n.n.n.n.n.n.n.n.n.n.n.n.n.n.n.n.n.n.n.n.n.3.&.&.&.&.j.n.n.                    ",
"                      n.n.n.n.n.n.n.n.n.n.n.n.n.n.n.n.n.n.n.n.n.n.n.n.n.n.n.n.n.n.n.n.n.n.j.3.&.&.&.&.j.n.n.                    ",
"                      n.n.n.n.n.n.n.n.n.n.n.n.n.n.n.n.n.n.n.n.n.n.n.n.n.n.n.n.n.n.n.n.n.n.j.3.&.&.&.&.j.n.n.                    ",
"                      n.n.n.n.n.n.n.n.n.n.n.n.n.n.n.n.n.n.n.n.n.n.n.n.n.n.n.n.n.n.n.n.n.n.j.3.&.&.&.&.y.n.n.                    ",
"                      n.n.n.n.n.n.n.n.n.n.n.n.n.n.n.n.n.n.n.n.n.n.n.n.n.n.n.n.n.n.n.n.n.n.n.y.y.y.y.y.n.n.n.                    ",
"                      n.n.n.n.n.n.n.n.n.n.n.n.n.n.n.n.n.n.n.n.n.n.n.n.n.n.n.n.n.n.n.n.n.n.n.n.n.n.n.n.n.n.n.                    ",
"                      n.n.n.n.n.n.n.n.n.n.n.n.n.n.n.n.n.n.n.n.n.n.n.n.n.n.n.n.n.n.n.n.n.n.n.n.n.n.n.n.n.n.n.                    ",
"                            n.n.n.n.n.n.n.n.n.n.n.n.n.n.n.n.n.n.n.n.n.n.n.n.n.n.n.n.n.n.n.n.n.n.n.n.n.n.n.                      ",
"                                                                                                                                ",
"                                                                                                                                ",
"                                                                                                                                ",
"                                                                                                                                "
};
